<svg width="46" height="57" viewBox="0 0 46 57" fill="none" xmlns="http://www.w3.org/2000/svg">
<g clip-path="url(#clip0_73_486)">
<path d="M0.97053 56.3168C0.830692 56.1347 0.638414 55.973 0.559755 55.7676C0.333975 55.1733 0.770969 54.6839 1.50512 54.6839C5.55897 54.681 9.61283 54.6824 13.6667 54.6824C13.8823 54.6824 14.0993 54.6824 14.3892 54.6824C14.3892 53.8973 14.4008 53.1427 14.3761 52.3882C14.3717 52.279 14.2027 52.1318 14.0775 52.0779C11.0345 50.7961 8.65872 48.7422 6.902 45.9498C6.79858 45.7852 6.50434 45.657 6.29604 45.6541C4.91513 45.6279 3.53277 45.6468 2.15187 45.6381C1.04773 45.6323 0.511686 45.1064 0.507316 44.0008C0.498576 41.3832 0.498576 38.7671 0.507316 36.1495C0.511686 35.0191 1.05065 34.5093 2.19703 34.5078C2.96031 34.5064 3.7236 34.5006 4.48688 34.5108C4.74762 34.5151 4.85978 34.4438 4.90931 34.1582C5.76727 29.229 8.39507 25.5538 12.781 23.1445C13.0811 22.9799 13.1656 22.7833 13.1627 22.4555C13.1467 20.7105 13.2137 18.964 13.1379 17.2218C13.0767 15.8147 14.1867 15.1024 15.4423 15.6122C17.0476 16.2619 18.4926 17.1257 19.671 18.2735C20.2842 17.4738 20.8975 16.6872 21.4903 15.8861C21.5748 15.771 21.585 15.5845 21.5894 15.4287C21.601 14.9203 21.5821 14.4105 21.5981 13.9021C21.6156 13.3486 21.9361 13.0179 22.424 13.015C22.9208 13.0121 23.2179 13.3253 23.2471 13.8948C23.2587 14.1293 23.2485 14.3653 23.2485 14.6435C23.9798 14.4411 24.6658 14.2517 25.3898 14.0521C25.3898 13.2451 25.3854 12.428 25.3912 11.6122C25.3956 11.0136 25.6971 10.6479 26.1778 10.6319C26.6833 10.6144 27.0212 10.9975 27.0271 11.6108C27.0329 12.3012 27.046 12.9931 27.0212 13.6821C27.0096 14.0172 27.113 14.1585 27.4495 14.2255C27.9579 14.326 28.4546 14.492 28.9673 14.6319C29.0008 14.4556 29.0096 14.2706 29.0722 14.106C29.2149 13.7215 29.5048 13.5292 29.92 13.57C30.3322 13.6122 30.5755 13.8511 30.641 14.2604C30.8508 15.5598 31.0095 15.9487 31.7481 17.0266C32.5958 18.2648 33.0124 19.6326 32.9192 21.1344C32.8944 21.5364 33.0095 21.6835 33.4203 21.7782C35.1872 22.1831 36.8259 22.9027 38.3292 23.9209C38.8405 24.2676 38.9861 24.7468 38.7094 25.162C38.4224 25.5917 37.9577 25.6543 37.4232 25.2989C35.9388 24.3142 34.3278 23.6398 32.5915 23.2829C32.1341 24.0185 31.6796 24.7512 31.1785 25.5567C31.4072 25.5567 31.6432 25.5509 31.8792 25.5582C32.4239 25.5742 32.7866 25.8947 32.7954 26.3594C32.8027 26.824 32.4356 27.1882 31.9054 27.1896C28.1793 27.1955 24.4532 27.1955 20.7256 27.1896C20.1954 27.1882 19.837 26.824 19.8487 26.3535C19.8589 25.9049 20.1997 25.5902 20.711 25.5597C20.8348 25.5524 20.9587 25.5582 21.1553 25.5582C21.0504 25.4023 20.9922 25.296 20.9164 25.2057C19.8458 23.9297 19.3549 22.4453 19.3097 20.7935C19.3039 20.591 19.2602 20.3478 19.1408 20.1948C18.0293 18.7673 16.5814 17.8117 14.8116 17.1635C14.8116 17.6515 14.8116 18.0783 14.8116 18.5051C14.8116 20.0317 14.7898 21.5582 14.8218 23.0848C14.8349 23.7141 14.6033 24.0797 14.0367 24.3608C10.1795 26.2763 7.72792 29.3324 6.71555 33.5232C6.57571 34.1029 6.50871 34.7001 6.42277 35.293C6.33828 35.8756 6.07754 36.132 5.49342 36.1364C4.40531 36.1451 3.31865 36.1393 2.19557 36.1393C2.19557 38.7642 2.19557 41.3512 2.19557 43.9994C3.42061 43.9994 4.64128 44.0897 5.84302 43.9746C7.15692 43.8508 7.92603 44.2805 8.6223 45.4546C10.1241 47.9862 12.414 49.6686 15.1583 50.7233C15.9682 51.035 16.0323 51.1224 16.0337 51.9993C16.0352 52.8689 16.0337 53.7371 16.0337 54.681C16.3396 54.681 16.6047 54.681 16.8699 54.681C18.1794 54.681 19.4874 54.6722 20.7955 54.6868C21.116 54.6912 21.2383 54.5921 21.2718 54.2658C21.3403 53.6176 21.4554 52.9738 21.5573 52.3285C21.6345 51.8405 21.9346 51.6016 22.4211 51.5972C22.8567 51.5929 23.2937 51.5827 23.7292 51.6002C24.2463 51.6206 24.5828 51.9439 24.593 52.3955C24.6032 52.8543 24.2376 53.2112 23.7103 53.2462C23.5311 53.2578 23.3505 53.2476 23.1028 53.2476C23.0271 53.7181 22.9543 54.1711 22.8756 54.6562C25.2266 54.6562 27.5296 54.6562 29.885 54.6562C29.8136 54.1901 29.7466 53.7516 29.6694 53.2476C28.9804 53.2476 28.3133 53.2666 27.6476 53.2418C26.9761 53.2185 26.5507 52.6271 26.8508 52.0969C26.979 51.8711 27.3067 51.6395 27.5587 51.622C28.4823 51.5579 29.4116 51.5696 30.338 51.5769C30.81 51.5812 31.129 51.8187 31.2047 52.3125C31.3067 52.9752 31.4189 53.638 31.5004 54.3037C31.5325 54.5659 31.6111 54.6868 31.8995 54.6839C33.48 54.6722 35.0605 54.6781 36.7313 54.6781C36.7313 54.3547 36.7313 54.0546 36.7313 53.7545C36.7313 52.646 36.7458 51.5375 36.724 50.429C36.7138 49.9396 36.9017 49.622 37.3081 49.3526C40.3976 47.2929 42.4603 44.4655 43.1128 40.8078C43.9373 36.1815 43.4741 31.7533 40.3481 27.9354C39.9286 27.4227 39.9461 26.977 40.3496 26.6449C40.7662 26.3025 41.2134 26.3885 41.6533 26.9333C43.8849 29.7024 45.0108 32.8647 45.072 36.4248C45.1172 39.0249 44.9307 41.5697 43.8747 43.9965C42.7618 46.5572 41.0954 48.6679 38.8361 50.3008C38.4821 50.5557 38.3583 50.8179 38.3671 51.2389C38.3933 52.362 38.3758 53.4865 38.3758 54.6795C38.8419 54.6795 39.2716 54.6795 39.7014 54.6795C41.1012 54.6795 42.501 54.6868 43.9009 54.6751C44.3583 54.6708 44.7953 54.6868 45.0006 55.1791C45.2031 55.6628 44.9162 55.9992 44.6001 56.3139C30.0569 56.3168 15.5137 56.3168 0.97053 56.3168ZM26.1181 25.5597C26.5536 25.5597 26.995 25.5203 27.4247 25.5684C28.1108 25.6471 28.6716 25.3907 29.1829 24.9916C30.8056 23.7257 31.5354 22.0812 31.2062 20.0258C30.8682 17.921 29.2484 16.2444 27.215 15.8511C25.046 15.4301 22.931 16.3143 21.789 18.1176C20.6484 19.9181 20.7227 22.2501 22.0235 23.9355C22.8275 24.977 23.7933 25.7621 25.247 25.564C25.5325 25.5262 25.8268 25.5597 26.1181 25.5597Z" fill="#FF6916"/>
<path d="M16.0628 0.483398C19.0679 0.483398 21.719 2.42511 22.5799 5.25538C22.7576 5.84095 22.5639 6.30417 22.0788 6.44837C21.617 6.5853 21.2237 6.33621 21.0198 5.76812C20.2886 3.72298 18.8683 2.51397 16.7096 2.17311C14.0731 1.75651 11.2967 3.857 10.9966 6.51101C10.6907 9.20872 12.2085 11.5656 14.6921 12.2487C17.199 12.9392 19.687 11.7535 20.8188 9.33254C21.1087 8.71055 21.5282 8.49788 22.0103 8.72512C22.4677 8.94216 22.5915 9.40246 22.3337 9.99094C21.0038 13.0324 18.0395 14.358 15.4583 14.0579C12.2013 13.6792 9.79925 11.3573 9.36225 8.30851C8.76648 4.15561 11.9114 0.483398 16.0628 0.483398Z" fill="#FF6916"/>
<path d="M1.97563 17.5073C1.96252 15.5132 3.6435 13.8176 5.64347 13.806C7.642 13.7943 9.33171 15.468 9.34628 17.4724C9.35939 19.4665 7.68424 21.1591 5.67843 21.1737C3.68719 21.1897 1.98874 19.5087 1.97563 17.5073ZM7.6653 17.5117C7.6755 16.3857 6.81899 15.5015 5.69737 15.4811C4.5539 15.4607 3.65369 16.3464 3.65515 17.4913C3.6566 18.6158 4.52477 19.4854 5.65076 19.4898C6.7782 19.4956 7.65511 18.6348 7.6653 17.5117Z" fill="#FF6916"/>
<path d="M41.579 13.7913C41.5761 15.8204 39.9242 17.4751 37.9097 17.4708C35.9024 17.4664 34.2433 15.7956 34.2448 13.7811C34.2462 11.7694 35.9155 10.0972 37.9213 10.1016C39.9344 10.1059 41.5819 11.7665 41.579 13.7913ZM39.9213 13.7971C39.9242 12.6711 39.059 11.7927 37.9359 11.7825C36.7983 11.7723 35.8718 12.6842 35.8849 13.8029C35.898 14.9071 36.7997 15.7912 37.9155 15.7927C39.0357 15.7927 39.9169 14.9158 39.9213 13.7971Z" fill="#FF6916"/>
<path d="M19.7453 7.28165C19.7453 9.32242 18.1226 10.9451 16.0847 10.9466C14.0498 10.9466 12.4242 9.3195 12.4242 7.28165C12.4242 5.24089 14.0469 3.61964 16.0862 3.62109C18.1313 3.62255 19.7467 5.23943 19.7453 7.28165ZM16.1095 5.27148C14.9966 5.26274 14.0833 6.1411 14.0585 7.24524C14.0338 8.34646 14.9849 9.31368 16.0891 9.31076C17.183 9.30785 18.0963 8.39162 18.1007 7.29185C18.1065 6.17751 17.2209 5.28022 16.1095 5.27148Z" fill="#FF6916"/>
<path d="M11.2181 36.0911C11.2181 36.7626 11.2239 37.4356 11.2166 38.1071C11.2093 38.681 10.8699 39.0612 10.3878 39.0568C9.90708 39.0525 9.58516 38.6795 9.58225 38.0911C9.57642 36.7655 9.57642 35.4385 9.58225 34.113C9.58516 33.5085 9.88378 33.156 10.3761 33.1443C10.883 33.1327 11.2122 33.5114 11.2181 34.129C11.2224 34.783 11.2181 35.4371 11.2181 36.0911Z" fill="#FF6916"/>
<path d="M30.6512 11.1693C30.6643 11.6311 30.3045 12.0171 29.8559 12.0244C29.4145 12.0317 29.0183 11.6428 29.0154 11.1985C29.0125 10.7717 29.3664 10.4061 29.799 10.3871C30.2797 10.3667 30.6381 10.6959 30.6512 11.1693Z" fill="#FF6916"/>
<path d="M27.03 8.12795C27.0416 8.57951 26.6687 8.96843 26.2201 8.97572C25.7714 8.983 25.4 8.60718 25.4 8.14688C25.4 7.69387 25.7219 7.35738 26.1735 7.34136C26.6425 7.32533 27.0198 7.67056 27.03 8.12795Z" fill="#FF6916"/>
<path d="M26.0642 24.5077C23.9943 24.4538 22.411 22.7859 22.4649 20.716C22.5158 18.7801 24.2289 17.156 26.1837 17.1895C28.2099 17.2244 29.8501 18.9112 29.8049 20.917C29.7612 22.9563 28.0904 24.5601 26.0642 24.5077ZM28.1443 20.8617C28.1458 19.7372 27.2718 18.8675 26.1414 18.8661C25.0213 18.8646 24.1153 19.7532 24.1123 20.8544C24.1094 21.9498 25.0198 22.8486 26.1356 22.85C27.2631 22.8515 28.1429 21.9819 28.1443 20.8617Z" fill="#FF6916"/>
</g>
<defs>
<clipPath id="clip0_73_486">
<rect width="44.5764" height="55.8333" fill="white" transform="translate(0.500031 0.483398)"/>
</clipPath>
</defs>
</svg>
