<svg width="57" height="57" viewBox="0 0 57 57" fill="none" xmlns="http://www.w3.org/2000/svg">
<g clip-path="url(#clip0_73_475)">
<path d="M50.3187 49.4431L43.2555 37.2094C44.427 36.2229 45.2366 34.8199 45.4529 33.23C45.5998 32.149 46.1558 31.1858 47.0185 30.518C49.2549 28.7869 50.0688 25.7497 48.9977 23.1322C48.5844 22.1224 48.5844 21.0103 48.9977 20.0007C50.0688 17.3831 49.2549 14.346 47.0185 12.6148C46.1558 11.947 45.5997 10.9838 45.4529 9.90277C45.0717 7.10043 42.8483 4.87701 40.0459 4.49604C38.965 4.34902 38.0018 3.793 37.3341 2.93029C35.6028 0.693776 32.566 -0.119966 29.9482 0.951172C28.9384 1.36442 27.8263 1.36442 26.8167 0.951172C24.1993 -0.120075 21.162 0.693776 19.4308 2.93029C18.763 3.793 17.7998 4.34902 16.7188 4.49604C13.9163 4.87711 11.693 7.10043 11.3121 9.90288C11.165 10.9839 10.609 11.9471 9.7463 12.6149C7.50979 14.3461 6.69605 17.3833 7.76718 20.0008C8.18044 21.0104 8.18044 22.1226 7.76718 23.1323C6.69594 25.7497 7.50979 28.7869 9.7463 30.5181C10.609 31.1859 11.165 32.1491 11.3121 33.23C11.5311 34.8408 12.3595 36.2595 13.5559 37.2477L6.51478 49.4431C6.29425 49.8252 6.32544 50.3025 6.59407 50.6524C6.86259 51.0023 7.31532 51.1561 7.74166 51.042L13.8789 49.3975L15.5163 55.5083C15.6305 55.9344 15.9901 56.2497 16.4275 56.3073C16.4752 56.3137 16.5229 56.3167 16.5701 56.3167C16.956 56.3167 17.3179 56.1117 17.5143 55.7714L25.1121 42.6118C25.6882 42.5497 26.2618 42.4087 26.8166 42.1816C27.8263 41.7684 28.9385 41.7684 29.9481 42.1816C30.5264 42.4184 31.1254 42.5627 31.7263 42.6203L39.319 55.7714C39.5156 56.1118 39.8773 56.3167 40.2632 56.3167C40.3105 56.3167 40.3581 56.3137 40.406 56.3073C40.8433 56.2497 41.2029 55.9344 41.3171 55.5083L42.9546 49.3975L49.0919 51.042C49.5177 51.1561 49.9708 51.0025 50.2394 50.6524C50.5079 50.3025 50.5392 49.8252 50.3187 49.4431ZM16.9417 52.4005L15.7035 47.7795C15.6286 47.5 15.4459 47.2618 15.1953 47.1172C14.9448 46.9726 14.6473 46.9334 14.3678 47.0083L9.72034 48.2535L15.451 38.3277C15.8562 38.4726 16.2803 38.5772 16.7187 38.6369C17.7997 38.7839 18.7629 39.3399 19.4307 40.2026C20.2783 41.2976 21.4391 42.0507 22.7102 42.4093L16.9417 52.4005ZM25.9903 40.1629C24.277 40.8642 22.2889 40.3314 21.1556 38.8676C20.1354 37.5496 18.664 36.7 17.0125 36.4755C15.1781 36.2261 13.7226 34.7707 13.4733 32.9362C13.2487 31.2847 12.3992 29.8134 11.0813 28.7931C9.61727 27.6599 9.08459 25.6718 9.78578 23.9584C10.4172 22.4159 10.4172 20.717 9.78578 19.1745C9.08459 17.4612 9.61727 15.473 11.0813 14.3398C12.3992 13.3196 13.2487 11.8483 13.4733 10.1967C13.7227 8.36232 15.1781 6.90683 17.0125 6.6574C18.664 6.43294 20.1354 5.58343 21.1556 4.26547C21.9548 3.23294 23.1789 2.66373 24.4323 2.66373C24.9561 2.66373 25.4852 2.76331 25.9902 2.96999C27.5328 3.60126 29.2318 3.60126 30.7742 2.96999C32.4874 2.26869 34.4757 2.80148 35.6089 4.26547C36.6291 5.58343 38.1004 6.43294 39.7518 6.6574C41.5862 6.90683 43.0417 8.36221 43.2911 10.1967C43.5157 11.8483 44.3652 13.3196 45.6831 14.3398C47.1471 15.473 47.6798 17.4611 46.9786 19.1745C46.3473 20.717 46.3473 22.4159 46.9786 23.9584C47.6798 25.6718 47.147 27.6599 45.6831 28.7931C44.3652 29.8133 43.5157 31.2846 43.2911 32.9361C43.0417 34.7706 41.5862 36.2261 39.7519 36.4754C38.1003 36.6999 36.629 37.5494 35.6088 38.8675C34.4755 40.3316 32.4874 40.8641 30.7742 40.1628C29.2317 39.5317 27.5329 39.5317 25.9903 40.1629ZM42.4656 47.0083C41.8835 46.8522 41.2858 47.1977 41.1298 47.7795L39.8915 52.4005L34.1132 42.392C35.3612 42.0269 36.4994 41.2806 37.334 40.2026C38.0017 39.3398 38.9649 38.7838 40.0458 38.6369C40.5047 38.5745 40.9477 38.4618 41.3699 38.3062L47.1129 48.2535L42.4656 47.0083Z" fill="#FF6916"/>
<path d="M23.426 17.5321L20.0326 20.9253C19.8281 21.1298 19.7131 21.4073 19.7131 21.6965C19.7131 21.9858 19.8281 22.2632 20.0326 22.4677L26.3969 28.8322C26.6014 29.0367 26.8789 29.1516 27.1681 29.1516C27.4574 29.1516 27.7348 29.0367 27.9393 28.8322L36.801 19.9706C37.2269 19.5447 37.2269 18.8541 36.801 18.4282L33.4077 15.0348C33.2031 14.8303 32.9257 14.7153 32.6365 14.7153C32.3472 14.7153 32.0698 14.8303 31.8653 15.0348L27.1682 19.7319L24.9686 17.5322C24.7641 17.3277 24.4866 17.2127 24.1974 17.2127C23.9079 17.2126 23.6305 17.3276 23.426 17.5321ZM26.3968 22.0456C26.6013 22.2501 26.8788 22.365 27.168 22.365C27.4573 22.365 27.7347 22.2501 27.9392 22.0456L32.6363 17.3484L34.4872 19.1994L27.168 26.5186L22.3462 21.6967L24.1972 19.8458L26.3968 22.0456Z" fill="#FF6916"/>
<path d="M42.5953 21.9334C42.5953 19.0361 41.727 16.2497 40.0845 13.8754C38.4804 11.5569 36.2523 9.78407 33.6411 8.74859C33.0809 8.52664 32.4472 8.80051 32.2252 9.36045C32.0031 9.9204 32.2771 10.5543 32.8369 10.7764C37.4398 12.6016 40.4141 16.981 40.4141 21.9334C40.4141 28.5487 35.0321 33.9306 28.4168 33.9306C21.8015 33.9306 16.4195 28.5487 16.4195 21.9334C16.4195 16.9809 19.3937 12.6015 23.9967 10.7762C24.5566 10.5542 24.8306 9.92029 24.6085 9.36035C24.3865 8.8004 23.7525 8.52643 23.1926 8.74848C20.5813 9.78407 18.3531 11.5568 16.7491 13.8752C15.1065 16.2496 14.2382 19.036 14.2382 21.9333C14.2382 29.7513 20.5987 36.1119 28.4168 36.1119C36.2349 36.112 42.5953 29.7514 42.5953 21.9334Z" fill="#FF6916"/>
<path d="M28.4166 9.93572C28.7035 9.93572 28.9849 9.82011 29.1876 9.61615C29.3905 9.41329 29.5073 9.13299 29.5073 8.84506C29.5073 8.55821 29.3906 8.27682 29.1876 8.07396C28.9849 7.8711 28.7035 7.75439 28.4166 7.75439C28.1298 7.75439 27.8484 7.8711 27.6456 8.07396C27.4427 8.27682 27.326 8.55821 27.326 8.84506C27.326 9.13299 27.4427 9.41329 27.6456 9.61615C27.8484 9.82011 28.1298 9.93572 28.4166 9.93572Z" fill="#FF6916"/>
</g>
<defs>
<clipPath id="clip0_73_475">
<rect width="55.8333" height="55.8333" fill="white" transform="translate(0.500031 0.483398)"/>
</clipPath>
</defs>
</svg>
