<svg width="57" height="57" viewBox="0 0 57 57" fill="none" xmlns="http://www.w3.org/2000/svg">
<g clip-path="url(#clip0_73_515)">
<path d="M56.1669 33.5141C55.928 34.5039 55.6482 35.4787 54.974 36.276C54.671 36.6351 54.3448 36.9791 53.9995 37.2972C53.1479 38.0836 52.7084 39.042 52.778 40.1997C52.8777 41.879 52.5064 43.3985 51.3873 44.6996C50.6557 45.5502 49.7331 46.099 48.6877 46.4594C47.5098 46.8649 46.7537 47.6636 46.3211 48.8281C45.2729 51.6542 43.2953 52.9935 40.2763 52.8979C38.947 52.8556 37.892 53.3048 37.013 54.3014C35.2347 56.3179 32.606 56.879 30.1944 55.7172C28.9019 55.0946 27.6722 55.0455 26.392 55.6912C24.0172 56.8886 21.1907 56.2551 19.516 54.2987C18.6385 53.2734 17.5439 52.831 16.1968 52.8993C13.792 53.0208 11.9399 52.0542 10.7102 49.9667C10.4919 49.5954 10.3363 49.1817 10.1889 48.7749C9.7808 47.6458 9.02606 46.8649 7.89053 46.4772C6.33054 45.9447 5.11313 45.015 4.35565 43.5241C3.86705 42.5616 3.6828 41.5377 3.7524 40.4687C3.80972 39.5922 3.67461 38.758 3.15871 38.0372C2.88711 37.6576 2.54454 37.3232 2.2047 36.9996C0.891744 35.7449 0.253009 34.2104 0.39495 32.4069C0.448178 31.7352 0.622875 31.0334 0.916311 30.43C1.58507 29.0497 1.58644 27.7432 0.913581 26.3643C0.067394 24.6304 0.164296 22.8692 1.10739 21.2023C1.45678 20.5838 1.96722 20.0336 2.48449 19.5367C3.36479 18.6916 3.82883 17.7072 3.7524 16.4853C3.64868 14.8211 4.05539 13.322 5.16772 12.0482C5.83921 11.2796 6.6581 10.7226 7.62712 10.4099C8.9701 9.97579 9.80127 9.08702 10.2926 7.76545C11.2575 5.16874 13.2556 3.80213 16.0207 3.88677C17.492 3.93183 18.6753 3.50587 19.6239 2.37271C20.5383 1.27914 21.7898 0.775363 23.1424 0.480469C23.6514 0.480469 24.1592 0.480469 24.6682 0.480469C25.4939 0.786285 26.3047 1.14398 27.1508 1.3788C27.6763 1.52489 28.285 1.62182 28.7982 1.49758C29.8409 1.24637 30.844 0.828608 31.8622 0.480469C32.3713 0.480469 32.879 0.480469 33.3881 0.480469C34.8675 0.782189 36.145 1.42932 37.1399 2.6007C37.9152 3.51406 38.921 3.89906 40.1248 3.88814C40.8782 3.88131 41.6616 3.90589 42.3808 4.10112C44.3885 4.64449 45.6605 6.00974 46.3293 7.95659C46.7332 9.13207 47.518 9.91845 48.6945 10.3226C49.7399 10.6816 50.6612 11.2318 51.3914 12.0837C52.4941 13.3684 52.8804 14.8675 52.7794 16.5276C52.7071 17.7277 53.1533 18.7148 54.0418 19.5203C54.3762 19.8234 54.6833 20.1606 54.9767 20.5046C55.6537 21.3006 55.928 22.2781 56.1696 23.2652C56.1696 23.7744 56.1696 24.2823 56.1696 24.7915C55.8639 25.6175 55.5063 26.4284 55.2715 27.2735C55.1255 27.7978 55.0286 28.4081 55.1528 28.9214C55.4053 29.9644 55.8216 30.9665 56.1696 31.9864C56.1669 32.497 56.1669 33.0062 56.1669 33.5141ZM16.2309 6.07527C14.2833 5.95513 12.9772 6.76472 12.3235 8.59279C11.6342 10.5219 10.3486 11.7834 8.42281 12.466C6.67584 13.0845 5.8242 14.3965 5.94293 16.2382C6.07123 18.226 5.39291 19.8438 3.9271 21.1818C2.43672 22.5429 2.16239 23.9273 3.01677 25.7376C3.85476 27.5111 3.86022 29.2531 3.02632 31.028C2.17058 32.8492 2.43262 34.2445 3.91072 35.5893C5.39564 36.9395 6.07259 38.5724 5.94293 40.5793C5.82556 42.3855 6.69222 43.7153 8.40097 44.3119C10.354 44.9945 11.6424 46.2737 12.3357 48.222C12.9663 49.9954 14.2751 50.8337 16.1518 50.7149C18.0953 50.592 19.6907 51.2514 21.0037 52.685C22.4258 54.2373 23.7866 54.4939 25.6959 53.6024C27.4142 52.801 29.1175 52.8024 30.8358 53.6051C32.748 54.498 34.0896 54.24 35.5267 52.6781C36.8424 51.2487 38.4379 50.5893 40.3814 50.7135C42.2525 50.8323 43.5655 49.9859 44.1933 48.2151C44.8771 46.2874 46.1505 45.0095 48.079 44.3255C49.8696 43.6893 50.7021 42.3718 50.5834 40.4632C50.4647 38.5628 51.1075 36.9873 52.5037 35.6999C54.1114 34.2172 54.3667 32.9093 53.4522 30.9229C52.6784 29.2409 52.6702 27.5657 53.4454 25.881C54.3735 23.8659 54.1155 22.5743 52.4791 21.0603C51.0993 19.7838 50.4647 18.2192 50.582 16.3406C50.7021 14.4019 49.8805 13.0995 48.0462 12.4442C46.1382 11.7615 44.8825 10.4905 44.1988 8.58597C43.545 6.76336 42.2375 5.94967 40.2913 6.06844C38.4365 6.18176 36.8806 5.55921 35.6168 4.19532C34.0746 2.53108 32.7944 2.27031 30.754 3.21097C29.0875 3.97824 27.4293 3.97688 25.7642 3.21097C25.4039 3.04441 25.0354 2.87102 24.6519 2.78365C23.1246 2.43551 21.9359 3.0212 20.9368 4.15709C19.6907 5.57149 18.0966 6.16811 16.2309 6.07527Z" fill="#FF6916"/>
<path d="M38.9727 36.1877C39.4736 38.2547 38.6165 39.8589 36.7685 40.304C36.4737 40.375 36.1571 40.3777 35.8513 40.3777C32.9456 40.3831 30.0399 40.364 27.1342 40.3886C25.7722 40.3995 24.4647 40.1729 23.2008 39.6814C22.9197 39.5722 22.7491 39.6159 22.4789 39.777C22.0134 40.0528 21.4689 40.3299 20.9462 40.3531C19.3507 40.4268 17.7511 40.3941 16.1529 40.375C14.8523 40.3586 13.7809 39.3128 13.7768 38.0185C13.7604 33.6415 13.7618 29.2632 13.7754 24.8862C13.7795 23.5865 14.84 22.5325 16.1365 22.5147C17.7525 22.4929 19.3698 22.4792 20.9857 22.5298C21.4307 22.5434 21.9002 22.7414 22.2973 22.9625C22.5648 23.1113 22.7232 23.1086 22.9715 22.9762C24.0511 22.4014 25.1266 21.8171 25.7653 20.714C26.0533 20.2156 26.3003 19.6859 26.5051 19.1467C26.9882 17.877 27.4304 16.5923 27.8985 15.3171C28.2493 14.3601 28.7638 14.1375 29.7247 14.5062C32.4802 15.5629 33.9447 18.5255 33.1217 21.3802C33.018 21.7406 32.8979 22.0983 32.7696 22.5079C34.3159 22.5079 35.8036 22.5052 37.2912 22.5093C39.1051 22.5134 40.3102 23.5796 40.5245 25.3654C40.5327 25.4377 40.5668 25.521 40.5422 25.5797C40.2078 26.3989 40.6309 26.8412 41.2205 27.3819C42.5703 28.6201 42.3656 30.7923 40.8998 31.9145C40.7715 32.0128 40.635 32.1015 40.4781 32.2121C41.0172 33.9078 40.5149 35.2252 38.9727 36.1877ZM29.6346 16.9745C29.2361 18.0722 28.8457 19.1194 28.4759 20.1747C27.9245 21.7475 26.9991 23.0431 25.6138 23.9769C24.9997 24.3906 24.32 24.7073 23.6894 25.1005C23.5393 25.1947 23.3769 25.4159 23.3755 25.5784C23.3578 29.4106 23.3592 33.2442 23.3728 37.0765C23.3728 37.213 23.5038 37.4315 23.6198 37.4697C24.3214 37.7032 25.0338 38.054 25.749 38.0731C29.1774 38.1673 32.6099 38.1742 36.0397 38.1933C36.5965 38.196 36.9773 37.7878 36.9691 37.3182C36.9609 36.8458 36.5815 36.4854 36.0165 36.4621C35.4719 36.4389 34.9274 36.4581 34.3828 36.4553C33.553 36.4499 33.0494 36.0253 33.0644 35.3454C33.078 34.6832 33.5653 34.2832 34.3746 34.2805C35.4105 34.2764 36.445 34.2832 37.4809 34.2764C37.8849 34.2736 38.2834 34.1535 38.3913 33.7344C38.4581 33.4736 38.4267 33.0777 38.2657 32.8947C38.0801 32.6845 37.7075 32.5575 37.41 32.5466C36.3945 32.5056 35.3764 32.5343 34.3596 32.5302C33.5571 32.5261 33.0685 32.1152 33.0644 31.4517C33.0603 30.7854 33.5503 30.3581 34.3432 30.3554C35.7967 30.3499 37.2489 30.3581 38.7024 30.3499C38.9345 30.3485 39.2279 30.3622 39.3821 30.2339C39.6114 30.0441 39.8762 29.7355 39.8762 29.4775C39.8748 29.2195 39.6087 28.9123 39.378 28.7239C39.2224 28.5969 38.9304 28.6106 38.6983 28.6092C37.2994 28.5997 35.9018 28.6051 34.5029 28.6038C33.5666 28.6038 33.0562 28.2106 33.0657 27.5034C33.0753 26.7975 33.5762 26.4289 34.5288 26.4275C35.4555 26.4262 36.3822 26.4398 37.3076 26.4234C38.0473 26.4098 38.465 25.9347 38.2875 25.3176C38.1347 24.7865 37.6979 24.6787 37.2121 24.6787C35.2686 24.6787 33.3251 24.6814 31.3816 24.6773C30.4003 24.6746 29.9321 24.0261 30.2337 23.0868C30.4603 22.3796 30.7196 21.6833 30.9421 20.9747C31.4402 19.3801 30.9694 17.8906 29.6346 16.9745ZM21.1809 31.4571C21.1809 29.4065 21.17 27.3559 21.1891 25.3053C21.1932 24.8288 21.0335 24.6664 20.5599 24.6759C19.236 24.6991 17.9108 24.6964 16.5856 24.6773C16.127 24.6705 15.9346 24.8165 15.9359 25.3012C15.9482 29.4024 15.9468 33.5036 15.9373 37.6062C15.9359 38.054 16.1011 38.2179 16.546 38.2124C17.8699 38.1947 19.1951 38.1906 20.519 38.2138C21.0117 38.222 21.1932 38.0609 21.1877 37.5557C21.1686 35.5229 21.1809 33.49 21.1809 31.4571Z" fill="#FF6916"/>
<path d="M6.21155 28.3794C6.43401 21.1723 9.24827 15.3072 14.9177 10.8878C18.2465 8.29249 22.0516 6.85488 26.2594 6.47398C30.5463 6.08624 34.5889 6.90813 38.4199 8.84542C38.9085 9.09253 39.277 9.41336 39.2552 10.0004C39.2279 10.7199 38.5072 11.2128 37.8207 10.9506C37.0947 10.6735 36.4095 10.2885 35.6821 10.0168C29.0026 7.51976 22.6549 8.22013 16.7903 12.2585C12.5129 15.2048 9.91294 19.3592 8.86066 24.4503C8.03767 28.4327 8.42938 32.3127 9.98937 36.0713C10.0794 36.2884 10.1845 36.5013 10.2541 36.7252C10.4507 37.356 10.1832 37.9662 9.63861 38.1669C9.05583 38.3799 8.46213 38.1465 8.22056 37.5062C7.75243 36.272 7.29521 35.0296 6.92535 33.764C6.6674 32.882 6.51727 31.9605 6.39853 31.0458C6.28252 30.1502 6.26751 29.2396 6.21155 28.3794Z" fill="#FF6916"/>
<path d="M28.3612 50.4941C25.319 50.4395 22.412 49.8387 19.6209 48.6592C19.1405 48.4557 18.7747 48.1649 18.7556 47.5915C18.727 46.7546 19.4776 46.2959 20.3647 46.5867C21.619 46.999 22.8555 47.496 24.1385 47.7758C28.7952 48.7889 33.28 48.2045 37.4768 45.945C42.8583 43.0466 46.2622 38.5727 47.5915 32.6011C48.5905 28.1149 48.0528 23.7734 46.0397 19.6271C45.921 19.3827 45.7913 19.1424 45.6862 18.8926C45.4078 18.2318 45.603 17.6365 46.1762 17.3703C46.7276 17.1137 47.3431 17.3103 47.6365 17.9246C48.1374 18.969 48.652 20.0148 49.0368 21.1043C50.0018 23.8348 50.4262 26.6677 50.2543 29.5579C49.9554 34.5698 48.2002 39.0232 44.8905 42.82C41.5317 46.6741 37.3185 49.0851 32.3014 50.0408C31.0062 50.2865 29.6755 50.348 28.3612 50.4941Z" fill="#FF6916"/>
<path d="M13.4492 42.1197C14.0661 42.1142 14.6134 42.6453 14.6093 43.246C14.6052 43.8112 14.1003 44.3082 13.5243 44.3136C12.9129 44.3205 12.3601 43.7812 12.3656 43.1846C12.371 42.6112 12.8665 42.1251 13.4492 42.1197Z" fill="#FF6916"/>
<path d="M41.989 13.5641C41.9999 12.9812 42.4926 12.4924 43.0658 12.4951C43.6458 12.4979 44.1713 13.033 44.1727 13.6187C44.174 14.2181 43.6486 14.73 43.0562 14.7096C42.4571 14.6877 41.978 14.1744 41.989 13.5641Z" fill="#FF6916"/>
</g>
<defs>
<clipPath id="clip0_73_515">
<rect width="55.8333" height="55.8333" fill="white" transform="translate(0.333374 0.483398)"/>
</clipPath>
</defs>
</svg>
