<svg width="57" height="57" viewBox="0 0 57 57" fill="none" xmlns="http://www.w3.org/2000/svg">
<path d="M28.0429 4.03394C34.1962 7.63929 40.6822 10.4658 47.5577 12.3845C48.4577 12.6347 48.6589 12.9132 48.6563 13.8519C48.646 17.808 48.7156 21.7667 48.5918 25.7176C48.4422 30.4861 47.1657 34.9812 44.824 39.1513C41.9279 44.3118 37.8377 48.2936 32.7082 51.2104C31.3259 51.997 29.8894 52.6881 28.2982 52.9744C27.3053 53.1523 26.4053 52.8326 25.5155 52.4896C22.5987 51.3626 20.0327 49.6476 17.6704 47.6308C14.0522 44.5413 11.2411 40.8379 9.35075 36.4537C8.2676 33.9419 7.48618 31.3371 7.19218 28.6164C6.99618 26.7801 6.89818 24.9311 6.86724 23.0845C6.81566 20.0233 6.85176 16.9596 6.85176 13.8984C6.85176 12.8977 7.03745 12.6424 8.00197 12.3742C14.5834 10.5432 20.8219 7.89718 26.7225 4.45946C26.97 4.31504 27.2176 4.17836 27.4678 4.03651C27.6586 4.03394 27.8495 4.03394 28.0429 4.03394ZM8.92007 20.3947C8.89944 20.3947 8.87623 20.3973 8.8556 20.3973C8.93039 22.5481 8.94586 24.7015 9.09028 26.8472C9.33012 30.3958 10.3024 33.7613 11.8755 36.9515C13.6344 40.5233 16.0844 43.5561 19.1043 46.1273C21.2242 47.93 23.5401 49.4413 26.1241 50.5218C27.1402 50.9474 28.1331 51.1021 29.1647 50.6069C29.6083 50.3929 30.0751 50.2278 30.5161 50.0086C34.5005 48.0435 37.8377 45.2737 40.5791 41.7921C44.2025 37.1862 46.196 31.9225 46.4874 26.089C46.6783 22.2696 46.5648 18.4373 46.5983 14.6102C46.6009 14.3548 46.5055 14.2439 46.2708 14.1769C45.4765 13.9474 44.6847 13.7127 43.8982 13.4574C38.4179 11.6727 33.1724 9.35686 28.1692 6.49682C27.8959 6.3395 27.6844 6.29824 27.3852 6.47103C21.6832 9.76175 15.6666 12.3252 9.33786 14.1511C8.98712 14.2517 8.90975 14.4167 8.91233 14.7494C8.92781 16.6295 8.92007 18.5121 8.92007 20.3947Z" fill="#FF8440"/>
<path d="M24.5486 30.1843C24.6569 30.027 24.7446 29.8465 24.8787 29.7124C28.1101 26.4706 31.3518 23.2392 34.5832 19.9949C35.6199 18.9556 36.8243 18.5636 38.2401 19.0227C40.3961 19.7216 41.2059 22.4449 39.7978 24.2218C39.6405 24.4204 39.4703 24.6138 39.2898 24.7918C35.2202 28.8665 31.1481 32.9386 27.0759 37.0107C25.4151 38.6716 23.4809 38.6742 21.8252 37.0185C19.9168 35.1127 18.0058 33.212 16.1077 31.2984C14.7434 29.9213 14.6326 28.0438 15.8085 26.6434C16.982 25.2431 19.1044 25.0084 20.4661 26.2256C21.6885 27.3191 22.8155 28.5209 23.9786 29.6814C24.123 29.8258 24.2159 30.0218 24.3345 30.1946C24.4041 30.192 24.4763 30.1895 24.5486 30.1843ZM38.4155 22.4449C38.4284 21.5836 38.0519 21.1039 37.4484 20.9491C36.8346 20.7918 36.4168 21.1013 36.0171 21.501C32.4994 25.0239 28.9792 28.5415 25.4589 32.0592C24.6852 32.8329 24.2056 32.8355 23.4396 32.0695C22.1192 30.7517 20.7988 29.4313 19.4784 28.1134C18.7898 27.4248 18.0187 27.3423 17.4616 27.8891C17.0413 28.3017 16.8298 29.1966 17.6473 29.9109C18.0419 30.2565 18.3952 30.6511 18.7692 31.0225C20.3268 32.5801 21.8794 34.1404 23.4422 35.6903C24.0947 36.3376 24.7961 36.3299 25.4538 35.6903C25.6369 35.5124 25.8148 35.3293 25.9953 35.1488C29.9437 31.2004 33.8946 27.2572 37.8327 23.2985C38.1163 23.0123 38.2994 22.6203 38.4155 22.4449Z" fill="#FF8440"/>
<path d="M10.9214 18.4993C10.9214 17.9088 10.9162 17.3208 10.9214 16.7302C10.9291 16.0597 11.1587 15.7373 11.7853 15.5155C13.5674 14.8811 15.3469 14.2493 17.1315 13.62C17.8149 13.3802 18.3952 13.5942 18.6144 14.159C18.8439 14.7444 18.5551 15.3092 17.8433 15.5722C16.412 16.1009 14.9832 16.6348 13.5339 17.1093C13.0929 17.2537 12.982 17.4549 13 17.8804C13.0336 18.7082 13.0155 19.5387 13.0078 20.3665C13 21.086 12.5874 21.5451 11.9659 21.5425C11.3676 21.5399 10.9472 21.1015 10.9266 20.4078C10.9059 19.7759 10.9214 19.1389 10.9214 18.4993Z" fill="#FF8440"/>
<path d="M39.4755 37.1216C40.2672 37.1216 40.7417 37.9288 40.3523 38.656C40.1511 39.0326 39.8855 39.3781 39.6353 39.7263C38.057 41.9132 36.1667 43.7984 34.0494 45.4593C33.3789 45.9854 32.6026 45.7894 32.3447 45.0415C32.2132 44.6572 32.2957 44.3091 32.5768 44.0305C32.8476 43.7623 33.1442 43.5199 33.4407 43.2775C35.3749 41.6889 37.0513 39.8681 38.4516 37.7895C38.7972 37.2789 39.0551 37.1216 39.4755 37.1216Z" fill="#FF8440"/>
<path d="M30.8796 45.3897C31.4366 45.4181 31.8879 45.9235 31.8467 46.4728C31.8054 47.0247 31.2715 47.5018 30.7171 47.4812C30.1446 47.4606 29.719 46.9938 29.7422 46.4135C29.768 45.8126 30.2683 45.3613 30.8796 45.3897Z" fill="#FF8440"/>
<path d="M21.6215 13.3053C21.6319 13.865 21.1264 14.3627 20.5461 14.3601C20.0278 14.3575 19.5532 13.8779 19.5378 13.3389C19.5223 12.8102 20.0174 12.3021 20.5668 12.2815C21.1058 12.2634 21.6112 12.7534 21.6215 13.3053Z" fill="#FF8440"/>
</svg>
