<svg width="56" height="61" viewBox="0 0 56 61" fill="none" xmlns="http://www.w3.org/2000/svg">
<g filter="url(#filter0_d_73_527)">
<path d="M28.5825 2.35213C29.1936 2.65527 29.5759 3.16716 29.9092 3.74951C30.4092 4.62569 30.9383 5.48459 31.4872 6.33019C31.6063 6.51234 31.8391 6.67854 32.0494 6.73305C33.1618 7.02555 34.2848 7.28349 35.4039 7.5494C36.9674 7.92168 37.4409 9.34432 36.4052 10.5702C35.6579 11.4543 34.8946 12.3252 34.1645 13.2227C34.0243 13.3942 33.9251 13.6641 33.937 13.8821C33.9925 14.9405 34.097 15.9961 34.1724 17.0531C34.1975 17.3988 34.2438 17.7578 34.179 18.0902C33.9687 19.1764 32.8721 19.7375 31.81 19.3107C30.679 18.8574 29.5653 18.3641 28.4317 17.9173C28.2306 17.8376 27.9462 17.8389 27.7438 17.9173C26.6407 18.3495 25.5547 18.8254 24.4568 19.2722C23.0838 19.8319 21.8801 18.9837 21.9661 17.4959C22.0349 16.3059 22.1724 15.1199 22.2359 13.9287C22.2491 13.6827 22.1341 13.3782 21.9767 13.1828C21.2386 12.2694 20.4608 11.3892 19.7055 10.4904C18.7716 9.37888 19.2214 7.96423 20.6314 7.60258C21.7941 7.30476 22.9674 7.04284 24.1275 6.73438C24.3391 6.67854 24.5706 6.51101 24.6896 6.3262C25.2372 5.4806 25.7663 4.62037 26.2663 3.74552C26.5983 3.1645 26.9793 2.65129 27.5917 2.34814C27.9224 2.35213 28.2531 2.35213 28.5825 2.35213ZM28.0891 3.76413C27.9396 3.96622 27.8259 4.09918 27.7346 4.24676C27.138 5.22 26.5322 6.1866 25.9581 7.17314C25.6274 7.74219 25.1658 8.07458 24.5309 8.21817C23.4079 8.47079 22.2902 8.74867 21.1711 9.01724C20.6486 9.14222 20.6156 9.24194 20.9687 9.65942C21.7491 10.5808 22.5296 11.5022 23.3166 12.4183C23.6473 12.8025 23.8021 13.2413 23.765 13.7438C23.6737 14.983 23.5785 16.2222 23.478 17.46C23.437 17.9639 23.5177 18.0317 23.9925 17.8362C25.0428 17.4028 26.0997 16.984 27.1367 16.5186C27.7862 16.2275 28.392 16.2288 29.0388 16.5147C30.0931 16.9813 31.1605 17.4161 32.2253 17.8562C32.6367 18.0264 32.7372 17.9453 32.7042 17.5118C32.6102 16.3059 32.5296 15.0987 32.4211 13.8954C32.3682 13.3157 32.5071 12.8238 32.8893 12.3824C33.6684 11.4823 34.437 10.5715 35.2068 9.66208C35.56 9.2446 35.5269 9.14222 35.0084 9.01724C33.8721 8.74468 32.7372 8.47079 31.5997 8.20621C31.0057 8.06793 30.5626 7.75549 30.2478 7.21701C29.6645 6.21718 29.0507 5.23596 28.4449 4.24942C28.3523 4.10051 28.2386 3.96755 28.0891 3.76413Z" fill="#FF8440" stroke="#FF8440" stroke-width="0.833333"/>
<path d="M43.6348 38.4341C44.976 39.8567 44.9972 41.6796 43.644 43.1447C45.3847 44.9383 44.8001 47.6427 42.3861 48.5361C42.7908 49.3033 42.9707 50.105 42.7459 50.9692C42.3887 52.344 41.1982 53.296 39.7869 53.3053C38.7472 53.3119 37.7075 53.3106 36.6678 53.3053C36.1321 53.3026 35.8107 53.0154 35.812 52.5594C35.8133 52.1033 36.1321 51.8215 36.6718 51.8188C37.6943 51.8135 38.7181 51.8334 39.7406 51.8108C40.6017 51.7922 41.2525 51.1753 41.3451 50.3443C41.4244 49.6317 40.9271 48.8978 40.1969 48.6837C40.0117 48.6292 39.808 48.6212 39.6123 48.6199C38.7538 48.6132 37.8967 48.6212 37.0382 48.6146C36.4734 48.6106 36.1229 48.3167 36.1189 47.8607C36.1149 47.414 36.4615 47.1055 37.0303 47.1015C38.4654 47.0909 39.9006 47.0922 41.3371 47.0989C41.9125 47.1015 42.4112 46.942 42.7842 46.4833C43.1731 46.006 43.2631 45.4675 43.0263 44.9011C42.7935 44.3427 42.3742 43.9651 41.7564 43.9385C40.8676 43.9013 39.9747 43.9172 39.0845 43.9119C38.6718 43.9092 38.2591 43.9239 37.8477 43.9053C37.3477 43.8827 37.0223 43.5795 37.0144 43.1634C37.0051 42.7299 37.3517 42.3922 37.8649 42.3869C39.0527 42.3736 40.2406 42.3856 41.4284 42.3802C42.443 42.3763 43.1414 41.7261 43.144 40.7981C43.1453 39.8714 42.4482 39.1986 41.4363 39.1866C40.2644 39.172 39.0938 39.1853 37.9218 39.1813C37.3543 39.18 37.0065 38.8888 37.0117 38.4328C37.017 37.9781 37.3662 37.6922 37.9363 37.6909C39.0911 37.6869 40.2459 37.6922 41.4019 37.6895C42.4363 37.6869 43.1533 37.0194 43.144 36.0728C43.1361 35.1687 42.4006 34.4973 41.4006 34.4959C38.4139 34.4919 35.4271 34.4959 32.4416 34.4946C30.9535 34.4933 30.1136 33.6556 30.107 32.1546C30.1004 30.7612 30.0673 29.3665 30.1149 27.9757C30.1771 26.1423 28.82 24.3234 26.1784 24.6013C25.7141 24.6505 25.652 24.9749 25.652 25.3525C25.6546 26.9613 25.6625 28.5701 25.6467 30.1788C25.6427 30.6229 25.6149 31.0789 25.5091 31.5071C25.0832 33.2448 23.5422 34.46 21.7644 34.4906C20.9919 34.5039 20.2194 34.4933 19.4165 34.4933C19.4165 39.2411 19.4165 43.9438 19.4165 48.7302C19.8147 48.7302 20.2181 48.7289 20.6229 48.7302C21.9324 48.7356 22.5845 49.1916 23.0475 50.4215C23.4006 51.3615 24.0581 51.8175 25.0991 51.8188C27.7062 51.8241 30.3133 51.8241 32.9205 51.8162C33.2789 51.8148 33.5752 51.8919 33.7512 52.2283C34.0197 52.7429 33.652 53.3026 33.0237 53.3053C31.3239 53.3146 29.6242 53.3079 27.9258 53.3093C26.9192 53.3093 25.9125 53.3133 24.9059 53.3079C23.4073 53.3013 22.1745 52.4198 21.6599 50.9958C21.4178 50.3244 21.2776 50.2247 20.5805 50.222C20.2022 50.2207 19.8253 50.222 19.4099 50.222C19.3504 50.8416 19.152 51.4266 18.6123 51.6912C18.1308 51.9265 17.5554 52.0675 17.0197 52.0741C14.2155 52.11 11.4099 52.0635 8.60569 52.1033C7.34643 52.122 6.34379 51.3641 6.37421 49.8737C6.43241 47.0058 6.38347 44.1353 6.40331 41.2661C6.40463 40.9962 6.51178 40.6611 6.69299 40.4803C6.83453 40.3394 7.22341 40.2862 7.39802 40.3832C7.61627 40.5056 7.82394 40.8074 7.86098 41.0573C7.93241 41.5439 7.88347 42.0492 7.88347 42.5464C7.88347 44.9849 7.88347 47.422 7.88347 49.8604C7.88347 50.4999 7.93109 50.5531 8.54749 50.5531C11.4509 50.5544 14.3557 50.5478 17.2591 50.5597C17.7208 50.5611 17.902 50.4095 17.9007 49.9269C17.8887 44.3706 17.8887 38.8157 17.9007 33.2594C17.902 32.7728 17.7049 32.6212 17.2512 32.6226C14.3477 32.6319 11.443 32.6252 8.53955 32.6279C7.96945 32.6279 7.88347 32.7196 7.88347 33.2927C7.88214 34.6528 7.88479 36.013 7.88214 37.3731C7.88082 37.9594 7.61495 38.2905 7.15199 38.3025C6.66389 38.3144 6.39405 37.99 6.39273 37.3638C6.38876 35.9545 6.38479 34.5438 6.39405 33.1344C6.40066 31.8847 7.16125 31.1255 8.40331 31.1228C11.357 31.1188 14.3107 31.1202 17.2631 31.1215C18.5197 31.1215 19.1837 31.6786 19.4311 33.0228C20.394 32.9789 21.3887 33.0214 22.3504 32.8659C23.3874 32.6984 24.1255 31.664 24.1348 30.583C24.1493 28.941 24.1969 27.2963 24.1242 25.6583C24.0528 24.0469 24.9377 22.9819 26.7578 23.051C28.9615 23.1335 30.7617 24.3367 31.3782 26.355C31.5395 26.8842 31.6057 27.4585 31.6189 28.0156C31.652 29.3917 31.6281 30.7678 31.6308 32.1453C31.6321 32.8247 31.7922 32.9855 32.4826 32.9855C35.4363 32.9882 38.39 32.9802 41.3424 32.9895C42.9681 32.9935 44.2088 33.9269 44.5699 35.3894C44.8265 36.4225 44.5541 37.308 43.6348 38.4341Z" fill="#FF8440" stroke="#FF8440" stroke-width="0.833333"/>
<path d="M46.9124 21.5179C46.6028 21.4155 46.2893 21.3265 45.9864 21.2095C45.2827 20.9369 44.5843 20.433 43.8819 20.4303C43.1981 20.4277 42.5142 20.9342 41.8277 21.2135C41.6147 21.2999 41.4018 21.4062 41.1796 21.4461C40.1968 21.6256 39.415 20.8531 39.5089 19.8254C39.5764 19.0835 39.6439 18.3403 39.6756 17.597C39.6835 17.4082 39.6002 17.1769 39.4812 17.0267C39.0195 16.443 38.5208 15.8899 38.0486 15.3142C37.2867 14.3861 37.6716 13.2201 38.8357 12.9289C39.5539 12.7494 40.2801 12.6005 40.9931 12.4038C41.1756 12.3532 41.3753 12.2096 41.4798 12.0514C41.8806 11.4451 42.2431 10.8136 42.6266 10.1953C43.3198 9.07718 44.5023 9.08117 45.202 10.2047C45.5698 10.7937 45.9057 11.4026 46.2973 11.9756C46.4296 12.1684 46.6663 12.3426 46.8899 12.4077C47.5671 12.6085 48.2629 12.7468 48.9481 12.9196C50.1729 13.2281 50.5473 14.3915 49.7351 15.362C49.2893 15.8952 48.8436 16.427 48.3793 16.9442C48.165 17.1822 48.0896 17.4136 48.128 17.7459C48.2166 18.5184 48.2708 19.2975 48.2907 20.074C48.3118 20.8718 47.706 21.4608 46.9124 21.5179ZM39.2391 14.3915C39.7933 15.0429 40.2788 15.6266 40.7774 16.1983C41.1491 16.6251 41.2735 17.1011 41.2047 17.6675C41.1174 18.3855 41.0883 19.1088 41.0288 19.9052C41.7682 19.602 42.4454 19.3521 43.0976 19.0476C43.6663 18.7817 44.1968 18.8016 44.7576 19.0569C45.411 19.3534 46.0843 19.61 46.7999 19.9052C46.7338 19.0994 46.6848 18.3589 46.6081 17.621C46.546 17.0187 46.7272 16.5294 47.1359 16.0853C47.62 15.5588 48.0645 14.9964 48.5737 14.3928C47.8356 14.212 47.1901 14.0192 46.5301 13.9008C45.8251 13.7732 45.3396 13.4169 45.001 12.784C44.6782 12.1804 44.2907 11.6113 43.9057 10.9864C43.4931 11.6592 43.0975 12.2509 42.7589 12.8744C42.4401 13.4621 41.9666 13.7679 41.3304 13.8969C40.6584 14.0325 39.9931 14.2106 39.2391 14.3915Z" fill="#FF8440" stroke="#FF8440" stroke-width="0.833333"/>
<path d="M7.87566 19.7498C7.9365 19.0012 8.00925 18.3258 8.03439 17.6477C8.04232 17.4417 7.96957 17.1904 7.84523 17.0308C7.39682 16.4591 6.90608 15.9193 6.43915 15.3622C5.60979 14.3743 6.01058 13.203 7.27116 12.9105C7.96031 12.7509 8.65211 12.598 9.33068 12.4039C9.52777 12.3481 9.74073 12.1925 9.85449 12.0223C10.2473 11.432 10.5966 10.8098 10.9709 10.2062C11.668 9.08268 12.8532 9.07603 13.5463 10.1929C13.9299 10.8111 14.291 11.4427 14.6931 12.0489C14.7976 12.2072 14.9973 12.3494 15.1799 12.3999C15.877 12.5941 16.586 12.7416 17.2883 12.9158C18.5185 13.2203 18.9008 14.3717 18.0952 15.3502C17.7275 15.797 17.3717 16.2583 16.9643 16.6665C16.5701 17.0627 16.4167 17.4895 16.4973 18.0426C16.5807 18.6157 16.5979 19.1967 16.6587 19.7737C16.7883 20.9876 15.7963 21.78 14.6653 21.3426C13.9749 21.0754 13.3042 20.7549 12.6111 20.4983C12.4061 20.4225 12.1283 20.4239 11.9233 20.497C11.3201 20.7124 10.7196 20.9517 10.1468 21.2389C8.76719 21.9303 7.63227 20.9291 7.87566 19.7498ZM9.37433 19.9107C10.0423 19.6354 10.6534 19.4293 11.2209 19.1395C11.9458 18.7686 12.6217 18.7885 13.3413 19.1475C13.9021 19.428 14.4987 19.6328 15.1442 19.8974C15.0886 19.1262 15.082 18.4441 14.9788 17.7767C14.873 17.092 15.0608 16.5508 15.5145 16.0536C15.9881 15.5337 16.4312 14.9846 16.9338 14.393C16.1918 14.2121 15.5278 14.0273 14.8532 13.8944C14.1958 13.7641 13.7156 13.4476 13.3915 12.8414C13.0608 12.2231 12.6667 11.6408 12.2619 10.9813C11.8664 11.6301 11.4841 12.2072 11.1534 12.8134C10.8201 13.4264 10.3413 13.7734 9.6574 13.901C8.98544 14.026 8.32671 14.2188 7.59656 14.3969C8.1283 15.0232 8.59788 15.5962 9.08994 16.1493C9.43915 16.5415 9.61507 16.9763 9.56613 17.5068C9.49735 18.2793 9.44312 19.0531 9.37433 19.9107Z" fill="#FF8440" stroke="#FF8440" stroke-width="0.833333"/>
<path d="M12.8758 48.2475C11.34 48.2422 10.1086 46.999 10.1191 45.4647C10.1297 43.9384 11.3916 42.6766 12.8982 42.6846C14.4128 42.6939 15.6601 43.9623 15.6535 45.486C15.6469 47.0283 14.4141 48.2528 12.8758 48.2475ZM11.6377 45.4488C11.6271 46.1534 12.1602 46.7225 12.8467 46.7438C13.557 46.765 14.1363 46.1986 14.139 45.4807C14.1416 44.768 13.6112 44.2282 12.9035 44.2216C12.1932 44.2163 11.6469 44.7454 11.6377 45.4488Z" fill="#FF8440" stroke="#FF8440" stroke-width="0.833333"/>
</g>
<defs>
<filter id="filter0_d_73_527" x="2.25407" y="1.93042" width="51.6628" height="58.4635" filterUnits="userSpaceOnUse" color-interpolation-filters="sRGB">
<feFlood flood-opacity="0" result="BackgroundImageFix"/>
<feColorMatrix in="SourceAlpha" type="matrix" values="0 0 0 0 0 0 0 0 0 0 0 0 0 0 0 0 0 0 127 0" result="hardAlpha"/>
<feOffset dy="3.33333"/>
<feGaussianBlur stdDeviation="1.66667"/>
<feComposite in2="hardAlpha" operator="out"/>
<feColorMatrix type="matrix" values="0 0 0 0 0 0 0 0 0 0 0 0 0 0 0 0 0 0 0.25 0"/>
<feBlend mode="normal" in2="BackgroundImageFix" result="effect1_dropShadow_73_527"/>
<feBlend mode="normal" in="SourceGraphic" in2="effect1_dropShadow_73_527" result="shape"/>
</filter>
</defs>
</svg>
