<svg width="61" height="57" viewBox="0 0 61 57" fill="none" xmlns="http://www.w3.org/2000/svg">
<g clip-path="url(#clip0_73_539)">
<path d="M0.166992 36.3659C0.492372 35.942 0.917747 35.7959 1.45105 35.8039C2.95574 35.8261 4.46042 35.8118 5.9651 35.8118C6.17938 35.8118 6.39365 35.8118 6.64761 35.8118C6.64761 32.9352 6.64761 30.1158 6.64761 27.2201C5.58735 27.2201 4.54454 27.2201 3.50174 27.2201C2.97161 27.2201 2.63194 26.9661 2.55417 26.4359C2.47163 25.8675 2.88431 25.4484 3.52714 25.4421C4.55565 25.4326 5.58417 25.4389 6.44762 25.4389C6.87458 24.8452 7.17139 24.2895 7.59994 23.8688C8.11261 23.3656 8.83321 23.4243 9.51254 23.4243C16.6011 23.4291 23.6896 23.4275 30.7781 23.4275C31.013 23.4275 31.2495 23.4275 31.4257 23.4275C31.2574 22.1464 30.9765 20.9033 30.9479 19.654C30.8067 13.4721 33.5113 8.8667 38.8269 5.77261C39.1666 5.57417 39.3015 5.38208 39.2872 4.99314C39.257 4.20255 39.2681 3.40878 39.2808 2.61661C39.3031 1.33706 40.1395 0.49567 41.4156 0.492495C44.4456 0.48297 47.4741 0.48297 50.5041 0.492495C51.7373 0.49567 52.5516 1.27673 52.604 2.51501C52.6389 3.34528 52.6309 4.17874 52.6087 5.0106C52.5992 5.37256 52.7166 5.571 53.0468 5.74404C54.5324 6.52034 55.8403 7.53794 56.9815 8.76828C57.5069 9.33503 57.5799 9.87637 57.172 10.2717C56.7418 10.6892 56.2387 10.5955 55.6847 10.0272C52.0532 6.29808 47.6598 4.92329 42.6362 6.21553C37.7063 7.48397 34.543 10.7543 33.1462 15.6566C32.4526 18.0934 32.5621 20.5461 33.3081 22.9687C33.3542 23.1164 33.4176 23.2576 33.4827 23.4291C34.1874 23.4291 34.8795 23.4291 35.5715 23.4291C38.819 23.4291 42.0664 23.4386 45.3139 23.4243C46.4567 23.4196 47.3772 23.8292 48.1407 24.6785C49.6216 26.3279 51.1263 27.9583 52.623 29.5951C52.7817 29.7681 52.9436 29.9364 53.1309 30.1364C54.6308 29.1791 55.8752 27.9996 56.8307 26.5486C59.5877 22.3591 59.9702 17.9537 57.9354 13.3531C57.8323 13.1213 57.7069 12.872 57.7021 12.6291C57.6942 12.1926 57.9354 11.8735 58.3783 11.7735C58.8687 11.6639 59.2227 11.8671 59.4433 12.3164C60.1639 13.7817 60.6877 15.3168 60.8623 16.9409C61.5003 22.8862 59.4338 27.6789 54.6546 31.2874C54.5927 31.335 54.5356 31.3906 54.4785 31.4445C54.4658 31.4556 54.4658 31.4795 54.4356 31.5652C55.0181 32.2081 55.6244 32.8797 56.2323 33.548C57.5132 34.953 58.7941 36.3579 60.0798 37.7565C60.6972 38.4281 61.0083 39.2012 61.0019 40.1235C60.9861 42.5588 61.0003 44.9957 60.9956 47.4309C60.9924 48.9486 59.9448 50.0059 58.4306 50.0234C57.8783 50.0297 57.3259 50.025 56.718 50.025C56.4228 52.2618 55.4022 54.043 53.5007 55.2574C52.2452 56.0591 50.858 56.4132 49.3755 56.3004C46.7217 56.0972 43.6266 54.2859 42.9965 50.0551C37.7 50.0551 32.4002 50.0551 27.1116 50.0551C26.9148 50.7378 26.7545 51.4252 26.518 52.0856C26.2561 52.8174 25.7609 53.0714 25.2133 52.8365C24.707 52.6206 24.5784 52.1205 24.8514 51.422C26.0339 48.3898 24.3864 45.237 21.2437 44.5226C18.3962 43.8749 15.69 45.8021 15.1853 48.8375C14.744 51.4823 16.8534 54.1573 19.5946 54.4621C20.631 54.578 21.5992 54.397 22.5277 53.943C23.2055 53.6112 23.6769 53.7191 23.9388 54.2525C24.1927 54.7669 23.9753 55.2178 23.3039 55.567C19.2993 57.6514 14.279 55.1876 13.4758 50.7441C13.4377 50.5298 13.3933 50.3171 13.3457 50.0646C13.1219 50.0646 12.8949 50.0646 12.5695 50.0646C12.5695 50.5076 12.5838 50.9552 12.5663 51.3997C12.5394 52.1014 12.2299 52.4031 11.5331 52.4062C10.4046 52.4126 9.27604 52.411 8.14753 52.4062C7.50947 52.4031 7.10155 52.0554 7.0952 51.5283C7.08886 50.9997 7.49994 50.6362 8.13007 50.6314C8.97923 50.6235 9.8284 50.6298 10.7204 50.6298C10.7347 50.4314 10.7474 50.2663 10.7649 50.025C10.0189 50.025 9.31096 50.0297 8.60465 50.0234C7.36027 50.0138 6.70157 49.363 6.69523 48.1152C6.6857 46.2736 6.69046 44.4321 6.69523 42.589C6.69523 42.2842 6.69364 42.0603 6.32382 41.892C6.07938 41.7809 5.8286 41.3809 5.83019 41.111C5.83178 40.8411 6.08573 40.4649 6.33334 40.3331C6.6492 40.1664 6.70157 39.9886 6.69523 39.6901C6.68253 39.0393 6.69205 38.39 6.69205 37.6772C6.44127 37.6645 6.23334 37.6438 6.02383 37.6438C4.49851 37.6406 2.97478 37.6279 1.44947 37.6502C0.912985 37.6581 0.490785 37.5073 0.170167 37.0771C0.166992 36.8421 0.166992 36.604 0.166992 36.3659ZM8.50148 44.0765C10.9585 44.0765 13.3504 44.0828 15.744 44.0654C15.9376 44.0638 16.1455 43.9225 16.3201 43.805C18.6978 42.1937 21.677 42.1984 24.0737 43.7971C24.3165 43.959 24.6498 44.0638 24.9403 44.067C27.8116 44.086 30.6813 44.0797 33.5526 44.0781C33.7414 44.0781 33.9287 44.0606 34.1033 44.0527C34.1033 37.7486 34.1033 31.5191 34.1033 25.2627C33.9113 25.2516 33.7557 25.2325 33.6018 25.2325C25.4847 25.2309 17.3677 25.2309 9.25065 25.2325C8.53799 25.2325 8.48085 25.2976 8.47926 26.0215C8.47767 29.0902 8.47767 32.1605 8.47926 35.2292C8.47926 35.4022 8.49672 35.5753 8.50942 35.8118C9.22684 35.8118 9.91411 35.8118 10.6014 35.8118C11.1553 35.8118 11.7108 35.7928 12.2648 35.8213C12.86 35.8515 13.2362 36.2325 13.2266 36.7405C13.2187 37.2485 12.8362 37.601 12.2394 37.6406C12.0029 37.6565 11.7648 37.6454 11.5267 37.6454C10.5252 37.6454 9.52365 37.6454 8.50942 37.6454C8.50942 38.5312 8.50942 39.333 8.50942 40.1997C9.04748 40.1997 9.55698 40.1997 10.0665 40.1997C10.7395 40.1997 11.4124 40.1934 12.0854 40.2013C12.814 40.2109 13.2346 40.5585 13.2266 41.1269C13.2187 41.6888 12.7997 42.0175 12.0616 42.0302C11.6664 42.0365 11.2696 42.0317 10.8744 42.0317C10.0903 42.0317 9.30779 42.0317 8.50148 42.0317C8.50148 42.7414 8.50148 43.3684 8.50148 44.0765ZM55.78 35.8118C55.6943 35.6642 55.6736 35.6102 55.6387 35.5705C52.6627 32.3113 49.6819 29.0553 46.7106 25.7929C46.3313 25.377 45.8694 25.2309 45.3329 25.2309C44.3044 25.2325 43.2727 25.2579 42.2458 25.2198C41.7204 25.2008 41.5331 25.3294 41.5394 25.8993C41.568 28.987 41.5537 32.0764 41.5537 35.1641C41.5537 35.3562 41.5537 35.5499 41.5537 35.8118C41.8172 35.8118 42.0109 35.8118 42.2029 35.8118C43.1933 35.8118 44.1822 35.8118 45.1726 35.8118C45.3107 35.8118 45.4504 35.8055 45.5884 35.815C46.1805 35.8563 46.5805 36.2087 46.5979 36.7008C46.6154 37.2136 46.1995 37.6264 45.5821 37.6375C44.3552 37.6565 43.1283 37.647 41.9013 37.6438C40.4617 37.6406 39.7491 36.9278 39.7491 35.4911C39.7475 32.3034 39.7491 29.1172 39.7491 25.9295C39.7491 25.7183 39.7491 25.5072 39.7491 25.2722C38.4444 25.2722 37.2095 25.2722 35.9762 25.2722C35.9762 31.5557 35.9762 37.7994 35.9762 44.0781C36.2381 44.0781 36.454 44.0781 36.6683 44.0781C39.4396 44.0781 42.2108 44.0908 44.9821 44.0638C45.3472 44.0606 45.7551 43.932 46.0678 43.7399C48.2359 42.4032 50.5374 42.1079 52.7722 43.3113C53.9848 43.9638 55.1467 44.1273 56.4323 44.0828C57.2037 44.0558 57.9767 44.0797 58.7481 44.0765C58.8989 44.0749 59.0481 44.0479 59.1877 44.032C59.1877 43.5939 59.1877 43.2049 59.1877 42.8207C57.9957 42.6922 57.6783 42.5175 57.664 41.946C57.6592 41.7428 57.7021 41.4221 57.8307 41.3523C58.2386 41.1269 58.6973 40.9951 59.1893 40.8062C59.3512 40.0204 59.156 39.2631 58.4687 38.6487C58.2481 38.4519 58.0878 38.1788 57.8513 38.0105C57.6148 37.8423 57.318 37.6629 57.0466 37.6597C54.6118 37.6327 52.177 37.6438 49.7422 37.6438C48.7994 37.6438 48.3629 37.3485 48.3677 36.7183C48.3724 36.0944 48.8042 35.8118 49.7597 35.8118C51.7326 35.8102 53.7102 35.8118 55.78 35.8118ZM49.8866 44.4194C47.0963 44.4067 44.8409 46.6181 44.8234 49.3852C44.8059 52.2237 47.0614 54.5161 49.8676 54.5113C52.6198 54.5065 54.8895 52.2538 54.9245 49.4947C54.9594 46.7197 52.6881 44.4321 49.8866 44.4194ZM50.7977 4.74548C50.7977 4.02316 50.7802 3.41037 50.804 2.80076C50.8199 2.41499 50.6787 2.27211 50.293 2.27846C49.3041 2.29434 48.3169 2.28323 47.328 2.28323C45.4504 2.28323 43.5727 2.2737 41.695 2.29751C41.4998 2.30069 41.149 2.48643 41.1379 2.60867C41.0839 3.29131 41.1109 3.98029 41.1109 4.73913C44.3647 3.69295 47.5502 3.68501 50.7977 4.74548ZM27.0021 48.1771C29.3528 48.1771 31.732 48.1771 34.0986 48.1771C34.0986 47.3849 34.0986 46.6435 34.0986 45.8958C31.4162 45.8958 28.7766 45.8958 26.1355 45.8958C26.4291 46.6689 26.7132 47.4166 27.0021 48.1771ZM35.9556 48.2263C38.2888 48.2263 40.557 48.2295 42.8251 48.2183C42.9378 48.2183 43.1171 48.1326 43.1505 48.0437C43.414 47.3325 43.6504 46.6118 43.8933 45.8974C41.2633 45.8974 38.6237 45.8974 35.954 45.8974C35.9556 46.6657 35.9556 47.4071 35.9556 48.2263ZM8.49672 48.1882C10.1823 48.1882 11.8108 48.1882 13.3854 48.1882C13.6885 47.3897 13.971 46.6419 14.2647 45.8672C13.2933 45.8672 12.3441 45.8672 11.395 45.8672C10.4347 45.8672 9.47286 45.8672 8.49513 45.8672C8.49672 46.6753 8.49672 47.4039 8.49672 48.1882ZM59.2163 45.9053C58.0291 45.9053 56.918 45.9053 55.8085 45.9053C56.1054 46.688 56.3879 47.4373 56.6863 48.2231C57.2561 48.2231 57.8481 48.239 58.4386 48.2183C58.9274 48.2009 59.2036 47.9278 59.2131 47.4278C59.2242 46.9356 59.2163 46.4435 59.2163 45.9053Z" fill="#FF6916"/>
<path d="M0.166626 31.1379C0.479308 30.6981 0.899921 30.541 1.43799 30.5584C2.32683 30.587 3.21885 30.5584 4.10928 30.5695C4.78543 30.5775 5.20446 30.9315 5.21081 31.4728C5.21716 32.0221 4.814 32.3793 4.12674 32.3888C3.17758 32.4031 2.22366 32.4428 1.27927 32.3682C0.896747 32.338 0.536448 32.0316 0.165039 31.8522C0.166626 31.6125 0.166626 31.376 0.166626 31.1379Z" fill="#FF6916"/>
<path d="M0.166687 40.763C0.484131 40.3359 0.903156 40.1645 1.43805 40.1915C2.04754 40.2216 2.66021 40.1867 3.2697 40.2026C3.9522 40.22 4.33472 40.574 4.32044 41.1408C4.30615 41.6774 3.93474 42.0076 3.27605 42.025C2.66497 42.0425 2.05389 42.0076 1.4444 42.0361C0.91268 42.0599 0.49048 41.8933 0.166687 41.4742C0.166687 41.2376 0.166687 41.0011 0.166687 40.763Z" fill="#FF6916"/>
<path d="M19.637 16.0162C17.1023 16.0162 14.5691 16.0178 12.0343 16.0131C11.8009 16.0131 11.4994 16.0369 11.3502 15.9099C11.1026 15.6987 10.7883 15.3622 10.8073 15.1002C10.8296 14.8065 11.1518 14.4906 11.4184 14.2763C11.5724 14.1525 11.874 14.1874 12.1089 14.1874C17.1181 14.1826 22.1258 14.1842 27.1351 14.1858C27.3509 14.1858 27.5715 14.1969 27.7826 14.2398C28.2287 14.3335 28.4667 14.6319 28.4763 15.0796C28.4874 15.559 28.2287 15.8638 27.7684 15.975C27.5795 16.021 27.3763 16.0131 27.1795 16.0146C24.6669 16.0162 22.1512 16.0162 19.637 16.0162Z" fill="#FF6916"/>
<path d="M23.0369 9.60566C25.4304 9.60566 27.8224 9.60566 30.2159 9.60566C30.4143 9.60566 30.6127 9.60249 30.8079 9.61995C31.3222 9.66757 31.6047 9.98667 31.6237 10.4725C31.6428 10.9693 31.3444 11.2789 30.8603 11.3837C30.7079 11.417 30.5444 11.3996 30.3873 11.3996C25.5034 11.3996 20.618 11.3996 15.7341 11.3996C15.596 11.3996 15.4563 11.4091 15.3198 11.3916C14.8262 11.3297 14.4739 10.9376 14.5072 10.4645C14.5421 9.96444 14.8119 9.65329 15.3262 9.61995C15.7405 9.59296 16.1563 9.60407 16.5706 9.60407C18.726 9.60566 20.8815 9.60566 23.0369 9.60566Z" fill="#FF6916"/>
<path d="M20.1799 46.5874C21.7656 46.5842 23.0639 47.8527 23.0814 49.4227C23.0988 51.0182 21.7862 52.3295 20.1799 52.3216C18.6022 52.312 17.3023 51.0166 17.3039 49.4529C17.3055 47.8844 18.6022 46.5922 20.1799 46.5874ZM20.1783 50.5181C20.791 50.5277 21.2704 50.053 21.264 49.4434C21.2577 48.8735 20.7783 48.3845 20.2149 48.3718C19.6498 48.3591 19.1625 48.829 19.1435 49.4069C19.1197 50.0371 19.5593 50.5086 20.1783 50.5181Z" fill="#FF6916"/>
<path d="M46.8532 18.0879C47.5547 18.0879 48.1658 18.08 48.7769 18.0895C49.4594 18.1006 49.8657 18.4451 49.8721 18.9928C49.8784 19.5532 49.4911 19.8977 48.7975 19.9088C47.9087 19.9231 47.0198 19.9247 46.131 19.9088C45.3612 19.8945 45.0707 19.5881 45.0691 18.8071C45.0628 16.7925 45.0644 14.7764 45.0691 12.7618C45.0707 12.076 45.412 11.6632 45.9516 11.6616C46.4976 11.66 46.85 12.076 46.8532 12.7507C46.8579 14.2922 46.8548 15.8336 46.8548 17.3735C46.8532 17.5879 46.8532 17.8006 46.8532 18.0879Z" fill="#FF6916"/>
<path d="M24.7607 20.0978C23.4957 20.0978 22.2291 20.1026 20.9641 20.0962C20.2689 20.0914 19.8848 19.7565 19.8943 19.1913C19.9038 18.6309 20.2927 18.3118 20.9942 18.3102C23.5052 18.3071 26.0178 18.3071 28.5287 18.3102C29.197 18.3118 29.6223 18.6785 29.6128 19.2199C29.6033 19.7438 29.2001 20.0899 28.5589 20.0946C27.2907 20.1041 26.0257 20.0978 24.7607 20.0978Z" fill="#FF6916"/>
<path d="M15.2515 20.0946C14.5992 20.0946 13.9469 20.1089 13.2945 20.0915C12.7263 20.0756 12.3898 19.7311 12.3866 19.2135C12.3834 18.704 12.7358 18.3245 13.2834 18.3166C14.5881 18.3007 15.8928 18.3007 17.1975 18.3166C17.7498 18.3229 18.1038 18.696 18.1054 19.2024C18.1085 19.7136 17.7641 20.074 17.207 20.0899C16.5562 20.1089 15.9039 20.0946 15.2515 20.0946Z" fill="#FF6916"/>
<path d="M56.2303 19.9249C55.9954 19.9122 55.7574 19.917 55.5256 19.8821C55.0495 19.8122 54.7812 19.5011 54.7574 19.0455C54.7336 18.5851 54.9844 18.212 55.4463 18.1501C55.9653 18.0802 56.5065 18.0771 57.0271 18.1406C57.4842 18.1977 57.7557 18.5597 57.7414 19.0201C57.7255 19.5043 57.4398 19.8249 56.9382 19.8868C56.7065 19.9154 56.4684 19.8916 56.2319 19.8916C56.2304 19.9043 56.2303 19.9154 56.2303 19.9249Z" fill="#FF6916"/>
<path d="M35.6697 18.0715C35.9253 18.089 36.1887 18.0747 36.4363 18.1334C36.8919 18.2414 37.1538 18.543 37.1379 19.0304C37.1236 19.5146 36.8601 19.8242 36.3871 19.8766C35.938 19.9258 35.4761 19.9289 35.0253 19.8972C34.511 19.8607 34.1476 19.4701 34.165 19.0098C34.1857 18.4732 34.5095 18.1858 35.0174 18.1049C35.2301 18.0715 35.4523 18.0985 35.6697 18.0985C35.6681 18.089 35.6681 18.0795 35.6697 18.0715Z" fill="#FF6916"/>
<path d="M45.0739 8.70907C45.0739 8.49158 45.0596 8.2725 45.077 8.0566C45.1183 7.547 45.4088 7.26601 45.9151 7.23426C46.4024 7.20251 46.8039 7.53747 46.842 8.03596C46.8754 8.46935 46.8706 8.90751 46.8468 9.34091C46.8182 9.84733 46.4373 10.2029 45.9691 10.2109C45.4802 10.2188 45.1072 9.84415 45.0739 9.3028C45.0628 9.10595 45.0723 8.90751 45.0723 8.70907C45.0707 8.70907 45.0723 8.70907 45.0739 8.70907Z" fill="#FF6916"/>
<path d="M20.3291 33.843C19.5021 32.9635 18.5736 31.9364 17.6006 30.9537C16.4912 29.8313 16.4832 29.7281 17.5959 28.5708C18.6133 27.5135 19.8259 27.1563 21.2116 27.5977C21.7004 27.7532 22.1766 28.0692 22.5575 28.4216C23.7781 29.5487 24.9606 30.7187 26.1415 31.8872C27.3652 33.1 27.3668 34.6733 26.151 35.875C24.9971 37.0149 23.8241 38.1373 22.667 39.2739C20.9354 40.9742 18.5672 40.7265 16.9388 38.4722C16.6277 38.042 16.8038 37.6277 17.1594 37.253C18.2466 36.1036 19.3164 34.9352 20.3291 33.843ZM19.1386 38.1404C19.7085 38.6865 20.5608 38.7596 21.2211 38.1436C22.494 36.9561 23.7305 35.729 24.9685 34.505C25.3256 34.1526 25.3875 33.7096 25.0177 33.3413C23.7273 32.0586 22.4242 30.787 21.102 29.5376C20.5544 29.0201 19.345 29.1233 19.1402 29.5678C20.2291 30.7537 21.2465 31.8872 22.294 32.9937C22.9718 33.7096 22.9718 34.0732 22.2877 34.786C21.2322 35.883 20.2021 37.0038 19.1386 38.1404Z" fill="#FF6916"/>
<path d="M12.3486 32.6804C12.8628 32.6804 13.3771 32.6677 13.8898 32.6836C14.4501 32.701 14.7961 33.0503 14.7977 33.5615C14.7993 34.0711 14.4469 34.4457 13.9009 34.4536C12.8533 34.4695 11.8058 34.4695 10.7598 34.4536C10.2217 34.4457 9.83602 34.0584 9.83284 33.5726C9.82967 33.0852 10.2058 32.7026 10.7487 32.6836C11.282 32.6661 11.8153 32.682 12.3486 32.6804Z" fill="#FF6916"/>
<path d="M49.8721 46.5874C51.4593 46.5906 52.7433 47.8701 52.7449 49.4481C52.7465 51.0245 51.4625 52.3104 49.88 52.32C48.2674 52.3295 46.9754 51.0373 46.9849 49.4259C46.9944 47.8495 48.2817 46.5842 49.8721 46.5874ZM50.9165 49.4497C50.9149 48.8703 50.4514 48.3861 49.8848 48.3702C49.3134 48.3543 48.7785 48.8798 48.7801 49.4561C48.7816 50.0482 49.288 50.5324 49.8927 50.5165C50.4816 50.5023 50.9196 50.0466 50.9165 49.4497Z" fill="#FF6916"/>
</g>
<defs>
<clipPath id="clip0_73_539">
<rect width="60.8333" height="55.8333" fill="white" transform="translate(0.166748 0.483398)"/>
</clipPath>
</defs>
</svg>
