<svg width="26" height="26" viewBox="0 0 26 26" fill="none" xmlns="http://www.w3.org/2000/svg">
<path fill-rule="evenodd" clip-rule="evenodd" d="M6.03484 7.6586L10.6423 3.24315C11.7565 2.17538 13.5142 2.17538 14.6284 3.24315L19.2358 7.6586H21.9023C22.5398 7.6586 23.0294 8.22317 22.9393 8.85421L21.4006 19.6252C21.1794 21.1733 19.8536 22.3232 18.2897 22.3232H6.98096C5.41713 22.3232 4.09128 21.1733 3.87012 19.6252L2.3314 8.85421C2.24126 8.22317 2.73091 7.6586 3.36835 7.6586H6.03484ZM11.7294 4.37755C12.2358 3.8922 13.0348 3.8922 13.5413 4.37755L16.965 7.6586H8.30569L11.7294 4.37755ZM3.97222 9.22981L5.42554 19.403C5.53612 20.1771 6.19905 20.752 6.98096 20.752H18.2897C19.0717 20.752 19.7346 20.1771 19.8452 19.403L21.2985 9.22981H3.97222Z" fill="black"/>
<path fill-rule="evenodd" clip-rule="evenodd" d="M8.4454 12.1104C8.87927 12.1104 9.231 12.4621 9.231 12.896V17.0859C9.231 17.5197 8.87927 17.8715 8.4454 17.8715C8.01152 17.8715 7.65979 17.5197 7.65979 17.0859V12.896C7.65979 12.4621 8.01152 12.1104 8.4454 12.1104Z" fill="black"/>
<path fill-rule="evenodd" clip-rule="evenodd" d="M12.6353 12.1104C13.0692 12.1104 13.4209 12.4621 13.4209 12.896V17.0859C13.4209 17.5197 13.0692 17.8715 12.6353 17.8715C12.2015 17.8715 11.8497 17.5197 11.8497 17.0859V12.896C11.8497 12.4621 12.2015 12.1104 12.6353 12.1104Z" fill="black"/>
<path fill-rule="evenodd" clip-rule="evenodd" d="M16.8253 12.1104C17.2592 12.1104 17.6109 12.4621 17.6109 12.896V17.0859C17.6109 17.5197 17.2592 17.8715 16.8253 17.8715C16.3914 17.8715 16.0397 17.5197 16.0397 17.0859V12.896C16.0397 12.4621 16.3914 12.1104 16.8253 12.1104Z" fill="black"/>
</svg>
