<svg width="21" height="21" viewBox="0 0 21 21" fill="none" xmlns="http://www.w3.org/2000/svg">
<path fill-rule="evenodd" clip-rule="evenodd" d="M17.0774 15.936C18.4677 14.2936 19.3061 12.1689 19.3061 9.84848C19.3061 4.64194 15.0854 0.421204 9.87881 0.421204C4.67227 0.421204 0.451538 4.64194 0.451538 9.84848C0.451538 15.055 4.67227 19.2757 9.87881 19.2757C12.1993 19.2757 14.3239 18.4374 15.9663 17.047L18.7506 19.8313C19.0574 20.1381 19.5548 20.1381 19.8616 19.8313C20.1684 19.5245 20.1684 19.027 19.8616 18.7202L17.0774 15.936ZM17.7349 9.84848C17.7349 14.1873 14.2176 17.7045 9.87881 17.7045C5.54003 17.7045 2.02275 14.1873 2.02275 9.84848C2.02275 5.50969 5.54003 1.99242 9.87881 1.99242C14.2176 1.99242 17.7349 5.50969 17.7349 9.84848Z" fill="black"/>
</svg>
