<svg width="26" height="26" viewBox="0 0 26 26" fill="none" xmlns="http://www.w3.org/2000/svg">
<path fill-rule="evenodd" clip-rule="evenodd" d="M12.9616 11.3247C14.9864 11.3247 16.6278 9.68334 16.6278 7.65858C16.6278 5.63381 14.9864 3.99242 12.9616 3.99242C10.9369 3.99242 9.29546 5.63381 9.29546 7.65858C9.29546 9.68334 10.9369 11.3247 12.9616 11.3247ZM12.9616 12.896C15.8541 12.896 18.199 10.5511 18.199 7.65858C18.199 4.76606 15.8541 2.4212 12.9616 2.4212C10.0691 2.4212 7.72424 4.76606 7.72424 7.65858C7.72424 10.5511 10.0691 12.896 12.9616 12.896Z" fill="black"/>
<path fill-rule="evenodd" clip-rule="evenodd" d="M9.81924 16.824C7.3606 16.824 5.36748 18.8171 5.36748 21.2758V22.3233C5.36748 22.7571 5.01575 23.1089 4.58187 23.1089C4.14799 23.1089 3.79626 22.7571 3.79626 22.3233V21.2758C3.79626 17.9494 6.49284 15.2528 9.81924 15.2528H16.1041C19.4305 15.2528 22.1271 17.9494 22.1271 21.2758V22.3233C22.1271 22.7571 21.7753 23.1089 21.3415 23.1089C20.9076 23.1089 20.5559 22.7571 20.5559 22.3233V21.2758C20.5559 18.8171 18.5627 16.824 16.1041 16.824H9.81924Z" fill="black"/>
</svg>
