<svg width="474" height="305" viewBox="0 0 474 305" fill="none" xmlns="http://www.w3.org/2000/svg">
<path d="M218.728 30.5108H52.5844C45.5122 30.5108 39.7791 36.244 39.7791 43.3162V209.459C39.7791 216.532 45.5122 222.265 52.5844 222.265H218.728C225.8 222.265 231.533 216.532 231.533 209.459V43.3162C231.533 36.244 225.8 30.5108 218.728 30.5108Z" fill="#46B20F"/>
<path d="M135.212 251.561C149.676 251.561 161.401 239.836 161.401 225.372C161.401 210.908 149.676 199.183 135.212 199.183C120.749 199.183 109.023 210.908 109.023 225.372C109.023 239.836 120.749 251.561 135.212 251.561Z" fill="#46B20F"/>
<path d="M26.9072 159.707C41.3709 159.707 53.0961 147.982 53.0961 133.518C53.0961 119.055 41.3709 107.33 26.9072 107.33C12.4434 107.33 0.718262 119.055 0.718262 133.518C0.718262 147.982 12.4434 159.707 26.9072 159.707Z" fill="#FF6916"/>
<path d="M238.191 118.946C252.655 118.946 264.38 107.221 264.38 92.757C264.38 78.2933 252.655 66.5681 238.191 66.5681C223.728 66.5681 212.002 78.2933 212.002 92.757C212.002 107.221 223.728 118.946 238.191 118.946Z" fill="#FF6916"/>
<path d="M143.445 1.91382C143.445 1.91382 127.529 -0.617157 123.255 27.4791C118.506 58.7153 105.825 53.5765 85.6863 78.9394C73.9162 93.7604 86.3022 119.933 111.472 119.414C136.642 118.908 159.373 111.631 173.851 114.744C188.33 117.858 189.126 80.7751 174.84 69.3335C160.554 57.8925 191.012 25.0365 172.452 10.4063C153.893 -4.22443 143.445 1.91382 143.445 1.91382Z" fill="#31446C"/>
<path d="M48.3088 125.809C46.8573 122.826 46.9457 119.361 47.4694 116.127C49.7379 102.248 59.4649 90.6506 70.6132 82.1516C81.7987 73.6309 94.6009 67.5478 106.369 59.9119C109.423 57.9232 112.485 55.7815 115.991 54.7065C119.498 53.6322 123.573 53.748 126.469 56.0088C128.513 57.5954 129.695 60.0489 130.382 62.5024C131.889 67.8756 131.311 73.5644 130.393 79.0143C129.243 85.8882 127.557 92.6911 124.786 99.0093C122.566 104.106 118.952 109.35 113.52 110.348C111.948 116.439 108.712 122.148 104.172 126.515C98.981 131.523 92.3984 134.797 85.5673 137.084C79.2735 139.196 72.3893 140.574 66.0583 138.603C62.3006 137.455 58.9911 135.247 55.7545 132.993C52.8669 131.074 49.8698 128.973 48.3088 125.809ZM105.192 116.554L108.908 110.655C108.116 110.736 107.368 110.891 106.613 111.197C104.573 112.08 103.344 115.293 105.192 116.554Z" fill="#31446C"/>
<path d="M174.043 26.6225C174.235 27.6655 174.271 28.7584 174.2 30.0057C173.777 37.2817 172.211 44.4885 169.56 51.2626C167.938 55.295 165.953 59.2698 163.145 62.6088C161.979 63.995 160.66 65.2755 158.936 65.7698C157.159 66.2628 154.922 66.3326 153.16 65.8902C151.606 72.3165 152.254 84.4464 157.802 89.0039C159.498 90.3824 161.514 91.2448 163.531 92.0035C167.461 93.5197 171.553 94.6747 175.648 95.5692C180.315 96.5763 185.401 97.3299 188.678 100.76C189.088 101.183 189.495 101.761 189.33 102.331C189.221 102.693 188.956 102.95 188.641 103.153C186.061 105.246 182.871 106.394 179.681 107.49C174.086 109.382 168.34 110.959 162.499 112.014C156.396 113.118 150.094 113.647 143.914 112.981C139.137 112.44 134.422 111.224 130.085 109.078C125.542 106.824 120.888 104.984 116.187 102.832C112.209 101.003 108.288 98.9152 103.982 98.1738C106.017 94.3034 110.264 92.1309 114.493 91.1027C118.721 90.1269 123.144 90.0379 127.422 89.2183C128.83 88.9277 130.24 88.5851 131.449 87.7195C134.763 85.3249 133.856 80.0055 133.908 76.5212L134.076 65.4958C133.583 60.2347 131.414 55.8328 129.51 51.018C126.605 43.6395 126.005 35.2559 128.564 27.7001C131.123 20.1961 136.944 13.6788 144.422 11.0358C151.901 8.39212 160.877 9.88138 166.619 15.3781C170.259 18.9188 173.228 22.0849 174.043 26.6225Z" fill="#F8AE9D"/>
<path d="M151.045 3.17897C158.498 2.34726 165.29 5.99743 170.326 11.6555C174.563 16.398 177.053 22.6591 176.927 28.9491C176.909 29.8481 176.808 30.8264 176.302 31.6338C174.955 33.568 172.027 32.8561 169.838 31.9949C166.27 30.6164 163.613 28.6015 160.378 26.9028C157.143 25.2036 153.215 25.452 150.319 23.106C147.586 20.8446 138.201 16.0804 137.948 12.3976C137.629 7.89647 145.875 4.22004 149.323 3.47221C149.816 3.31854 150.389 3.24812 151.045 3.17897Z" fill="#31446C"/>
<path d="M129.571 13.3681C123.268 17.4338 120.31 24.5542 119.982 32.1209C119.695 38.4743 121.721 44.9007 125.793 49.6969C126.375 50.382 127.072 51.0761 127.975 51.3821C130.241 52.0307 132.06 49.6284 133.213 47.5777C135.107 44.2547 135.894 41.0143 137.327 37.6535C138.761 34.2921 141.963 32.0031 142.724 28.3549C143.414 24.875 147.678 15.2524 145.547 12.238C142.95 8.54816 134.236 10.9088 131.091 12.5069C130.611 12.6997 130.122 13.0076 129.571 13.3687V13.3681Z" fill="#31446C"/>
<path d="M185.633 99.1533C186.629 98.7007 187.819 99.031 188.482 99.9248C195.918 110.338 198.789 123.385 201.304 135.959C204.155 150.255 206.694 164.598 209.129 178.94C209.274 179.67 209.366 180.452 209.044 181.123C208.722 181.795 207.988 182.147 207.307 182.45C203.01 184.517 198.662 186.531 194.366 188.599C189.74 178.073 186.372 166.942 184.411 155.625C181.652 162.605 176.67 168.668 170.316 172.629C175.051 179.41 180.419 191.901 186.102 197.865C186.849 200.01 185.71 198.258 183.751 198.258C180.518 198.729 180.638 197.954 177.872 197.865C173.873 197.389 172.537 197.682 168.525 198.09C161.856 198.821 155.374 200.907 149.449 204.041C146.503 205.609 143.677 207.392 140.993 209.375C138.678 211.108 132.947 215.183 132.947 215.183C132.525 215.488 130.556 215.043 130.089 214.931C128.73 214.7 127.362 214.523 125.988 214.401C122.559 214.14 119.081 213.672 115.709 213.048C108.914 211.801 102.233 209.879 95.8231 207.233C95.2059 206.755 97.4078 202.211 97.5249 201.329C97.4084 202.159 84.7842 201.135 83.5389 200.908C78.5608 199.896 73.5238 199.352 68.5464 198.287C70.7752 178.243 76.8955 158.881 82.9089 139.675C85.2606 132.116 87.6642 124.558 90.9974 117.43C94.5458 109.838 99.1269 102.729 104.633 96.4149C104.791 96.2612 105.053 96.1607 105.26 96.2164C107.902 96.8804 124.017 101.027 132.034 104.009C136.12 105.58 140.26 106.995 144.452 108.411C146.107 108.956 147.816 109.503 149.533 109.477C150.677 109.442 151.825 109.2 152.922 108.956C164.091 106.473 175.263 103.782 185.633 99.1533Z" fill="white"/>
<path d="M180.292 138.513C181.746 144.8 182.795 151.149 183.505 157.628M112.934 139.09C112.475 141.944 111.858 144.848 111.243 147.699C109.745 154.17 107.824 160.535 105.491 166.754C104.3 169.857 103.057 172.907 101.658 175.955C100.959 177.453 100.261 178.951 99.5097 180.448C99.1345 181.17 98.7587 181.944 98.3835 182.667C98.0621 183.286 97.6894 183.853 97.3687 184.42C99.6064 184.351 110.65 184.988 112.936 185.178L112.934 139.09Z" stroke="white" stroke-width="1.376" stroke-miterlimit="10" stroke-linecap="round"/>
<path d="M404.081 299.167H237.938C230.866 299.167 225.133 293.434 225.133 286.361V120.218C225.133 113.146 230.866 107.413 237.938 107.413H404.081C411.153 107.413 416.887 113.146 416.887 120.218V286.361C416.887 293.434 411.153 299.167 404.081 299.167Z" fill="#FF6916"/>
<path d="M320.566 78.1173C335.03 78.1173 346.755 89.8425 346.755 104.306C346.755 118.77 335.03 130.495 320.566 130.495C306.102 130.495 294.377 118.77 294.377 104.306C294.377 89.8425 306.102 78.1173 320.566 78.1173Z" fill="#FF6916"/>
<path d="M212.26 169.971C226.724 169.971 238.449 181.696 238.449 196.16C238.449 210.624 226.724 222.349 212.26 222.349C197.797 222.349 186.072 210.624 186.072 196.16C186.072 181.696 197.797 169.971 212.26 169.971Z" fill="#46B20F"/>
<path d="M423.545 210.732C438.008 210.732 449.734 222.457 449.734 236.921C449.734 251.384 438.008 263.109 423.545 263.109C409.081 263.109 397.356 251.384 397.356 236.921C397.356 222.457 409.081 210.732 423.545 210.732Z" fill="#46B20F"/>
<path d="M338.051 83.541C338.811 86.581 337.802 89.742 336.139 92.3972C334.963 94.2731 333.319 92.2019 330.923 91.8696C327.216 91.3503 324.868 87.4261 324.066 77.8656C323.695 70.8822 323.87 67.3985 324.259 66.789C325.643 64.6069 329.205 63.8764 332.014 64.087" fill="#31446C"/>
<path fill-rule="evenodd" clip-rule="evenodd" d="M241.081 117.52C241.081 117.52 243.684 103.016 242.747 100.079C241.948 97.5411 234.394 93.8806 234.394 93.8806C234.394 93.8806 221.254 73.1238 218.378 75.2373C216.039 76.9506 225.221 92.2537 225.221 92.2537C225.221 92.2537 216.848 101.038 216.965 104.965C217.082 108.892 230.631 121.185 230.631 121.185L241.081 117.52ZM376.129 120.927C376.129 120.927 367.476 118.896 367.175 104.717C366.875 90.5365 367.086 85.6967 367.086 85.6967L346.57 85.3523C346.57 85.3523 346.363 101.155 346.36 106.872C346.351 119.315 337.11 122.677 337.11 122.677C337.11 122.677 337.878 136.284 355.15 137.256C368.636 138.015 376.129 120.927 376.129 120.927Z" fill="#F8AE9D"/>
<path fill-rule="evenodd" clip-rule="evenodd" d="M368.971 78.529C377.474 78.1999 376.087 90.648 367.254 90.6313C367.254 90.6313 357.76 109.72 342.856 109.769C335.677 109.793 333.333 103.398 331.18 98.9087C329.028 94.4192 327.449 87.7047 327.317 83.5929C327.176 79.2089 327.158 64.8067 327.158 64.8067L369.302 64.7875L368.971 78.529Z" fill="#F8AE9D"/>
<path fill-rule="evenodd" clip-rule="evenodd" d="M336.786 121.833C336.786 121.833 314.684 128.732 309.358 136.975C292.201 152.047 270.742 172.747 270.742 172.747C270.742 172.747 250.306 121.453 243.625 115.605C239.052 111.604 229.944 116.551 228.247 121.636C226.067 128.167 240.065 166.476 246.676 184.568L246.677 184.57C247.957 188.074 248.961 190.819 249.515 192.429C253.546 204.124 263.354 210.832 275.29 203.399C280.102 200.402 294.42 190.584 306.635 181.683C306.827 191.034 307.149 200.887 307.454 210.246V210.246C308.197 232.982 308.844 252.795 307.289 255.369C299.584 268.13 309.828 276.889 343.744 280.108C377.66 283.327 407.749 280.691 402.29 263.662C401.151 260.113 401.165 252.475 401.733 242.553C405.056 242.376 408.376 242.157 411.693 241.896C425.848 240.781 436.316 234.699 437.776 218.903C438.799 207.842 417.726 155.913 409.824 138.838C407.975 134.843 405.117 132.355 401.879 131.115C401.125 130.274 400.276 129.683 399.322 129.369C393.518 127.456 372.707 118.712 372.707 118.712L347.949 134.91L336.786 121.833ZM404.026 213.243L404.082 213.387L404.013 213.396L404.026 213.243Z" fill="white"/>
<path fill-rule="evenodd" clip-rule="evenodd" d="M349.092 226.948C349.092 226.948 341.542 225.43 338.451 223.004C335.361 220.578 326.002 218.862 326.002 218.862L328.996 225.168C328.996 225.168 306.058 223.015 305.515 225.278C304.971 227.541 311.606 230 311.606 230C311.606 230 314.878 236.112 318.045 239.654C321.042 243.006 335.93 242.607 341.15 240.515C345.66 238.708 350.564 239.612 350.564 239.612L349.092 226.948Z" fill="#F8AE9D"/>
<path d="M366.657 65.3747C365.415 67.0016 363.224 67.3595 361.419 67.6815C358.994 68.1131 357.793 69.0139 356.534 71.4303C355.737 72.9746 354.939 74.665 353.513 75.5011C352.35 76.1856 352.385 74.4543 352.213 73.1161C352.197 72.9912 352.172 72.8674 352.14 72.7454C351.863 71.6755 350.727 71.8548 350.398 72.91C350.096 73.8659 349.449 74.6746 348.627 75.1247C348.493 75.1983 348.35 75.2623 348.207 75.2348C348.014 75.2073 347.863 75.0235 347.737 74.8583C347.475 74.5145 347.215 74.0778 346.947 73.6162C346.059 72.0891 344.364 72.6251 343.372 74.0862C342.751 74.996 342.013 75.9333 340.997 76.1446C340.669 76.2182 340.258 76.1632 340.107 75.8411C339.914 75.4461 340.216 75.051 340.165 74.647C340.124 74.2699 339.964 74.1047 339.788 73.7827C339.101 72.5425 337.507 72.497 336.536 73.531C335.86 74.2498 335.156 74.9408 334.424 75.6023C334.114 75.8783 333.66 76.1536 333.35 75.8783C333.182 75.731 333.14 75.4832 333.107 75.2438C332.93 74.0772 332.762 72.91 332.586 71.7428C332.485 71.0903 332.141 70.2362 331.553 70.4014C331.268 70.484 331.1 70.7875 330.94 71.0628C330.748 71.4124 327.297 75.391 327.23 75.0882C326.693 72.8274 325.594 70.7689 325.056 68.5081C321.581 53.9619 337.001 42.2642 348.778 42.1995C351.397 42.1809 353.789 42.2245 356.333 42.8404C359.044 43.5018 361.906 44.5518 364.366 46.0315C367.815 48.0989 370.427 51.8573 369.755 56.3417" fill="#31446C"/>
<path d="M357.08 60.6725C355.42 62.5722 354.98 65.244 354.826 67.7686C354.598 71.5756 354.907 75.5306 356.649 78.9099C357.145 79.8722 357.512 84.6333 358.277 84.3701C358.521 84.2875 358.48 80.5957 359.124 78.6058C360.117 75.5223 364.692 74.3467 366.751 76.2957C370.04 79.3952 368.111 83.1613 367.02 85.5047C366.368 86.919 365.335 88.5056 365.156 90.0026C364.936 91.9183 364.871 98.8991 366.109 100.527C367.142 101.892 368.241 95.2976 369.177 93.9985C377.891 88.1752 382.748 59.6775 370.919 54.3332C369.12 53.5188 363.569 53.0994 361.883 54.1354" fill="#31446C"/>
<path d="M429.612 39.1673L442.388 46.3217L443.282 49.3879L441.621 53.0931C439.193 53.9024 433.878 55.4948 432.039 55.393C430.199 55.2905 427.78 57.0538 426.801 57.9483C426.46 59.9069 425.753 64.0552 425.651 64.9746C425.549 65.8947 423.735 70.5539 422.84 72.7686H416.58L414.28 67.658L403.165 41.2117L400.738 31.7568L402.398 29.2021L410.575 32.7793L429.612 39.1673Z" fill="#46B20F"/>
<path fill-rule="evenodd" clip-rule="evenodd" d="M406.091 26.897C400.862 24.7182 395.616 29.9645 397.794 35.1942L412.828 71.274C415.767 78.3304 426.109 77.1376 427.366 69.5978L429.241 58.3444L440.495 56.4684C448.035 55.2122 449.228 44.8706 442.171 41.9305L406.091 26.897ZM402.48 33.2421C402.044 32.1959 403.093 31.1465 404.139 31.5825L440.219 46.616C442.571 47.5956 442.174 51.0428 439.66 51.4622L428.407 53.3375C427.363 53.5113 426.4 54.0069 425.652 54.7549C424.904 55.503 424.409 56.466 424.235 57.5095L422.359 68.7629C421.94 71.2766 418.493 71.6742 417.513 69.3218L402.48 33.2421Z" fill="#46B20F"/>
<path fill-rule="evenodd" clip-rule="evenodd" d="M41.1261 278.235H44.8217C45.2495 278.235 45.6597 278.405 45.9622 278.708C46.2647 279.01 46.4348 279.42 46.4352 279.848V283.544C46.4348 283.971 46.2648 284.382 45.9622 284.684C45.6597 284.987 45.2495 285.157 44.8217 285.157H41.1261C40.6988 285.155 40.2895 284.985 39.9875 284.682C39.6854 284.38 39.5149 283.971 39.5132 283.544V279.848C39.5056 278.962 40.2323 278.235 41.1261 278.235ZM53.9391 278.235H57.6348C58.0621 278.237 58.4714 278.407 58.7736 278.709C59.0758 279.011 59.2464 279.421 59.2482 279.848V283.544C59.2479 283.971 59.0778 284.382 58.7753 284.684C58.4728 284.987 58.0626 285.157 57.6348 285.157H53.9391C53.5118 285.155 53.1026 284.985 52.8005 284.682C52.4984 284.38 52.328 283.971 52.3263 283.544V279.848C52.3278 279.421 52.4982 279.011 52.8004 278.709C53.1025 278.407 53.5118 278.237 53.9391 278.235ZM66.7612 278.235H70.4568C70.8841 278.237 71.2934 278.407 71.5956 278.709C71.8978 279.011 72.0684 279.421 72.0703 279.848V283.544C72.0699 283.971 71.8998 284.382 71.5973 284.684C71.2948 284.987 70.8846 285.157 70.4568 285.157H66.7612C66.3339 285.155 65.9246 284.985 65.6225 284.682C65.3204 284.38 65.15 283.971 65.1483 283.544V279.848C65.1406 278.962 65.868 278.235 66.7612 278.235ZM79.5742 278.235H83.2698C83.6971 278.237 84.1064 278.407 84.4086 278.709C84.7109 279.011 84.8815 279.421 84.8833 279.848V283.544C84.883 283.971 84.7129 284.382 84.4104 284.684C84.1078 284.987 83.6977 285.157 83.2698 285.157H79.5742C79.1457 285.157 78.7347 284.987 78.431 284.685C78.1273 284.382 77.9557 283.972 77.9537 283.544V279.848C77.9582 279.42 78.1306 279.012 78.4338 278.71C78.7369 278.408 79.1465 278.238 79.5742 278.235ZM92.3892 278.235H96.0848C96.5133 278.235 96.9243 278.405 97.228 278.707C97.5317 279.009 97.7033 279.42 97.7053 279.848V283.544C97.7049 283.756 97.6627 283.966 97.581 284.162C97.4993 284.358 97.3798 284.536 97.2293 284.686C97.0788 284.836 96.9003 284.955 96.7039 285.035C96.5075 285.116 96.2972 285.158 96.0848 285.157H92.3892C91.9618 285.155 91.5524 284.985 91.2501 284.683C90.9479 284.38 90.7774 283.971 90.7757 283.544V279.848C90.7776 279.421 90.9482 279.011 91.2504 278.709C91.5526 278.407 91.9619 278.237 92.3892 278.235ZM54.4097 292.208H58.1054C58.5326 292.209 58.942 292.38 59.2441 292.682C59.5463 292.984 59.7167 293.393 59.7182 293.821V297.524C59.7167 297.951 59.5463 298.361 59.2441 298.663C58.942 298.965 58.5326 299.135 58.1054 299.137H54.4097C53.982 299.137 53.5718 298.967 53.2692 298.664C52.9667 298.362 52.7966 297.952 52.7963 297.524V293.828C52.795 293.616 52.8358 293.405 52.9163 293.208C52.9969 293.012 53.1156 292.833 53.2656 292.682C53.4156 292.531 53.5939 292.412 53.7902 292.331C53.9866 292.249 54.1972 292.207 54.4097 292.208ZM67.2228 292.208H70.9184C71.3457 292.209 71.7551 292.38 72.0572 292.682C72.3593 292.984 72.5297 293.393 72.5313 293.821V297.524C72.5297 297.951 72.3593 298.361 72.0572 298.663C71.7551 298.965 71.3457 299.135 70.9184 299.137H67.2228C66.7955 299.135 66.3862 298.965 66.084 298.663C65.7818 298.36 65.6112 297.951 65.6093 297.524V293.828C65.6081 293.616 65.649 293.405 65.7296 293.208C65.8102 293.012 65.9289 292.833 66.0788 292.682C66.2288 292.532 66.4071 292.412 66.6034 292.331C66.7997 292.249 67.0102 292.208 67.2228 292.208ZM80.0371 292.208H83.7327C84.1613 292.208 84.5724 292.377 84.8761 292.679C85.1798 292.982 85.3514 293.392 85.3533 293.821V297.524C85.3514 297.952 85.1798 298.363 84.8761 298.665C84.5724 298.967 84.1613 299.137 83.7327 299.137H80.0371C79.6098 299.135 79.2005 298.965 78.8983 298.663C78.5961 298.36 78.4255 297.951 78.4236 297.524V293.828C78.4238 293.4 78.5936 292.989 78.896 292.685C79.1983 292.381 79.6086 292.21 80.0371 292.208ZM66.7612 263.225H70.4568C70.8841 263.226 71.2934 263.397 71.5956 263.699C71.8978 264.001 72.0684 264.41 72.0703 264.838V268.533C72.0699 268.961 71.8998 269.371 71.5973 269.674C71.2948 269.976 70.8846 270.146 70.4568 270.147H66.7612C66.3339 270.145 65.9246 269.974 65.6225 269.672C65.3204 269.37 65.15 268.96 65.1483 268.533V264.838C65.1406 263.951 65.868 263.225 66.7612 263.225ZM53.9519 263.225H57.6482C58.0755 263.226 58.4848 263.397 58.787 263.699C59.0891 264.001 59.2595 264.41 59.261 264.838V268.533C59.2607 268.961 59.0907 269.371 58.7883 269.674C58.4859 269.976 58.0759 270.146 57.6482 270.147H53.9519C53.5246 270.145 53.1154 269.974 52.8133 269.672C52.5112 269.37 52.3408 268.96 52.3391 268.533V264.838C52.3314 263.951 53.0588 263.225 53.9519 263.225ZM79.5742 263.225H83.2698C83.6971 263.226 84.1064 263.397 84.4086 263.699C84.7109 264.001 84.8815 264.41 84.8833 264.838V268.533C84.883 268.961 84.7129 269.371 84.4104 269.674C84.1078 269.976 83.6977 270.146 83.2698 270.147H79.5742C79.1457 270.147 78.7347 269.977 78.431 269.674C78.1273 269.372 77.9557 268.962 77.9537 268.533V264.838C77.9582 264.41 78.1306 264.001 78.4338 263.699C78.7369 263.398 79.1465 263.227 79.5742 263.225Z" fill="#E1E4E5"/>
<path d="M20.0377 63.0396C16.3248 63.0396 13.3149 60.0297 13.3149 56.3168C13.3149 52.6039 16.3248 49.594 20.0377 49.594C23.7506 49.594 26.7605 52.6039 26.7605 56.3168C26.7605 60.0297 23.7506 63.0396 20.0377 63.0396Z" fill="#46B20F"/>
<path d="M457.238 130.777C453.875 130.777 451.15 128.051 451.15 124.689C451.15 121.327 453.875 118.602 457.238 118.602C460.6 118.602 463.325 121.327 463.325 124.689C463.325 128.051 460.6 130.777 457.238 130.777Z" fill="#FF6916"/>
<path d="M180.248 257.573C175.926 257.573 172.421 254.068 172.421 249.745C172.421 245.422 175.926 241.918 180.248 241.918C184.571 241.918 188.076 245.422 188.076 249.745C188.076 254.068 184.571 257.573 180.248 257.573Z" fill="#E1E4E5"/>
<path d="M144.762 304.422C141.786 304.422 139.373 302.009 139.373 299.033C139.373 296.057 141.786 293.645 144.762 293.645C147.738 293.645 150.15 296.057 150.15 299.033C150.15 302.009 147.738 304.422 144.762 304.422Z" fill="#FF6916"/>
<path d="M91.9418 17.7367C87.1896 17.7367 83.3372 13.8843 83.3372 9.13216C83.3372 4.37999 87.1896 0.527588 91.9418 0.527588C96.694 0.527588 100.546 4.37999 100.546 9.13216C100.546 13.8843 96.694 17.7367 91.9418 17.7367Z" fill="#E1E4E5"/>
<path d="M310.586 30.4365C305.303 30.4365 301.02 26.1535 301.02 20.8702C301.02 15.5869 305.303 11.304 310.586 11.304C315.869 11.304 320.152 15.5869 320.152 20.8702C320.152 26.1535 315.869 30.4365 310.586 30.4365Z" fill="#E1E4E5"/>
<path d="M18.8189 224.353C20.0469 228.936 17.3273 233.646 12.7445 234.874C8.1618 236.102 3.45132 233.382 2.22338 228.8C0.995442 224.217 3.71504 219.506 8.29777 218.278C12.8805 217.05 17.591 219.77 18.8189 224.353Z" fill="#E1E4E5"/>
<path d="M444.156 172.647C439.301 172.647 435.365 169.498 435.365 165.614C435.365 161.73 439.301 158.581 444.156 158.581C449.011 158.581 452.947 161.73 452.947 165.614C452.947 169.498 449.011 172.647 444.156 172.647Z" fill="#E1E4E5"/>
<path d="M381.658 14.9046C382.935 19.6707 380.106 24.5697 375.34 25.8468C370.574 27.1239 365.675 24.2954 364.398 19.5293C363.121 14.7631 365.949 9.86413 370.715 8.58704C375.481 7.30996 380.38 10.1384 381.658 14.9046Z" fill="#E1E4E5"/>
<path d="M462.223 193.065H462.384C463.342 206.534 473.441 206.742 473.441 206.742C473.441 206.742 462.305 206.957 462.305 222.521C462.305 206.957 451.17 206.742 451.17 206.742C451.17 206.742 461.264 206.534 462.223 193.065ZM278.316 47.225H278.52C279.728 64.6889 292.461 64.9579 292.461 64.9579C292.461 64.9579 278.421 65.237 278.421 85.4164C278.421 65.237 264.38 64.9579 264.38 64.9579C264.38 64.9579 277.108 64.6889 278.316 47.225Z" fill="#E1E4E5"/>
</svg>
