<svg width="575" height="467" viewBox="0 0 575 467" fill="none" xmlns="http://www.w3.org/2000/svg">
<g clip-path="url(#clip0_17_1676)">
<path d="M459.037 85.0652C456.05 118.021 447.54 152.771 434.195 186.301C417.691 227.764 395.143 264.285 368.987 291.915L367.535 290.648C393.565 263.151 416.01 226.791 432.445 185.499C447.298 148.184 456.132 109.353 458.005 73.2191L459.86 73.5301C459.663 77.3462 459.389 81.1913 459.037 85.0652Z" fill="#F2F2F2"/>
<path d="M470.933 276.467C434.196 334.994 389.626 376.812 345.432 394.217L344.538 392.575C388.426 375.291 432.735 333.687 469.305 275.428L470.933 276.467Z" fill="#F2F2F2"/>
<path d="M458.145 126.097C455.158 159.053 446.649 193.803 433.303 227.332C416.799 268.796 394.251 305.317 368.095 332.947L366.644 331.679C392.673 304.182 415.119 267.823 431.553 226.531C446.406 189.216 455.241 150.384 457.113 114.251L458.968 114.562C458.771 118.378 458.497 122.223 458.145 126.097Z" fill="#F2F2F2"/>
<path d="M45.7213 210.705H21.6171C21.1021 210.706 20.5936 210.59 20.1296 210.366C19.6657 210.143 19.2583 209.816 18.9382 209.412C18.6219 209.019 18.3988 208.559 18.2855 208.066C18.1723 207.574 18.1718 207.062 18.2843 206.57C20.5799 196.426 20.4357 185.882 17.8635 175.805C17.7008 175.142 17.7401 174.444 17.9764 173.804C18.2128 173.163 18.6352 172.607 19.1895 172.209C31.5839 163.282 41.3448 163.541 48.2015 172.98C48.5106 173.41 48.716 173.906 48.8014 174.429C50.6334 185.458 50.7348 196.706 49.1019 207.766C48.9884 208.583 48.5834 209.33 47.9619 209.87C47.3403 210.411 46.5443 210.707 45.7213 210.705Z" fill="#E6E6E6"/>
<path d="M38.2483 186.533H29.9564C29.4979 186.533 29.0581 186.351 28.7339 186.026C28.4097 185.701 28.2275 185.261 28.2275 184.802C28.2275 184.343 28.4097 183.902 28.7339 183.578C29.0581 183.253 29.4979 183.071 29.9564 183.071H38.2483C38.7062 183.072 39.145 183.254 39.4684 183.579C39.7919 183.904 39.9735 184.343 39.9735 184.802C39.9735 185.26 39.7919 185.7 39.4684 186.025C39.145 186.349 38.7062 186.532 38.2483 186.533Z" fill="white"/>
<path d="M38.2483 192.605H29.9564C29.4979 192.605 29.0581 192.422 28.7339 192.098C28.4097 191.773 28.2275 191.333 28.2275 190.874C28.2275 190.414 28.4097 189.974 28.7339 189.649C29.0581 189.325 29.4979 189.142 29.9564 189.142H38.2483C38.7062 189.143 39.145 189.326 39.4684 189.651C39.7919 189.975 39.9735 190.415 39.9735 190.874C39.9735 191.332 39.7919 191.772 39.4684 192.096C39.145 192.421 38.7062 192.604 38.2483 192.605Z" fill="white"/>
<path d="M38.2483 198.676H29.9564C29.4979 198.676 29.0581 198.494 28.7339 198.169C28.4097 197.845 28.2275 197.404 28.2275 196.945C28.2275 196.486 28.4097 196.046 28.7339 195.721C29.0581 195.396 29.4979 195.214 29.9564 195.214H38.2483C38.7062 195.215 39.145 195.398 39.4684 195.722C39.7919 196.047 39.9735 196.487 39.9735 196.945C39.9735 197.404 39.7919 197.843 39.4684 198.168C39.145 198.493 38.7062 198.675 38.2483 198.676Z" fill="white"/>
<path d="M483.79 318.475H459.686C459.171 318.476 458.663 318.361 458.199 318.137C457.735 317.913 457.327 317.587 457.007 317.183C456.691 316.789 456.468 316.329 456.355 315.837C456.241 315.344 456.241 314.833 456.353 314.34C458.649 304.197 458.505 293.652 455.933 283.575C455.77 282.912 455.809 282.215 456.046 281.574C456.282 280.933 456.704 280.378 457.259 279.979C469.653 271.053 479.414 271.312 486.271 280.751C486.58 281.181 486.785 281.677 486.871 282.2C488.703 293.229 488.804 304.477 487.171 315.537C487.058 316.353 486.652 317.101 486.031 317.641C485.409 318.181 484.613 318.477 483.79 318.475Z" fill="#E6E6E6"/>
<path d="M476.317 294.304H468.026C467.568 294.303 467.129 294.12 466.805 293.795C466.482 293.471 466.3 293.031 466.3 292.572C466.3 292.114 466.482 291.674 466.805 291.349C467.129 291.025 467.568 290.842 468.026 290.841H476.317C476.776 290.841 477.216 291.023 477.54 291.348C477.864 291.673 478.046 292.113 478.046 292.572C478.046 293.032 477.864 293.472 477.54 293.797C477.216 294.121 476.776 294.304 476.317 294.304Z" fill="white"/>
<path d="M476.317 300.375H468.026C467.568 300.374 467.129 300.191 466.805 299.867C466.482 299.542 466.3 299.103 466.3 298.644C466.3 298.185 466.482 297.746 466.805 297.421C467.129 297.096 467.568 296.914 468.026 296.913H476.317C476.776 296.913 477.216 297.095 477.54 297.42C477.864 297.744 478.046 298.185 478.046 298.644C478.046 299.103 477.864 299.543 477.54 299.868C477.216 300.193 476.776 300.375 476.317 300.375Z" fill="white"/>
<path d="M476.317 306.447H468.026C467.568 306.446 467.129 306.263 466.805 305.938C466.482 305.614 466.3 305.174 466.3 304.716C466.3 304.257 466.482 303.817 466.805 303.493C467.129 303.168 467.568 302.985 468.026 302.984H476.317C476.776 302.984 477.216 303.167 477.54 303.491C477.864 303.816 478.046 304.256 478.046 304.716C478.046 305.175 477.864 305.615 477.54 305.94C477.216 306.264 476.776 306.447 476.317 306.447Z" fill="white"/>
<path d="M575 466.097C575 466.216 574.977 466.333 574.932 466.443C574.887 466.553 574.82 466.652 574.737 466.736C574.653 466.82 574.553 466.887 574.444 466.932C574.334 466.977 574.217 467 574.098 467H0.901909C0.662708 467 0.433313 466.905 0.264173 466.736C0.0950324 466.566 0 466.336 0 466.097C0 465.857 0.0950324 465.628 0.264173 465.458C0.433313 465.289 0.662708 465.194 0.901909 465.194H574.098C574.217 465.193 574.334 465.216 574.444 465.262C574.553 465.307 574.653 465.374 574.737 465.457C574.82 465.541 574.887 465.641 574.932 465.751C574.977 465.861 575 465.978 575 466.097Z" fill="#CCCCCC"/>
<path d="M151.205 410.8L149.701 389.862C139.854 384.932 128.953 382.484 117.946 382.731C133.431 394.717 132.191 418.673 142.915 435.067C146.299 440.155 150.783 444.415 156.035 447.532C161.286 450.648 167.171 452.541 173.253 453.071L186.14 460.495C187.614 450.738 186.959 440.777 184.218 431.298C181.478 421.819 176.718 413.048 170.266 405.588C166.606 401.44 162.438 397.769 157.861 394.663C155.044 402.762 151.205 410.8 151.205 410.8Z" fill="#F2F2F2"/>
<path d="M423.795 413.836L425.299 392.897C435.146 387.968 446.047 385.52 457.054 385.766C441.569 397.752 442.809 421.708 432.085 438.103C428.701 443.191 424.217 447.451 418.965 450.567C413.714 453.684 407.829 455.577 401.747 456.107L388.86 463.531C387.386 453.774 388.041 443.813 390.782 434.334C393.522 424.855 398.282 416.084 404.734 408.624C408.394 404.476 412.562 400.805 417.139 397.699C419.956 405.798 423.795 413.836 423.795 413.836Z" fill="#F2F2F2"/>
<path d="M280.679 177.55C288.632 177.55 295.079 171.094 295.079 163.13C295.079 155.166 288.632 148.71 280.679 148.71C272.726 148.71 266.279 155.166 266.279 163.13C266.279 171.094 272.726 177.55 280.679 177.55Z" fill="#46B20F"/>
<path d="M288.071 157.12C287.854 156.913 287.567 156.798 287.267 156.798C286.968 156.798 286.68 156.913 286.463 157.12C283.408 159.56 280.663 162.367 278.292 165.478C277.709 164.35 277.127 163.222 276.545 162.094C275.873 160.792 273.91 161.942 274.582 163.243C275.433 164.893 276.285 166.543 277.137 168.193C277.239 168.362 277.383 168.501 277.555 168.597C277.727 168.694 277.921 168.745 278.118 168.745C278.315 168.745 278.509 168.694 278.681 168.597C278.853 168.501 278.997 168.362 279.1 168.193C281.627 164.629 284.648 161.443 288.071 158.73C288.283 158.516 288.401 158.226 288.401 157.925C288.401 157.624 288.283 157.334 288.071 157.12Z" fill="white"/>
<path d="M216.245 204.02L194.53 169.87L219.676 156.385L226.276 182.44L272.777 207.602C274.613 206.941 276.602 206.828 278.5 207.279C280.399 207.729 282.126 208.723 283.47 210.139C284.814 211.556 285.718 213.333 286.071 215.254C286.424 217.176 286.211 219.159 285.458 220.961C284.705 222.764 283.444 224.308 281.83 225.406C280.216 226.503 278.318 227.107 276.367 227.143C274.416 227.178 272.497 226.645 270.843 225.608C269.19 224.57 267.874 223.074 267.055 221.3L216.245 204.02Z" fill="#A0616A"/>
<path d="M178.665 128.912C171.842 138.943 196.089 175.407 196.089 175.407C197.27 172.857 208.562 201.489 210.453 199.797C215.828 194.99 224.243 181.601 228.92 181.004C231.595 180.662 222.716 161.667 222.716 161.667C222.716 161.667 218.659 150.45 213.153 136.122C211.671 132.042 209.183 128.404 205.92 125.546C202.656 122.688 198.724 120.704 194.489 119.778C194.489 119.778 185.488 118.88 178.665 128.912Z" fill="#FF6916"/>
<path d="M178.998 455.741L189.311 455.74L194.217 415.907L178.996 415.907L178.998 455.741Z" fill="#A0616A"/>
<path d="M176.367 452.369L179.27 452.369L190.603 447.754L196.677 452.368H196.678C200.111 452.368 203.403 453.734 205.83 456.164C208.257 458.595 209.621 461.891 209.621 465.329V465.75L176.368 465.751L176.367 452.369Z" fill="#2F2E41"/>
<path d="M226.91 455.741L237.223 455.74L242.129 415.907L226.908 415.907L226.91 455.741Z" fill="#A0616A"/>
<path d="M224.279 452.369L227.182 452.369L238.515 447.754L244.589 452.368H244.59C248.023 452.368 251.315 453.734 253.742 456.164C256.169 458.595 257.533 461.891 257.533 465.329V465.75L224.28 465.751L224.279 452.369Z" fill="#2F2E41"/>
<path d="M231.374 237.969L164.294 239.648C151.554 246.578 151.361 261.575 155.535 279.381C155.535 279.381 154.126 289.964 156.944 292.787C159.763 295.609 161.172 295.609 159.763 300.548C158.353 305.487 165.799 313.553 164.894 314.459C163.99 315.365 161.876 320.304 161.876 320.304L168.922 360.52C168.922 360.52 173.854 430.371 175.264 431.782C176.673 433.193 178.082 431.782 176.673 435.31C175.264 438.837 173.854 437.426 175.264 438.837C176.512 440.185 177.688 441.598 178.787 443.071H195.822C195.822 443.071 197.106 436.015 197.106 435.31C197.106 434.604 198.515 430.371 198.515 429.665C198.515 428.96 197.27 427.712 197.27 427.712C196.839 426.278 196.548 424.806 196.401 423.315C196.401 421.904 192.174 367.576 192.174 367.576L200.629 297.02L221.062 366.165C221.062 366.165 221.062 426.843 222.471 428.254C223.88 429.665 223.88 428.96 223.176 431.782C222.471 434.604 219.653 433.899 221.767 436.015C223.88 438.132 224.585 434.604 223.88 438.132L223.176 441.66L244.313 441.962C244.313 441.962 247.132 436.015 245.723 433.899C244.313 431.782 244.398 432.36 246.117 428.896C247.836 425.432 248.541 424.726 247.836 424.021C247.132 423.315 247.132 419.562 247.132 419.562L243.609 352.054C243.609 352.054 242.904 280.792 242.904 278.676C242.851 277.586 243.052 276.5 243.49 275.501V272.628L240.791 262.448L231.374 237.969Z" fill="#2F2E41"/>
<path d="M191.078 98.295C202.589 98.295 211.92 88.9508 211.92 77.4242C211.92 65.8975 202.589 56.5533 191.078 56.5533C179.567 56.5533 170.236 65.8975 170.236 77.4242C170.236 88.9508 179.567 98.295 191.078 98.295Z" fill="#A0616A"/>
<path d="M201.499 112.089C205.989 114.762 208.675 119.674 210.217 124.671C213.072 133.924 214.79 143.491 215.334 153.16L216.963 182.107L237.132 243.744C219.652 258.556 153.945 247.111 153.945 247.111C153.945 247.111 151.928 246.437 153.945 244.418C155.962 242.398 157.926 244.187 155.909 242.167C153.892 240.148 155.282 242.398 155.955 240.378C156.627 238.358 155.955 239.705 155.282 239.031C154.61 238.358 160.487 232.299 160.487 232.299L155.108 196.919L148.385 125.554C156.453 115.455 172.679 109.502 172.679 109.502L176.871 101.945L197.834 103.625L201.499 112.089Z" fill="#FF6916"/>
<path d="M208.259 66.3358C209.879 67.5457 211.079 69.2338 211.691 71.1626C211.925 68.0106 211.94 64.846 211.735 61.6919C211.49 59.4755 209.931 58.9769 208.127 58.3993C206.497 57.8773 204.655 57.2878 204.159 55.1362C197.607 48.7539 186.202 49.0757 178.397 51.302C174.102 52.527 171.631 54.101 171.41 55.023L171.364 55.2128L171.19 55.3002C167.879 56.9578 167.234 62.192 167.277 66.2911C167.358 74.014 170.021 82.7853 171.521 83.4979C171.6 83.5356 171.62 83.5208 171.655 83.4921C173.913 81.6845 176.669 83.6295 177.88 84.6868C178.595 79.8869 180.895 75.4651 184.413 72.1277C187.931 68.7903 192.465 66.7297 197.29 66.2752C198.866 66.1226 200.429 65.8602 201.968 65.4896C202.749 65.2874 203.551 65.1819 204.358 65.1756C205.746 65.1545 207.107 65.5594 208.259 66.3358Z" fill="#2F2E41"/>
<path d="M337.645 254.599L377.737 213.83L388.301 181.223L371.302 174.338C362.882 182.844 354.213 208.882 354.213 208.882L326.849 245.659C326.63 245.74 326.413 245.826 326.198 245.928C324.938 246.524 323.853 247.435 323.047 248.573C322.242 249.711 321.743 251.039 321.6 252.426C321.456 253.814 321.672 255.215 322.228 256.495C322.783 257.775 323.658 258.889 324.769 259.731C325.881 260.572 327.19 261.113 328.57 261.3C329.951 261.487 331.357 261.314 332.651 260.798C333.946 260.282 335.085 259.441 335.96 258.355C336.835 257.269 337.415 255.976 337.645 254.599Z" fill="#FFB8B8"/>
<path d="M366.665 178.068L388.162 184.295L388.242 184.28C396.144 182.744 402.394 169.594 406.246 158.834C407.513 155.284 407.387 151.386 405.894 147.926C404.4 144.466 401.651 141.703 398.201 140.196C395.649 139.101 392.841 138.743 390.096 139.162C387.351 139.581 384.778 140.761 382.668 142.568L371.95 151.809L366.665 178.068Z" fill="#6C63FF"/>
<path d="M348.273 454.529L336.712 454.529L331.213 409.876L348.275 409.877L348.273 454.529Z" fill="#FFB8B8"/>
<path d="M351.222 450.75L347.968 450.75L335.264 445.576L328.455 450.749H328.454C324.606 450.749 320.916 452.28 318.195 455.004C315.474 457.729 313.945 461.424 313.945 465.278V465.75L351.222 465.751L351.222 450.75Z" fill="#2F2E41"/>
<path d="M399.571 454.529L388.01 454.529L382.51 409.876L399.573 409.877L399.571 454.529Z" fill="#FFB8B8"/>
<path d="M402.52 450.75L399.266 450.75L386.562 445.576L379.753 450.749H379.752C375.904 450.749 372.213 452.28 369.492 455.004C366.771 457.729 365.243 461.424 365.242 465.278V465.75L402.519 465.751L402.52 450.75Z" fill="#2F2E41"/>
<path d="M417.199 262.193C417.199 262.193 418.549 278.414 415.174 293.96C411.799 309.505 411.799 353.287 411.799 353.287L404.374 438.601L382.1 436.574L376.026 293.96L354.427 341.948L356.452 348.707L353.755 350.397C353.755 350.397 355.777 363.577 354.427 363.577C353.077 363.577 349.702 365.605 349.702 365.605L352.402 435.222L329.453 434.546L321.354 336.541L330.128 280.442L330.803 269.628L333.84 269.753L335.387 265.234L338.228 257.462L417.199 262.193Z" fill="#2F2E41"/>
<path d="M418.365 265.6L418.486 265.431C424.91 256.424 415.248 234.78 413.79 231.643L419.929 229.648L418.546 217.882L417.891 212.637L422.583 207.939L422.596 207.822L425.296 184.166L429.222 168.453C430.701 162.514 430.575 156.287 428.856 150.412C427.138 144.537 423.889 139.226 419.444 135.023L410.37 126.456L399.343 110.117H381.56L375.462 121.65C369.551 123.018 364.306 126.42 360.641 131.262C356.977 136.105 355.124 142.081 355.408 148.15L356.79 178.398L351.38 216.059L351.376 222.875L345.288 229.65L346.618 236.307L341.984 238.295L339.938 247.855C339.092 248.974 333.503 256.436 333.503 258.476C333.503 258.782 333.729 259.078 334.213 259.406C338.022 261.989 359.072 267.254 368.389 263.521C378.313 259.547 417.763 265.508 418.16 265.569L418.365 265.6Z" fill="#46B20F"/>
<path d="M388.154 104.842C401.161 104.842 411.706 94.2836 411.706 81.2585C411.706 68.2335 401.161 57.6747 388.154 57.6747C375.147 57.6747 364.603 68.2335 364.603 81.2585C364.603 94.2836 375.147 104.842 388.154 104.842Z" fill="#FFB8B8"/>
<path d="M385.898 105.224C389.545 105.187 393.183 104.838 396.771 104.18C400.323 103.361 408.16 97.2924 410.296 93.7073C411.883 91.0437 412.836 86.9236 413.355 83.9366C414.057 79.9834 413.922 75.9267 412.958 72.0292C411.995 68.1317 410.225 64.4803 407.762 61.3113C406.813 59.9838 405.523 58.9378 404.029 58.284C403.897 58.2362 403.761 58.1943 403.624 58.1589C401.459 57.6478 399.495 56.5001 397.985 54.8633C397.692 54.5319 397.376 54.2221 397.038 53.9362C395.345 52.5784 393.354 51.6413 391.23 51.2013C387.798 50.3759 382.888 51.4102 376.638 54.2781C373.497 55.719 370.012 55.3171 367.326 54.8058C367.175 54.7807 367.021 54.7956 366.878 54.8488C366.734 54.9021 366.608 54.992 366.51 55.1095C365.401 56.2073 363.918 56.8442 362.359 56.8919C361.406 56.9586 360.438 58.3084 359.272 60.0661C359.007 60.4651 358.698 60.9308 358.474 61.215L358.429 60.6813L357.905 61.2915C357.08 62.2505 356.511 63.403 356.25 64.6416C355.99 65.8801 356.047 67.1645 356.416 68.3751C356.785 69.5857 357.454 70.6832 358.36 71.5653C359.266 72.4473 360.381 73.0854 361.6 73.42C362.567 73.651 363.555 73.7826 364.549 73.8127C365.152 73.8513 365.775 73.8912 366.373 73.9794C368.296 74.3221 370.097 75.1581 371.6 76.4058C373.104 77.6535 374.258 79.2703 374.951 81.0984C375.115 81.5208 375.374 81.8999 375.707 82.2065C376.04 82.5131 376.439 82.7388 376.873 82.8664C377.308 82.994 377.765 83.0199 378.211 82.9423C378.657 82.8646 379.079 82.6854 379.445 82.4184C380.053 81.9184 380.773 81.5731 381.543 81.412C382.313 81.2508 383.111 81.2787 383.868 81.4931C384.527 81.8378 385.047 82.3987 385.342 83.0818C385.698 83.8421 386.272 84.479 386.991 84.9112C389.443 86.0979 389.753 91.6282 389.003 96.2644C388.279 100.733 386.706 103.993 385.177 104.192C384 104.345 383.867 104.432 383.787 104.643L383.716 104.833L383.853 105.004C384.511 105.224 385.208 105.299 385.898 105.224Z" fill="#2F2E41"/>
<path d="M366.358 180.591L355.038 166.146C343.506 169.326 323.046 187.589 323.046 187.589L281.026 205.849C279.624 205.613 278.184 205.751 276.852 206.249C275.52 206.747 274.342 207.588 273.437 208.687C272.533 209.786 271.934 211.105 271.7 212.509C271.466 213.914 271.605 215.355 272.105 216.689C272.604 218.022 273.445 219.201 274.544 220.105C275.642 221.009 276.959 221.608 278.362 221.841C279.765 222.073 281.205 221.932 282.536 221.43C283.867 220.928 285.042 220.085 285.944 218.983L340.989 203.606L366.358 180.591Z" fill="#FFB8B8"/>
<path d="M363.645 183.893L381.507 163.953L382.499 149.825C382.684 147.05 382.09 144.28 380.784 141.826C379.479 139.371 377.514 137.332 375.111 135.937C371.842 134.069 367.987 133.513 364.324 134.383C360.661 135.252 357.465 137.482 355.382 140.621C349.07 150.146 342.28 163.025 345.774 170.286L345.809 170.359L363.645 183.893Z" fill="#46B20F"/>
<path d="M199.01 258.839L152.585 235.03C149.283 233.336 148.189 228.844 150.147 225.016L180.417 165.831C182.375 162.003 186.654 160.266 189.956 161.96L236.381 185.769C239.684 187.463 240.777 191.955 238.82 195.783L208.55 254.968C206.592 258.796 202.312 260.532 199.01 258.839Z" fill="#E6E6E6"/>
<path d="M191.078 247.893L159.536 231.717C156.444 230.131 155.419 225.924 157.252 222.339L182.4 173.169C184.234 169.584 188.242 167.958 191.334 169.544L229.43 189.082C232.523 190.668 233.548 194.874 231.714 198.46L218.052 225.171C209.885 241.14 204.854 254.959 191.078 247.893Z" fill="white"/>
<path d="M206.673 221.042L178.736 206.714C178.394 206.47 178.151 206.111 178.052 205.703C177.953 205.295 178.003 204.865 178.194 204.491C178.385 204.117 178.705 203.825 179.093 203.667C179.482 203.509 179.915 203.497 180.312 203.632L208.249 217.96C208.591 218.204 208.833 218.562 208.933 218.97C209.032 219.378 208.982 219.809 208.79 220.183C208.599 220.556 208.28 220.849 207.891 221.007C207.503 221.164 207.07 221.177 206.673 221.042Z" fill="#6C63FF"/>
<path d="M181.997 216.072L175.622 212.802C175.28 212.559 175.037 212.2 174.938 211.792C174.839 211.384 174.889 210.954 175.08 210.58C175.272 210.206 175.591 209.913 175.979 209.756C176.368 209.598 176.801 209.586 177.198 209.721L183.573 212.99C183.915 213.234 184.158 213.593 184.257 214.001C184.356 214.409 184.306 214.839 184.115 215.213C183.923 215.587 183.604 215.879 183.215 216.037C182.827 216.195 182.394 216.207 181.997 216.072Z" fill="#6C63FF"/>
<path d="M190.175 227.952L172.508 218.891C172.166 218.647 171.923 218.289 171.824 217.881C171.725 217.473 171.775 217.042 171.966 216.668C172.157 216.295 172.477 216.002 172.865 215.844C173.254 215.687 173.687 215.674 174.084 215.809L191.751 224.87C192.093 225.114 192.336 225.473 192.435 225.881C192.534 226.289 192.484 226.719 192.293 227.093C192.101 227.467 191.782 227.759 191.393 227.917C191.005 228.075 190.572 228.087 190.175 227.952V227.952Z" fill="#6C63FF"/>
<path d="M217.728 199.425L189.791 185.098C189.449 184.854 189.207 184.495 189.107 184.087C189.008 183.679 189.059 183.249 189.25 182.875C189.441 182.501 189.76 182.209 190.149 182.051C190.538 181.893 190.97 181.881 191.367 182.016L219.305 196.344C219.646 196.587 219.889 196.946 219.988 197.354C220.088 197.762 220.037 198.192 219.846 198.566C219.655 198.94 219.336 199.233 218.947 199.39C218.558 199.548 218.126 199.561 217.728 199.425Z" fill="#6C63FF"/>
<path d="M193.053 194.456L186.677 191.186C186.335 190.942 186.093 190.584 185.993 190.176C185.894 189.768 185.945 189.337 186.136 188.963C186.327 188.59 186.646 188.297 187.035 188.139C187.424 187.982 187.856 187.969 188.253 188.104L194.629 191.374C194.97 191.618 195.213 191.977 195.312 192.385C195.412 192.793 195.361 193.223 195.17 193.597C194.979 193.971 194.66 194.263 194.271 194.421C193.882 194.579 193.45 194.591 193.053 194.456Z" fill="#6C63FF"/>
<path d="M201.231 206.336L183.563 197.275C183.222 197.031 182.979 196.672 182.88 196.264C182.78 195.856 182.831 195.426 183.022 195.052C183.213 194.678 183.532 194.386 183.921 194.228C184.31 194.07 184.742 194.058 185.139 194.193L202.807 203.254C203.149 203.497 203.391 203.856 203.491 204.264C203.59 204.672 203.539 205.102 203.348 205.476C203.157 205.85 202.838 206.143 202.449 206.3C202.06 206.458 201.628 206.471 201.231 206.336L201.231 206.336Z" fill="#6C63FF"/>
<path d="M160.54 207.312L150.052 168.213L178.079 162.9L176.571 189.738L213.396 227.707C215.346 227.628 217.277 228.117 218.953 229.117C220.629 230.117 221.979 231.584 222.837 233.339C223.695 235.093 224.025 237.06 223.786 238.999C223.547 240.939 222.75 242.766 221.492 244.26C220.234 245.753 218.569 246.848 216.7 247.41C214.832 247.972 212.84 247.978 210.968 247.426C209.097 246.874 207.426 245.789 206.159 244.303C204.892 242.817 204.085 240.994 203.835 239.056L160.54 207.312Z" fill="#A0616A"/>
<path d="M147.184 124.375C137.671 131.896 149.881 173.963 149.881 173.963C151.771 171.885 153.968 202.59 156.279 201.545C162.846 198.573 174.883 188.327 179.524 189.162C182.178 189.64 179.397 168.852 179.397 168.852C179.397 168.852 178.886 156.933 177.925 141.611C177.733 137.274 176.449 133.056 174.192 129.35C171.935 125.644 168.778 122.57 165.015 120.414C165.015 120.414 156.697 116.855 147.184 124.375Z" fill="#FF6916"/>
<path d="M305.477 294.095L280.143 282.116C279.601 281.861 279.124 281.487 278.747 281.021C278.37 280.555 278.104 280.01 277.968 279.426C277.83 278.855 277.824 278.261 277.949 277.687C278.074 277.113 278.327 276.575 278.689 276.113C286.028 266.722 291.067 255.739 293.402 244.045C293.579 243.15 294.06 242.343 294.764 241.763C295.468 241.184 296.35 240.866 297.262 240.865C310.182 240.909 319.839 245.633 325.962 254.905C326.285 255.387 326.499 255.934 326.589 256.508C326.679 257.081 326.643 257.668 326.484 258.226C322.938 270.463 317.543 282.085 310.486 292.687C309.962 293.488 309.166 294.073 308.245 294.332C307.324 294.591 306.341 294.507 305.477 294.095Z" fill="#E6E6E6"/>
<path d="M312.929 277.293L293.559 268.134C293.077 267.906 292.705 267.496 292.525 266.993C292.345 266.491 292.372 265.938 292.6 265.455C292.827 264.972 293.237 264.6 293.739 264.42C294.24 264.24 294.793 264.267 295.275 264.495L314.645 273.654C314.884 273.767 315.098 273.926 315.275 274.122C315.453 274.317 315.59 274.546 315.679 274.795C315.768 275.043 315.807 275.307 315.794 275.571C315.782 275.835 315.717 276.094 315.604 276.333C315.492 276.572 315.333 276.786 315.138 276.964C314.942 277.142 314.714 277.279 314.465 277.368C314.217 277.457 313.953 277.496 313.69 277.484C313.426 277.471 313.168 277.406 312.929 277.293H312.929Z" fill="white"/>
<path d="M315.939 270.912L296.568 261.753C296.086 261.525 295.714 261.114 295.534 260.612C295.355 260.11 295.381 259.556 295.609 259.074C295.836 258.591 296.246 258.219 296.748 258.039C297.249 257.859 297.802 257.886 298.284 258.114L317.655 267.273C318.137 267.501 318.508 267.911 318.688 268.414C318.868 268.916 318.841 269.469 318.614 269.952C318.386 270.434 317.976 270.807 317.475 270.987C316.973 271.167 316.42 271.14 315.939 270.912V270.912Z" fill="white"/>
<path d="M290.055 70.5935L288.252 70.7913C280.212 39.1551 264.629 17.2378 243.186 7.40861C215.925 -5.08609 182.217 3.30434 148.27 31.0346C114.15 58.9065 83.9454 102.932 63.22 155.003L61.4705 154.201C82.2869 101.903 112.647 57.6646 146.958 29.6378C181.441 1.46929 215.837 -6.98266 243.81 5.8392C265.869 15.9501 281.86 38.3419 290.055 70.5935Z" fill="#F2F2F2"/>
<path d="M91.1244 111.796C86.409 121.743 81.9238 132.048 77.7935 142.425C54.0252 202.141 41.9804 263.126 42.9647 318.792L41.1071 318.593C40.1218 262.721 52.2012 201.525 76.0439 141.623C80.1861 131.217 84.684 120.883 89.413 110.907L91.1244 111.796Z" fill="#F2F2F2"/>
<path d="M90.2328 152.827C85.5174 162.774 81.0323 173.08 76.9019 183.457C53.1336 243.172 41.0888 304.158 42.0731 359.823L40.2155 359.625C39.2302 303.752 51.3096 242.557 75.1523 182.655C79.2946 172.249 83.7924 161.914 88.5214 151.939L90.2328 152.827Z" fill="#F2F2F2"/>
<path d="M40.3048 167.75C42.3583 164.659 41.1428 160.234 37.59 157.868C34.0372 155.501 29.4924 156.087 27.4389 159.178C25.3854 162.269 26.6008 166.693 30.1536 169.06C33.7065 171.427 38.2513 170.84 40.3048 167.75Z" fill="#CCCCCC"/>
<path d="M477.572 279.367C479.626 276.276 478.41 271.852 474.858 269.485C471.305 267.118 466.76 267.705 464.706 270.796C462.653 273.886 463.868 278.311 467.421 280.678C470.974 283.045 475.519 282.458 477.572 279.367Z" fill="#CCCCCC"/>
</g>
<defs>
<clipPath id="clip0_17_1676">
<rect width="575" height="467" fill="white"/>
</clipPath>
</defs>
</svg>
