<svg width="488" height="478" viewBox="0 0 488 478" fill="none" xmlns="http://www.w3.org/2000/svg">
<path fill-rule="evenodd" clip-rule="evenodd" d="M267.874 4.35671C321.161 -7.62661 381.809 6.41302 423.227 41.9723C463.551 76.5931 470.066 134.475 480.158 186.614C489.053 232.571 492.961 279.311 477.733 323.58C462.688 367.316 433.304 404.183 395.925 431.484C358.451 458.855 314.198 479.952 267.874 476.86C223.011 473.866 191.314 436.39 151.682 415.184C103.308 389.302 34.3936 388.302 10.3185 339.055C-13.8042 289.711 8.19906 227.361 36.9918 180.58C62.5477 139.059 117.434 131.616 156.21 102.02C196.507 71.2621 218.392 15.4843 267.874 4.35671Z" fill="#FF9F6A"/>
</svg>
