<svg width="198" height="190" viewBox="0 0 198 190" fill="none" xmlns="http://www.w3.org/2000/svg">
<path fill-rule="evenodd" clip-rule="evenodd" d="M12.2113 64.9741C21.7594 46.9147 42.1376 39.2468 59.4305 28.4432C74.5731 18.983 89.0929 9.4049 106.593 6.0097C126.802 2.08908 150.77 -5.31794 166.778 7.61707C182.841 20.597 175.778 46.5023 181.375 66.4374C186.374 84.2473 198.053 99.51 197.771 118.024C197.422 140.968 197.766 168.719 179.606 182.697C161.441 196.68 135.511 184.949 112.695 183.511C92.6328 182.246 72.5946 183.605 54.5186 174.813C34.279 164.969 13.2238 152.243 5.11174 131.182C-3.05395 109.982 1.57728 85.0873 12.2113 64.9741Z" fill="#F2FFEC"/>
</svg>
