<svg width="583" height="599" viewBox="0 0 583 599" fill="none" xmlns="http://www.w3.org/2000/svg">
<circle cx="319.5" cy="335.18" r="263.5" fill="#FFF0E7"/>
<g clip-path="url(#clip0_17_879)">
<path d="M289.885 64.8703C307.865 51.6292 333.18 46.5532 352.987 56.8831C330.688 66.5347 312.533 83.7379 301.733 105.449C297.599 113.837 293.876 123.596 285.345 127.473C280.037 129.885 273.773 129.419 268.276 127.472C262.779 125.524 257.89 122.214 253.069 118.94L251.623 118.767C260.203 98.189 271.904 78.1113 289.885 64.8703Z" fill="#F0F0F0"/>
<path d="M352.828 57.3226C334.334 57.9002 316.492 64.2722 301.838 75.5336C298.64 77.9021 295.836 80.7583 293.531 83.997C291.387 87.2243 290.149 90.9651 289.946 94.8305C289.684 98.4309 289.834 102.144 288.699 105.618C288.091 107.388 287.115 109.01 285.834 110.377C284.554 111.744 282.998 112.826 281.268 113.552C277.006 115.472 272.307 115.752 267.701 115.865C262.587 115.992 257.274 116.042 252.623 118.442C252.06 118.733 251.64 117.845 252.202 117.554C260.294 113.378 269.749 116.103 278.253 113.617C282.221 112.457 285.863 110.099 287.456 106.152C288.849 102.7 288.698 98.8714 288.932 95.2236C289.074 91.4498 290.142 87.7683 292.041 84.5006C294.174 81.1553 296.862 78.1962 299.991 75.75C306.947 70.1309 314.746 65.637 323.102 62.4329C332.618 58.7234 342.701 56.6641 352.914 56.344C353.546 56.3245 353.456 57.3031 352.828 57.3226V57.3226Z" fill="white"/>
<path d="M306.342 71.6304C304.781 68.9229 304.236 65.7502 304.804 62.6789C305.372 59.6076 307.017 56.8378 309.445 54.864C309.938 54.4663 310.581 55.2107 310.088 55.609C307.823 57.4428 306.291 60.0231 305.768 62.8841C305.245 65.7452 305.764 68.6985 307.233 71.2111C307.552 71.7575 306.659 72.1737 306.342 71.6304V71.6304Z" fill="white"/>
<path d="M289.838 92.9878C296.005 94.7063 302.596 94.0443 308.296 91.1336C308.861 90.8448 309.281 91.7333 308.717 92.0218C302.78 95.0397 295.919 95.7147 289.505 93.9123C288.894 93.74 289.23 92.8165 289.838 92.9878Z" fill="white"/>
<path d="M332.571 60.0248C332.957 61.1979 333.628 62.2572 334.525 63.1077C335.423 63.9582 336.518 64.5732 337.713 64.8974C338.326 65.0618 337.989 65.9852 337.38 65.8219C336.062 65.4576 334.853 64.7769 333.86 63.8395C332.866 62.902 332.118 61.7362 331.68 60.444C331.629 60.3257 331.625 60.1922 331.668 60.0708C331.712 59.9494 331.8 59.8491 331.916 59.7903C332.034 59.7354 332.169 59.7292 332.292 59.7731C332.415 59.817 332.515 59.9074 332.571 60.0248H332.571Z" fill="white"/>
<path d="M368.692 130.692C368.306 130.6 367.92 130.509 367.528 130.422C362.335 129.215 357.052 128.43 351.731 128.075C351.32 128.041 350.903 128.013 350.492 127.991C337.664 127.273 324.814 128.935 312.595 132.893C307.734 134.473 303.001 136.419 298.436 138.714C292.132 141.885 285.55 145.822 278.764 146.705C278.057 146.805 277.344 146.862 276.63 146.874L251.523 120.538C251.496 120.45 251.463 120.367 251.435 120.278L250.385 119.272C250.612 119.138 250.85 119.003 251.077 118.868C251.209 118.789 251.346 118.716 251.477 118.638C251.567 118.587 251.656 118.537 251.734 118.486C251.764 118.469 251.794 118.452 251.817 118.441C251.895 118.39 251.973 118.351 252.045 118.306C253.376 117.548 254.714 116.798 256.06 116.057C256.066 116.051 256.066 116.051 256.078 116.051C266.35 110.425 277.183 105.604 288.406 102.576C288.744 102.485 289.088 102.388 289.437 102.309C294.503 100.972 299.671 100.05 304.888 99.5524C307.745 99.289 310.614 99.17 313.484 99.1958C320.899 99.2768 328.255 100.52 335.282 102.879C349.29 107.585 361.632 116.705 368.2 129.695C368.367 130.027 368.53 130.354 368.692 130.692Z" fill="#F0F0F0"/>
<path d="M368.3 130.951C353.185 120.312 335.091 114.692 316.589 114.888C312.605 114.86 308.642 115.458 304.844 116.66C301.184 117.95 297.936 120.194 295.439 123.158C293.056 125.875 290.933 128.93 287.928 131.023C286.374 132.071 284.615 132.78 282.767 133.103C280.919 133.427 279.023 133.357 277.204 132.898C272.641 131.873 268.72 129.275 264.974 126.602C260.815 123.634 256.542 120.485 251.379 119.61C250.753 119.504 250.955 118.543 251.579 118.648C260.562 120.17 266.466 128.021 274.757 131.14C278.626 132.596 282.958 132.898 286.614 130.703C289.811 128.784 292.002 125.635 294.392 122.863C296.785 119.936 299.861 117.637 303.351 116.168C307.074 114.777 311.008 114.028 314.984 113.952C323.931 113.641 332.872 114.733 341.479 117.19C351.318 119.94 360.612 124.348 368.96 130.222C369.476 130.586 368.813 131.313 368.3 130.951L368.3 130.951Z" fill="white"/>
<path d="M322.543 114.475C322.931 111.376 324.412 108.515 326.721 106.404C329.029 104.293 332.016 103.069 335.146 102.95C335.78 102.928 335.844 103.909 335.209 103.93C332.294 104.036 329.512 105.176 327.366 107.147C325.22 109.117 323.852 111.787 323.507 114.675C323.432 115.302 322.467 115.099 322.543 114.475H322.543Z" fill="white"/>
<path d="M296.466 121.621C300.353 126.695 306.015 130.123 312.324 131.22C312.949 131.328 312.748 132.289 312.123 132.181C305.56 131.027 299.675 127.449 295.642 122.16C295.258 121.655 296.084 121.12 296.466 121.621V121.621Z" fill="white"/>
<path d="M350.494 120.951C350.093 122.119 349.99 123.368 350.193 124.586C350.396 125.803 350.899 126.952 351.657 127.928C352.047 128.427 351.221 128.962 350.833 128.466C350 127.384 349.446 126.115 349.219 124.77C348.992 123.425 349.099 122.045 349.53 120.751C349.56 120.626 349.637 120.517 349.746 120.446C349.854 120.375 349.985 120.348 350.112 120.37C350.24 120.397 350.352 120.474 350.423 120.582C350.495 120.691 350.52 120.824 350.494 120.951V120.951Z" fill="white"/>
<path d="M285.14 84.5688H283.195V31.4335C283.195 27.3949 282.397 23.3959 280.846 19.6647C279.296 15.9335 277.024 12.5433 274.159 9.68761C271.294 6.8319 267.894 4.56664 264.151 3.02114C260.408 1.47564 256.396 0.680178 252.345 0.680176H139.419C135.367 0.680167 131.356 1.47561 127.613 3.0211C123.87 4.56659 120.469 6.83185 117.605 9.68755C114.74 12.5432 112.468 15.9335 110.917 19.6646C109.367 23.3958 108.569 27.3948 108.569 31.4334V322.938C108.569 331.094 111.819 338.916 117.605 344.684C123.39 350.451 131.237 353.691 139.419 353.691H252.345C260.527 353.691 268.374 350.451 274.159 344.684C279.944 338.917 283.195 331.094 283.195 322.938V122.391H285.14V84.5688Z" fill="#3F3D56"/>
<path d="M253.59 8.68118H238.849C239.527 10.3379 239.786 12.1355 239.603 13.9154C239.42 15.6954 238.8 17.4031 237.799 18.8882C236.798 20.3733 235.446 21.5901 233.862 22.4315C232.278 23.2729 230.51 23.7131 228.715 23.7132H164.021C162.226 23.7131 160.459 23.2729 158.875 22.4315C157.291 21.5901 155.939 20.3733 154.938 18.8882C153.936 17.4031 153.317 15.6954 153.134 13.9154C152.951 12.1355 153.209 10.3379 153.887 8.68115H140.12C134.01 8.68115 128.15 11.1008 123.829 15.4078C119.509 19.7148 117.081 25.5563 117.081 31.6473V322.724C117.081 325.74 117.677 328.727 118.835 331.513C119.993 334.299 121.69 336.831 123.829 338.964C125.968 341.096 128.508 342.788 131.303 343.942C134.098 345.096 137.094 345.69 140.12 345.69H253.59C256.615 345.69 259.611 345.096 262.406 343.942C265.201 342.788 267.741 341.096 269.88 338.964C272.02 336.831 273.717 334.299 274.874 331.513C276.032 328.727 276.628 325.74 276.628 322.724V31.6473C276.628 25.5563 274.201 19.7148 269.88 15.4078C265.56 11.1008 259.7 8.68117 253.59 8.68118Z" fill="white"/>
<path d="M199.035 252.185C190.679 252.193 182.404 250.558 174.683 247.374C166.961 244.19 159.946 239.519 154.037 233.629C148.129 227.739 143.444 220.746 140.25 213.048C137.055 205.351 135.415 197.102 135.423 188.772C135.411 177.075 138.65 165.604 144.779 155.63C150.908 145.656 159.688 137.569 170.146 132.267C177.727 128.422 186.003 126.128 194.487 125.521C202.971 124.914 211.491 126.006 219.545 128.732C233.808 133.578 245.883 143.313 253.619 156.205C261.356 169.096 264.25 184.306 261.788 199.126C259.326 213.946 251.667 227.414 240.175 237.131C228.683 246.848 214.104 252.183 199.035 252.185L199.035 252.185ZM199.035 127.845C189.385 127.817 179.868 130.092 171.281 134.482C163.774 138.294 157.14 143.612 151.793 150.102C146.447 156.592 142.504 164.114 140.212 172.195C137.92 180.276 137.329 188.743 138.476 197.062C139.622 205.382 142.482 213.376 146.875 220.542C151.268 227.708 157.099 233.891 164.003 238.703C170.907 243.515 178.735 246.853 186.994 248.506C195.254 250.159 203.767 250.093 211.999 248.31C220.231 246.528 228.005 243.068 234.832 238.148C238.133 235.773 241.185 233.074 243.943 230.089C252.008 221.39 257.353 210.535 259.325 198.854C261.296 187.173 259.808 175.173 255.042 164.322C250.276 153.471 242.439 144.241 232.492 137.762C222.544 131.284 210.917 127.837 199.035 127.845Z" fill="#F0F0F0"/>
<path d="M61.1976 132.494C62.9437 132.713 64.6205 133.31 66.11 134.244C67.5995 135.178 68.8654 136.427 69.8185 137.901C70.7717 139.376 71.3889 141.041 71.6267 142.779C71.8645 144.517 71.7172 146.286 71.195 147.961L92.33 165.511L84.7642 180.916L55.2666 155.714C52.5016 154.653 50.2232 152.618 48.8629 149.994C47.5027 147.37 47.1552 144.34 47.8862 141.478C48.6173 138.616 50.3762 136.121 52.8296 134.465C55.283 132.809 58.2604 132.108 61.1976 132.494L61.1976 132.494Z" fill="#FFB6B6"/>
<path d="M258.589 205.682C258.165 201.14 256.413 192.975 254.926 189.955C250.355 178.029 220.821 168.226 216.855 166.963L215.849 155.814L174.813 151.412L169.607 165.67L154.889 171.174C153.89 171.545 152.986 172.133 152.241 172.894C151.496 173.655 150.93 174.57 150.582 175.575L137.377 179.38L124.347 183.135L79.0791 151.337L76.9418 152.73L62.6564 162.022L60.4525 163.456L119.034 216.143L140.795 211.054L157.159 207.216L158.556 212.869L154.939 232.73C165.418 243.181 179.29 249.567 194.065 250.745C208.84 251.922 223.553 247.813 235.564 239.155L244.86 230.932C251.34 223.948 256.122 215.573 258.838 206.453L258.589 205.682Z" fill="#FF6916"/>
<path d="M208.224 142.294C223.715 137.181 232.115 120.517 226.986 105.075C221.857 89.6322 205.142 81.2583 189.651 86.3712C174.16 91.4841 165.76 108.148 170.889 123.59C176.017 139.033 192.733 147.407 208.224 142.294Z" fill="#FFB6B6"/>
<path d="M175.599 80.754C178.472 76.6648 182.782 73.8024 187.674 72.7359C192.512 71.7441 197.546 72.6647 201.715 75.3032C206.248 73.4827 211.136 72.2749 215.939 72.8889C220.741 73.5029 225.448 76.177 227.67 80.5825C228.137 81.7237 228.704 82.8217 229.365 83.864C231.323 86.4677 234.961 86.8055 238.174 86.9306C236.549 87.8751 234.925 88.8195 233.3 89.7639C234.919 90.5161 236.538 91.2683 238.158 92.0205C235.954 92.8592 233.75 93.6979 231.546 94.5366C236.676 99.0313 237.916 107.03 235.974 113.737C234.135 120.086 229.92 125.432 225.212 130.008C224.293 126.593 225.304 122.891 225.977 119.356C226.687 115.621 226.801 111.253 224.177 108.616C222.408 106.837 219.812 106.3 217.364 105.868C205.016 103.691 192.555 102.216 180.04 101.45C178.364 101.22 176.658 101.393 175.065 101.957C172.019 103.306 170.795 107.011 169.913 110.297C169.49 104.53 169.828 98.7326 170.917 93.0534C171.752 88.7068 173.067 84.3562 175.599 80.754Z" fill="#2F2E41"/>
<path d="M214.003 282.062H179.078C177.865 282.062 176.702 281.582 175.845 280.727C174.987 279.872 174.505 278.712 174.505 277.503C174.505 276.294 174.987 275.134 175.845 274.279C176.702 273.424 177.865 272.944 179.078 272.944H214.003C215.215 272.944 216.379 273.424 217.236 274.279C218.094 275.134 218.576 276.294 218.576 277.503C218.576 278.712 218.094 279.872 217.236 280.727C216.379 281.582 215.215 282.062 214.003 282.062Z" fill="#46B20F"/>
<path d="M99.4028 38.0862H3.34094C2.45573 38.0848 1.60723 37.7333 0.981788 37.1088C0.356344 36.4843 0.00505829 35.638 0.00505829 34.7555C0.00505829 33.8731 0.356344 33.0267 0.981788 32.4022C1.60723 31.7777 2.45573 31.4262 3.34094 31.4248H99.4028C100.289 31.4248 101.139 31.7757 101.765 32.4003C102.392 33.025 102.744 33.8722 102.744 34.7555C102.744 35.6389 102.392 36.4861 101.765 37.1107C101.139 37.7353 100.289 38.0862 99.4028 38.0862Z" fill="#46B20F"/>
<path d="M154.866 59.3593H3.34094C2.45487 59.3593 1.60509 59.0084 0.978539 58.3838C0.351993 57.7592 7.62939e-06 56.9121 7.62939e-06 56.0288C7.62939e-06 55.1454 0.351993 54.2983 0.978539 53.6737C1.60509 53.0491 2.45487 52.6982 3.34094 52.6982H154.866C155.752 52.6982 156.602 53.0491 157.228 53.6737C157.855 54.2983 158.207 55.1454 158.207 56.0288C158.207 56.9121 157.855 57.7592 157.228 58.3838C156.602 59.0084 155.752 59.3593 154.866 59.3593Z" fill="#46B20F"/>
<path d="M125.748 79.4003H3.34096C2.45489 79.4003 1.60511 79.0494 0.978562 78.4248C0.352017 77.8002 3.05176e-05 76.9531 3.05176e-05 76.0698C3.05176e-05 75.1865 0.352017 74.3393 0.978562 73.7147C1.60511 73.0901 2.45489 72.7393 3.34096 72.7393H125.748C126.634 72.7393 127.483 73.0901 128.11 73.7147C128.737 74.3393 129.089 75.1865 129.089 76.0698C129.089 76.9531 128.737 77.8002 128.11 78.4248C127.483 79.0494 126.634 79.4003 125.748 79.4003Z" fill="#CACACA"/>
<path d="M72.3652 99.368H3.34096C2.45489 99.368 1.60511 99.0172 0.978562 98.3926C0.352017 97.768 3.05176e-05 96.9208 3.05176e-05 96.0375C3.05176e-05 95.1542 0.352017 94.3071 0.978562 93.6825C1.60511 93.0579 2.45489 92.707 3.34096 92.707H72.3652C73.2513 92.707 74.101 93.0579 74.7276 93.6825C75.3541 94.3071 75.7061 95.1542 75.7061 96.0375C75.7061 96.9208 75.3541 97.768 74.7276 98.3926C74.101 99.0172 73.2513 99.368 72.3652 99.368Z" fill="#CACACA"/>
<path d="M110.496 119.334H3.34091C2.45575 119.333 1.60734 118.981 0.981936 118.357C0.356528 117.733 0.00525665 116.886 0.00525665 116.004C0.00525665 115.121 0.356528 114.275 0.981936 113.651C1.60734 113.026 2.45575 112.675 3.34091 112.673H110.496C111.381 112.675 112.229 113.026 112.855 113.651C113.48 114.275 113.831 115.121 113.831 116.004C113.831 116.886 113.48 117.733 112.855 118.357C112.229 118.981 111.381 119.333 110.496 119.334Z" fill="#CACACA"/>
<path d="M412.487 445.177L403.878 445.176L399.782 412.07L412.489 412.071L412.487 445.177Z" fill="#9F616A"/>
<path d="M415.875 457.055L383.004 457.054V456.639C383.004 453.257 384.352 450.013 386.752 447.621C389.151 445.229 392.405 443.885 395.798 443.885H395.799L401.803 439.344L413.006 443.886L415.875 443.886L415.875 457.055Z" fill="#2F2E41"/>
<path d="M407.471 289.586L403.674 243.431L400.69 226.108L417.392 222.431L422.935 246.148L418.106 290.867C419.08 292.056 419.675 293.509 419.814 295.039C419.953 296.568 419.631 298.104 418.888 299.45C418.145 300.795 417.015 301.888 415.644 302.588C414.273 303.289 412.724 303.565 411.194 303.381C409.665 303.196 408.226 302.561 407.061 301.555C405.897 300.549 405.061 299.219 404.661 297.736C404.261 296.253 404.314 294.685 404.815 293.232C405.316 291.78 406.241 290.51 407.471 289.586H407.471Z" fill="#9F616A"/>
<path d="M366.753 445.177L358.144 445.176L354.048 412.07L366.755 412.071L366.753 445.177Z" fill="#9F616A"/>
<path d="M352.975 300.049L349.158 306.631C349.158 306.631 344.964 307.773 346.334 321.401C347.705 335.03 347.764 415.775 354.399 425.711L355.599 434.243L368.128 435.436L368.444 427.866L383.382 322.687C383.382 322.687 392.181 425.939 399.459 428.466L402.087 437.068L413.569 437.073L412.891 426.936L413.631 298.982L352.975 300.049Z" fill="#2F2E41"/>
<path d="M348.778 306.129L348.514 306.061C356.392 276.687 354.12 238.65 348.557 197.805L348.557 197.636L368.667 179.274H386.129L403.439 190.411C414.631 195.989 417.174 207.801 417.198 207.92L417.216 208.004L410.359 231.864L415.524 300.868L415.53 300.948L415.501 301.022C413.829 305.248 409.349 304.646 404.162 303.949C398.983 303.253 379.901 309.617 374.05 309.617C362.615 309.617 349.595 306.338 348.778 306.129Z" fill="#46B20F"/>
<path d="M399.814 199.711L407.316 196.458L417.199 208.537L425.211 247.247L397.77 243.102L399.814 199.711Z" fill="#46B20F"/>
<path d="M284.432 271.091L318.725 239.852L330.643 226.899L343.782 237.817L328.357 256.7L289.924 280.26C289.576 281.756 288.788 283.114 287.66 284.16C286.531 285.206 285.115 285.891 283.593 286.129C282.071 286.366 280.513 286.145 279.118 285.493C277.723 284.84 276.556 283.787 275.766 282.469C274.977 281.15 274.6 279.626 274.686 278.093C274.771 276.56 275.315 275.087 276.246 273.864C277.178 272.641 278.455 271.723 279.914 271.229C281.372 270.735 282.946 270.687 284.432 271.091L284.432 271.091Z" fill="#9F616A"/>
<path d="M317.978 240.193L327.476 227.897C327.555 227.72 335.435 210.166 342.266 202.539C349.272 194.714 354.789 198.716 354.844 198.759L354.981 198.862L355.362 227.756L329.063 259.083L317.978 240.193Z" fill="#46B20F"/>
<path d="M391.466 161.979C392.883 153.28 386.956 145.083 378.23 143.672C369.503 142.26 361.281 148.168 359.865 156.867C358.449 165.566 364.375 173.763 373.102 175.175C381.828 176.586 390.05 170.679 391.466 161.979Z" fill="#9F616A"/>
<path d="M361.031 157.054C361.031 157.054 360.903 151.444 360.192 148.962C359.48 146.48 358.057 144.352 358.769 144.352C359.48 144.352 359.836 142.579 359.836 142.579C359.836 142.579 360.547 142.224 360.903 142.579C361.259 142.934 361.615 140.097 361.615 140.097C361.615 140.097 361.97 139.033 362.326 139.742C362.682 140.451 362.682 140.097 363.037 139.033C363.393 137.969 365.172 137.26 365.172 137.26C365.172 137.26 371.931 137.614 372.998 136.196C374.065 134.777 386.159 135.841 388.649 137.614C391.14 139.387 402.167 145.77 400.388 151.09C398.61 156.409 393.49 168.656 392.207 169.884C390.178 171.826 388.773 172.526 379.173 174.43C377.294 174.803 367.705 168.689 367.705 167.625C367.705 166.561 368.861 163.188 367.002 162.725C364.193 162.024 363.877 165.565 363.166 164.501C362.454 163.437 361.031 157.054 361.031 157.054Z" fill="#2F2E41"/>
<path d="M370.141 457.055L337.27 457.054V456.639C337.27 453.257 338.618 450.013 341.018 447.621C343.417 445.229 346.671 443.885 350.064 443.885H350.065L356.069 439.344L367.272 443.886L370.141 443.886L370.141 457.055Z" fill="#2F2E41"/>
<path d="M541.01 457.68H2.76733C2.50474 457.68 2.25293 457.576 2.06725 457.391C1.88157 457.206 1.77725 456.955 1.77725 456.693C1.77725 456.431 1.88157 456.18 2.06725 455.995C2.25293 455.81 2.50474 455.706 2.76733 455.706H541.01C541.273 455.706 541.524 455.81 541.71 455.995C541.896 456.18 542 456.431 542 456.693C542 456.955 541.896 457.206 541.71 457.391C541.524 457.576 541.273 457.68 541.01 457.68Z" fill="#CACACA"/>
</g>
<defs>
<clipPath id="clip0_17_879">
<rect width="542" height="457" fill="white" transform="translate(0 0.680176)"/>
</clipPath>
</defs>
</svg>
