<svg width="134" height="105" viewBox="0 0 134 105" fill="none" xmlns="http://www.w3.org/2000/svg">
<path opacity="0.5" d="M78.4685 71.4517C78.4685 50.6817 85.3093 31.6258 98.991 14.284C107.643 3.79817 114.584 -0.738954 119.815 0.672594C124.644 2.48744 127.059 5.20971 127.059 8.83941C127.059 12.2675 125.449 15.8972 122.23 19.7285C119.212 23.5598 116.797 26.6854 114.986 29.1052C113.176 31.525 111.667 34.1465 110.459 36.9695C107.643 42.6157 106.234 49.4718 106.234 57.5378C111.063 56.1263 115.892 56.7312 120.721 59.3527C129.574 64.3939 134 70.8467 134 78.711C134 86.3737 131.586 92.6249 126.757 97.4645C122.129 102.102 115.691 104.421 107.441 104.421C99.1922 104.421 92.2508 101.296 86.6171 95.0447C81.1847 88.5919 78.4685 80.7275 78.4685 71.4517ZM0 71.4517C0 49.8751 6.74024 30.8192 20.2207 14.284C30.482 1.98332 39.033 -1.7472 45.8739 3.09239C47.2823 4.10064 47.9865 5.71384 47.9865 7.93198C47.9865 11.965 46.4775 15.8972 43.4595 19.7285C40.6426 23.5598 38.3288 26.6854 36.518 29.1052C34.7072 31.525 33.1982 34.1465 31.991 36.9695C29.1742 42.6157 27.7658 49.4718 27.7658 57.5378C32.5946 56.1263 37.3228 56.7312 41.9505 59.3527C50.6021 64.3939 54.9279 70.8467 54.9279 78.711C54.9279 86.3737 52.6141 92.6249 47.9865 97.4645C43.3589 102.102 36.9204 104.421 28.6712 104.421C20.4219 104.421 13.5811 101.296 8.14865 95.0447C2.71622 88.5919 0 80.7275 0 71.4517Z" fill="white"/>
</svg>
