<svg width="134" height="105" viewBox="0 0 134 105" fill="none" xmlns="http://www.w3.org/2000/svg">
<path opacity="0.5" d="M55.5315 33.3911C55.5315 54.161 48.6907 73.2169 35.009 90.5588C26.3574 101.045 19.4159 105.582 14.1847 104.17C9.35585 102.355 6.94144 99.633 6.94144 96.0034C6.94144 92.5753 8.55105 88.9456 11.7703 85.1143C14.7883 81.2829 17.2027 78.1574 19.0135 75.7376C20.8243 73.3178 22.3333 70.6963 23.5405 67.8732C26.3574 62.227 27.7658 55.3709 27.7658 47.3049C22.9369 48.7165 18.1081 48.1115 13.2793 45.4901C4.42643 40.4488 6.15678e-06 33.9961 6.8443e-06 26.1317C7.51419e-06 18.469 2.41442 12.2179 7.24325 7.37829C11.8709 2.74035 18.3093 0.421377 26.5586 0.421377C34.8078 0.421378 41.7493 3.54695 47.3829 9.79809C52.8153 16.2509 55.5315 24.1152 55.5315 33.3911ZM134 33.3911C134 54.9676 127.26 74.0235 113.779 90.5588C103.518 102.859 94.967 106.59 88.1261 101.75C86.7177 100.742 86.0135 99.1289 86.0135 96.9108C86.0135 92.8778 87.5225 88.9456 90.5405 85.1143C93.3574 81.2829 95.6712 78.1574 97.482 75.7376C99.2928 73.3178 100.802 70.6963 102.009 67.8732C104.826 62.227 106.234 55.3709 106.234 47.3049C101.405 48.7165 96.6772 48.1115 92.0496 45.4901C83.3979 40.4489 79.0721 33.9961 79.0721 26.1317C79.0721 18.469 81.3859 12.2179 86.0135 7.3783C90.6411 2.74035 97.0796 0.421383 105.329 0.421384C113.578 0.421385 120.419 3.54696 125.851 9.79809C131.284 16.2509 134 24.1152 134 33.3911Z" fill="white"/>
</svg>
