<svg width="20" height="21" viewBox="0 0 20 21" fill="none" xmlns="http://www.w3.org/2000/svg">
<path d="M1.66846 10.4186C1.66943 14.5181 4.65046 18.0086 8.69929 18.6511V12.8269H6.58512V10.4186H8.70179V8.58528C8.60717 7.71656 8.90389 6.85077 9.51149 6.22272C10.1191 5.59467 10.9746 5.26946 11.846 5.33528C12.4714 5.34538 13.0953 5.40109 13.7126 5.50195V7.55111H12.6593C12.2967 7.50362 11.9321 7.62338 11.6683 7.87667C11.4044 8.12996 11.2699 8.48935 11.3026 8.85361V10.4186H13.6118L13.2426 12.8278H11.3026V18.6511C15.6814 17.9591 18.7519 13.9601 18.2897 9.55118C17.8276 5.14226 13.9945 1.86689 9.56748 2.09793C5.14043 2.32897 1.66916 5.98554 1.66846 10.4186Z" fill="#2C2C2C"/>
</svg>
