<svg width="19" height="19" viewBox="0 0 19 19" fill="none" xmlns="http://www.w3.org/2000/svg">
<path d="M3.9972 1.77783C7.77659 1.77783 11.5564 1.77783 15.3358 1.77783C15.3582 1.78717 15.3799 1.80137 15.4034 1.80511C16.5089 1.98448 17.3026 2.89775 17.3034 4.00907C17.306 7.61434 17.3064 11.2196 17.3034 14.8245C17.3023 16.0584 16.3097 17.0512 15.0757 17.0524C11.47 17.0554 7.86442 17.0595 4.25917 17.0494C3.33011 17.0468 2.65219 16.5916 2.24297 15.7606C2.13983 15.5506 2.09797 15.3106 2.02771 15.0846C2.02771 11.3055 2.02771 7.52615 2.02771 3.74712C2.03705 3.72433 2.05088 3.70266 2.05499 3.67912C2.18878 2.88579 2.62379 2.31668 3.34917 1.97925C3.55247 1.88508 3.78044 1.8436 3.9972 1.77783ZM9.55698 5.36516C7.23358 5.45036 5.44946 7.47757 5.69649 9.81905C5.91623 11.9031 7.78893 13.6227 10.1258 13.3851C12.2033 13.1736 13.9362 11.3022 13.6951 8.96071C13.478 6.85577 11.6569 5.29416 9.55698 5.36516ZM15.5129 4.93169C15.5021 4.22955 15.0095 3.59952 14.1967 3.57598C13.5046 3.55617 12.8633 4.06176 12.8375 4.88236C12.815 5.58787 13.3364 6.22799 14.1548 6.24555C14.8653 6.26087 15.4677 5.73697 15.5129 4.93169Z" fill="#2C2C2C"/>
<path d="M9.70283 6.25391C11.4339 6.25653 12.8346 7.66605 12.829 9.39992C12.8234 11.1241 11.4171 12.5209 9.69013 12.5183C7.95907 12.5157 6.55838 11.1061 6.56398 9.37227C6.56959 7.64811 7.97589 6.25129 9.70283 6.25391Z" fill="#2C2C2C"/>
<path d="M14.1694 5.35734C13.9175 5.35622 13.7213 5.15406 13.7258 4.90033C13.7299 4.65557 13.9283 4.46275 14.1754 4.46387C14.4272 4.46499 14.6234 4.66715 14.619 4.92088C14.6148 5.16564 14.416 5.35846 14.1694 5.35734Z" fill="#2C2C2C"/>
</svg>
