<svg width="23" height="23" viewBox="0 0 23 23" fill="none" xmlns="http://www.w3.org/2000/svg">
<path d="M11.5056 18.1277H11.4869C11.429 18.1277 5.63956 18.1165 4.1789 17.7198C3.37569 17.5034 2.74842 16.8758 2.5325 16.0725C2.26984 14.5907 2.143 13.088 2.15356 11.5831C2.14678 10.0758 2.27705 8.571 2.54276 7.08727C2.76462 6.28322 3.38914 5.65269 4.19103 5.42314C5.61156 5.0498 11.2414 5.0498 11.4804 5.0498H11.5C11.5588 5.0498 17.3632 5.061 18.8089 5.45767C19.6104 5.67515 20.2364 6.30149 20.4534 7.10314C20.7244 8.59044 20.8517 10.1004 20.8333 11.6121C20.8398 13.1176 20.7093 14.6205 20.4432 16.1023C20.2244 16.9047 19.5968 17.5309 18.794 17.7478C17.3753 18.1239 11.7445 18.1277 11.5056 18.1277ZM9.6389 8.78781L9.63423 14.3878L14.4988 11.5878L9.6389 8.78781Z" fill="#2C2C2C"/>
</svg>
