<svg width="24" height="24" viewBox="0 0 24 24" fill="none" xmlns="http://www.w3.org/2000/svg">
<path d="M11.999 22C7.05569 21.9349 3.06417 17.9433 2.99902 13C3.06417 8.05669 7.05569 4.06517 11.999 4.00002C16.9423 4.06517 20.9339 8.05669 20.999 13C20.9339 17.9433 16.9423 21.9349 11.999 22ZM11.999 6.00002C8.15418 6.05063 5.04963 9.15518 4.99902 13C5.04963 16.8448 8.15418 19.9494 11.999 20C15.8438 19.9494 18.9484 16.8448 18.999 13C18.9484 9.15518 15.8438 6.05063 11.999 6.00002ZM16.999 14H10.999V8.00002H12.999V12H16.999V14ZM20.291 6.70802L17.282 3.70802L18.691 2.29102L21.701 5.29102L20.291 6.70702V6.70802ZM3.70602 6.70802L2.29102 5.29102L5.28202 2.29102L6.69702 3.70802L3.70802 6.70802H3.70602Z" fill="#FF6916"/>
</svg>
