<svg width="24" height="25" viewBox="0 0 24 25" fill="none" xmlns="http://www.w3.org/2000/svg">
<path d="M19 22.6802H5C3.89543 22.6802 3 21.7847 3 20.6802V6.68018C3 5.57561 3.89543 4.68018 5 4.68018H7V2.68018H9V4.68018H15V2.68018H17V4.68018H19C20.1046 4.68018 21 5.57561 21 6.68018V20.6802C21 21.7847 20.1046 22.6802 19 22.6802ZM5 10.6802V20.6802H19V10.6802H5ZM5 6.68018V8.68018H19V6.68018H5ZM17 18.6802H15V16.6802H17V18.6802ZM13 18.6802H11V16.6802H13V18.6802ZM9 18.6802H7V16.6802H9V18.6802ZM17 14.6802H15V12.6802H17V14.6802ZM13 14.6802H11V12.6802H13V14.6802ZM9 14.6802H7V12.6802H9V14.6802Z" fill="#B7B7B7"/>
</svg>
