<svg width="67" height="68" viewBox="0 0 67 68" fill="none" xmlns="http://www.w3.org/2000/svg">
<path d="M33.2515 4.94067C40.6355 9.2671 48.4187 12.6589 56.6692 14.9614C57.7493 15.2616 57.9907 15.5958 57.9876 16.7223C57.9752 21.4696 58.0587 26.22 57.9102 30.9611C57.7307 36.6832 56.1988 42.0773 53.3888 47.0815C49.9134 53.2741 45.0052 58.0523 38.8498 61.5524C37.191 62.4963 35.4673 63.3257 33.5578 63.6692C32.3664 63.8828 31.2863 63.499 30.2186 63.0874C26.7185 61.735 23.6392 59.677 20.8045 57.257C16.4626 53.5495 13.0893 49.1055 10.8209 43.8444C9.52112 40.8302 8.58342 37.7045 8.23062 34.4396C7.99542 32.2361 7.87782 30.0172 7.84068 27.8014C7.77879 24.128 7.82212 20.4514 7.82212 16.778C7.82212 15.5772 8.04494 15.2709 9.20236 14.949C17.1001 12.7518 24.5862 9.57657 31.667 5.4513C31.964 5.278 32.2611 5.11398 32.5613 4.94377C32.7903 4.94067 33.0194 4.94067 33.2515 4.94067ZM10.3041 24.5736C10.2793 24.5736 10.2515 24.5767 10.2267 24.5767C10.3165 27.1577 10.335 29.7418 10.5083 32.3166C10.7961 36.5749 11.9629 40.6135 13.8506 44.4417C15.9612 48.7279 18.9012 52.3673 22.5251 55.4527C25.069 57.6159 27.8481 59.4295 30.949 60.7261C32.1683 61.2368 33.3598 61.4225 34.5977 60.8283C35.1299 60.5714 35.6901 60.3733 36.2193 60.1103C41.0006 57.7521 45.0052 54.4284 48.2949 50.2505C52.643 44.7233 55.0352 38.407 55.3849 31.4067C55.6139 26.8235 55.4777 22.2247 55.518 17.6321C55.5211 17.3258 55.4066 17.1927 55.1249 17.1122C54.1718 16.8368 53.2217 16.5552 52.2778 16.2488C45.7015 14.1072 39.4069 11.3282 33.4031 7.89613C33.0751 7.70736 32.8213 7.65784 32.4623 7.86519C25.6199 11.8141 18.3999 14.8902 10.8054 17.0813C10.3845 17.202 10.2917 17.4 10.2948 17.7992C10.3134 20.0553 10.3041 22.3144 10.3041 24.5736Z" fill="#FF8440"/>
<path d="M29.0583 36.3211C29.1883 36.1323 29.2935 35.9157 29.4544 35.7547C33.3321 31.8647 37.2222 27.987 41.0999 24.0938C42.344 22.8466 43.7892 22.3763 45.4882 22.9271C48.0754 23.7658 49.0471 27.0338 47.3574 29.1661C47.1686 29.4044 46.9644 29.6365 46.7478 29.85C41.8643 34.7397 36.9777 39.6262 32.0912 44.5128C30.0981 46.5058 27.7771 46.5089 25.7903 44.5221C23.5002 42.2351 21.207 39.9543 18.9293 37.658C17.2922 36.0054 17.1591 33.7525 18.5703 32.072C19.9784 30.3916 22.5254 30.11 24.1594 31.5707C25.6263 32.8828 26.9787 34.325 28.3744 35.7176C28.5477 35.8909 28.6591 36.1261 28.8015 36.3335C28.885 36.3304 28.9717 36.3273 29.0583 36.3211ZM45.6986 27.0338C45.7141 26.0002 45.2623 25.4246 44.5381 25.2389C43.8016 25.0501 43.3002 25.4215 42.8206 25.9011C38.5993 30.1285 34.3751 34.3497 30.1508 38.5709C29.2223 39.4993 28.6467 39.5024 27.7276 38.5833C26.1431 37.0019 24.5586 35.4174 22.9741 33.836C22.1478 33.0097 21.2225 32.9107 20.554 33.5668C20.0496 34.0619 19.7958 35.1358 20.7768 35.993C21.2503 36.4077 21.6743 36.8812 22.123 37.3269C23.9923 39.1961 25.8553 41.0684 27.7307 42.9283C28.5136 43.7051 29.3554 43.6958 30.1446 42.9283C30.3643 42.7148 30.5778 42.495 30.7945 42.2784C35.5325 37.5404 40.2736 32.8086 44.9992 28.0582C45.3397 27.7146 45.5594 27.2442 45.6986 27.0338Z" fill="#FF8440"/>
<path d="M12.7057 22.2993C12.7057 21.5906 12.6995 20.885 12.7057 20.1763C12.7149 19.3717 12.9904 18.9849 13.7424 18.7187C15.8808 17.9574 18.0162 17.1992 20.1578 16.4441C20.9779 16.1563 21.6742 16.4131 21.9372 17.0909C22.2126 17.7934 21.866 18.4711 21.0119 18.7868C19.2943 19.4212 17.5798 20.0618 15.8406 20.6313C15.3114 20.8046 15.1783 21.0459 15.2 21.5566C15.2402 22.55 15.2186 23.5465 15.2093 24.5399C15.2 25.4033 14.7048 25.9542 13.959 25.9511C13.241 25.948 12.7366 25.4219 12.7118 24.5894C12.6871 23.8312 12.7057 23.0668 12.7057 22.2993Z" fill="#FF8440"/>
<path d="M46.9705 44.646C47.9206 44.646 48.49 45.6146 48.0227 46.4874C47.7813 46.9392 47.4626 47.3539 47.1624 47.7717C45.2684 50.396 43 52.6582 40.4592 54.6512C39.6546 55.2826 38.7231 55.0474 38.4136 54.1499C38.2558 53.6888 38.3548 53.271 38.6921 52.9368C39.0171 52.6149 39.373 52.324 39.7289 52.0331C42.0499 50.1267 44.0615 47.9419 45.7419 45.4475C46.1566 44.8348 46.4661 44.646 46.9705 44.646Z" fill="#FF8440"/>
<path d="M36.6555 54.5677C37.3239 54.6017 37.8655 55.2083 37.816 55.8675C37.7665 56.5297 37.1259 57.1023 36.4605 57.0775C35.7735 57.0527 35.2628 56.4926 35.2907 55.7963C35.3216 55.0752 35.922 54.5336 36.6555 54.5677Z" fill="#FF8440"/>
<path d="M25.5459 16.0663C25.5583 16.7379 24.9517 17.3352 24.2554 17.3321C23.6333 17.329 23.0639 16.7534 23.0453 16.1066C23.0268 15.4722 23.621 14.8625 24.2801 14.8377C24.9269 14.8161 25.5335 15.4041 25.5459 16.0663Z" fill="#FF8440"/>
</svg>
