<svg width="67" height="73" viewBox="0 0 67 73" fill="none" xmlns="http://www.w3.org/2000/svg">
<g filter="url(#filter0_d_73_527)">
<path d="M34.0989 2.92276C34.8322 3.28652 35.291 3.90078 35.691 4.5996C36.291 5.65102 36.9259 6.6817 37.5846 7.69643C37.7275 7.91501 38.0068 8.11444 38.2592 8.17986C39.5941 8.53086 40.9417 8.84038 42.2846 9.15948C44.1608 9.60621 44.729 11.3134 43.4862 12.7844C42.5894 13.8454 41.6735 14.8904 40.7973 15.9674C40.629 16.1732 40.51 16.4971 40.5243 16.7587C40.5909 18.0287 40.7163 19.2956 40.8068 20.564C40.837 20.9788 40.8925 21.4096 40.8148 21.8084C40.5624 23.1119 39.2465 23.7852 37.9719 23.2731C36.6148 22.729 35.2783 22.1371 33.9179 21.601C33.6767 21.5053 33.3354 21.5069 33.0925 21.601C31.7687 22.1195 30.4656 22.6907 29.1481 23.2268C27.5005 23.8985 26.056 22.8806 26.1592 21.0953C26.2418 19.6673 26.4068 18.2441 26.483 16.8146C26.4989 16.5194 26.3608 16.1541 26.1719 15.9195C25.2862 14.8234 24.3529 13.7672 23.4465 12.6887C22.3259 11.3549 22.8656 9.65727 24.5576 9.2233C25.9529 8.86591 27.3608 8.5516 28.7529 8.18145C29.0068 8.11444 29.2846 7.91341 29.4275 7.69164C30.0846 6.67691 30.7195 5.64464 31.3195 4.59482C31.7179 3.89759 32.1751 3.28174 32.91 2.91797C33.3068 2.92276 33.7037 2.92276 34.0989 2.92276ZM33.5068 4.61715C33.3275 4.85967 33.191 5.01921 33.0814 5.19631C32.3656 6.3642 31.6386 7.52411 30.9497 8.70796C30.5529 9.39082 29.9989 9.78969 29.237 9.962C27.8894 10.2651 26.5481 10.5986 25.2053 10.9209C24.5783 11.0709 24.5386 11.1905 24.9624 11.6915C25.8989 12.7972 26.8354 13.9028 27.7799 15.0021C28.1767 15.4632 28.3624 15.9897 28.3179 16.5928C28.2084 18.0798 28.0941 19.5668 27.9735 21.0522C27.9243 21.6569 28.0211 21.7382 28.591 21.5037C29.8513 20.9836 31.1195 20.481 32.364 19.9226C33.1433 19.5732 33.8703 19.5748 34.6465 19.9178C35.9116 20.4778 37.1925 20.9995 38.4703 21.5276C38.964 21.7318 39.0846 21.6345 39.0449 21.1144C38.9322 19.6673 38.8354 18.2186 38.7052 16.7747C38.6417 16.0791 38.8084 15.4887 39.2671 14.959C40.2021 13.8789 41.1243 12.786 42.0481 11.6947C42.4719 11.1937 42.4322 11.0709 41.81 10.9209C40.4465 10.5938 39.0846 10.2651 37.7195 9.94764C37.0068 9.78171 36.4751 9.40678 36.0973 8.76061C35.3973 7.56081 34.6608 6.38335 33.9338 5.1995C33.8227 5.02081 33.6862 4.86126 33.5068 4.61715Z" fill="#FF8440" stroke="#FF8440"/>
<path d="M52.1617 46.2211C53.7712 47.9282 53.7966 50.1156 52.1728 51.8738C54.2617 54.0261 53.5601 57.2713 50.6633 58.3435C51.149 59.2641 51.3649 60.2262 51.095 61.2632C50.6665 62.9129 49.2379 64.0553 47.5443 64.0665C46.2966 64.0745 45.049 64.0729 43.8014 64.0665C43.1585 64.0633 42.7728 63.7187 42.7744 63.1714C42.776 62.6242 43.1585 62.2859 43.8062 62.2827C45.0331 62.2764 46.2617 62.3003 47.4887 62.2732C48.522 62.2508 49.303 61.5105 49.4141 60.5133C49.5093 59.6582 48.9125 58.7775 48.0363 58.5206C47.8141 58.4552 47.5696 58.4456 47.3347 58.444C46.3046 58.436 45.276 58.4456 44.2458 58.4376C43.5681 58.4328 43.1474 58.0802 43.1427 57.533C43.1379 56.9969 43.5538 56.6268 44.2363 56.622C45.9585 56.6092 47.6808 56.6108 49.4046 56.6188C50.095 56.622 50.6935 56.4305 51.1411 55.8801C51.6077 55.3073 51.7157 54.6611 51.4315 53.9815C51.1522 53.3114 50.649 52.8582 49.9077 52.8263C48.8411 52.7817 47.7696 52.8008 46.7014 52.7944C46.2062 52.7912 45.7109 52.8088 45.2173 52.7865C44.6173 52.7593 44.2268 52.3956 44.2173 51.8962C44.2062 51.3761 44.622 50.9708 45.2379 50.9644C46.6633 50.9485 48.0887 50.9628 49.5141 50.9564C50.7315 50.9517 51.5696 50.1715 51.5728 49.0578C51.5744 47.9458 50.7379 47.1385 49.5236 47.1241C48.1173 47.1066 46.7125 47.1225 45.3062 47.1177C44.6252 47.1161 44.2077 46.7667 44.2141 46.2195C44.2204 45.6738 44.6395 45.3308 45.3236 45.3292C46.7093 45.3244 48.095 45.3308 49.4823 45.3276C50.7236 45.3244 51.5839 44.5235 51.5728 43.3875C51.5633 42.3026 50.6808 41.4969 49.4808 41.4953C45.8966 41.4905 42.3125 41.4953 38.73 41.4937C36.9443 41.4921 35.9363 40.4869 35.9284 38.6856C35.9205 37.0136 35.8808 35.3399 35.9379 33.671C36.0125 31.4709 34.3839 29.2883 31.2141 29.6217C30.657 29.6807 30.5824 30.07 30.5824 30.5232C30.5855 32.4537 30.5951 34.3842 30.576 36.3147C30.5713 36.8476 30.5379 37.3949 30.4109 37.9086C29.8998 39.9939 28.0506 41.4522 25.9173 41.4889C24.9903 41.5048 24.0633 41.4921 23.0998 41.4921C23.0998 47.1895 23.0998 52.8327 23.0998 58.5764C23.5776 58.5764 24.0617 58.5748 24.5474 58.5764C26.1189 58.5828 26.9014 59.1301 27.457 60.6059C27.8808 61.7339 28.6697 62.2811 29.9189 62.2827C33.0474 62.2891 36.176 62.2891 39.3046 62.2795C39.7347 62.2779 40.0903 62.3705 40.3014 62.7741C40.6236 63.3916 40.1824 64.0633 39.4284 64.0665C37.3887 64.0776 35.349 64.0697 33.3109 64.0713C32.103 64.0713 30.8951 64.076 29.6871 64.0697C27.8887 64.0617 26.4093 63.0039 25.7919 61.2951C25.5014 60.4894 25.3332 60.3698 24.4967 60.3666C24.0427 60.365 23.5903 60.3666 23.0919 60.3666C23.0205 61.1101 22.7824 61.8121 22.1348 62.1296C21.557 62.412 20.8665 62.5811 20.2236 62.5891C16.8586 62.6321 13.4919 62.5763 10.1268 62.6242C8.61572 62.6465 7.41254 61.7371 7.44905 59.9486C7.51889 56.5071 7.46016 53.0625 7.48397 49.6194C7.48556 49.2955 7.61413 48.8935 7.83159 48.6765C8.00143 48.5074 8.4681 48.4436 8.67762 48.56C8.93953 48.7068 9.18873 49.069 9.23318 49.3689C9.31889 49.9529 9.26016 50.5592 9.26016 51.1559C9.26016 54.082 9.26016 57.0065 9.26016 59.9326C9.26016 60.7 9.3173 60.7638 10.057 60.7638C13.5411 60.7654 17.0268 60.7575 20.5109 60.7718C21.0649 60.7734 21.2824 60.5915 21.2808 60.0124C21.2665 53.3449 21.2665 46.679 21.2808 40.0115C21.2824 39.4275 21.0459 39.2456 20.5014 39.2472C17.0173 39.2584 13.5316 39.2504 10.0475 39.2536C9.36334 39.2536 9.26016 39.3637 9.26016 40.0513C9.25857 41.6835 9.26175 43.3157 9.25857 44.9479C9.25699 45.6515 8.93794 46.0488 8.38238 46.0631C7.79667 46.0775 7.47286 45.6882 7.47127 44.9367C7.46651 43.2455 7.46175 41.5527 7.47286 39.8615C7.4808 38.3617 8.39349 37.4507 9.88397 37.4475C13.4284 37.4427 16.9729 37.4443 20.5157 37.4459C22.0236 37.4459 22.8205 38.1144 23.1173 39.7275C24.2728 39.6748 25.4665 39.7259 26.6205 39.5392C27.8649 39.3382 28.7506 38.0969 28.7617 36.7998C28.7792 34.8293 28.8363 32.8557 28.749 30.8901C28.6633 28.9564 29.7252 27.6784 31.9093 27.7614C34.5538 27.8603 36.7141 29.3042 37.4538 31.7261C37.6474 32.3611 37.7268 33.0504 37.7427 33.7189C37.7824 35.3702 37.7538 37.0215 37.757 38.6745C37.7585 39.4897 37.9506 39.6828 38.7792 39.6828C42.3236 39.686 45.8681 39.6764 49.4109 39.6876C51.3617 39.6924 52.8506 40.8124 53.2839 42.5674C53.5919 43.8071 53.2649 44.8697 52.1617 46.2211Z" fill="#FF8440" stroke="#FF8440"/>
<path d="M56.0949 25.9216C55.7235 25.7987 55.3473 25.6918 54.9838 25.5514C54.1394 25.2243 53.3013 24.6196 52.4584 24.6165C51.6378 24.6133 50.8171 25.2211 49.9933 25.5562C49.7378 25.6599 49.4822 25.7875 49.2156 25.8354C48.0362 26.0508 47.0981 25.1238 47.2108 23.8905C47.2917 23.0002 47.3727 22.1084 47.4108 21.2165C47.4203 20.9899 47.3203 20.7123 47.1775 20.532C46.6235 19.8316 46.0251 19.1679 45.4584 18.4771C44.5441 17.3634 45.006 15.9642 46.4029 15.6148C47.2648 15.3994 48.1362 15.2207 48.9917 14.9846C49.2108 14.9239 49.4505 14.7516 49.5759 14.5618C50.0568 13.8342 50.4917 13.0764 50.9521 12.3345C51.7838 10.9927 53.2028 10.9975 54.0425 12.3456C54.4838 13.0524 54.887 13.7832 55.3568 14.4708C55.5155 14.7022 55.7997 14.9112 56.0679 14.9893C56.8806 15.2303 57.7155 15.3962 58.5378 15.6036C60.0076 15.9738 60.4568 17.3698 59.4822 18.5345C58.9473 19.1743 58.4124 19.8125 57.8552 20.4331C57.5981 20.7187 57.5076 20.9963 57.5536 21.3952C57.66 22.3222 57.7251 23.2571 57.7489 24.1889C57.7743 25.1462 57.0473 25.853 56.0949 25.9216ZM46.887 17.3698C47.5521 18.1516 48.1346 18.852 48.733 19.538C49.179 20.0502 49.3282 20.6214 49.2457 21.3011C49.1409 22.1626 49.106 23.0306 49.0346 23.9862C49.9219 23.6225 50.7346 23.3225 51.5171 22.9572C52.1997 22.6381 52.8362 22.662 53.5092 22.9683C54.2933 23.3241 55.1013 23.632 55.96 23.9862C55.8806 23.0194 55.8219 22.1307 55.7298 21.2452C55.6552 20.5225 55.8727 19.9353 56.3632 19.4024C56.9441 18.7706 57.4774 18.0957 58.0886 17.3714C57.2028 17.1544 56.4282 16.9231 55.6362 16.7811C54.7901 16.6279 54.2076 16.2003 53.8013 15.4409C53.414 14.7165 52.9489 14.0336 52.487 13.2838C51.9917 14.0911 51.5171 14.8011 51.1108 15.5494C50.7282 16.2546 50.16 16.6215 49.3965 16.7763C48.5902 16.939 47.7917 17.1528 46.887 17.3698Z" fill="#FF8440" stroke="#FF8440"/>
<path d="M9.25076 23.7998C9.32378 22.9015 9.41108 22.091 9.44124 21.2773C9.45076 21.03 9.36346 20.7285 9.21426 20.537C8.67616 19.851 8.08727 19.2032 7.52696 18.5347C6.53172 17.3493 7.01267 15.9436 8.52537 15.5926C9.35235 15.4012 10.1825 15.2177 10.9968 14.9848C11.2333 14.9178 11.4889 14.7311 11.6254 14.5269C12.0968 13.8185 12.5158 13.0718 12.965 12.3474C13.8016 10.9993 15.2238 10.9913 16.0555 12.3315C16.5158 13.0734 16.9492 13.8312 17.4317 14.5588C17.5571 14.7486 17.7968 14.9193 18.0158 14.98C18.8523 15.2129 19.7031 15.39 20.546 15.599C22.0222 15.9644 22.4809 17.3461 21.5142 18.5203C21.073 19.0564 20.646 19.6101 20.1571 20.0999C19.6841 20.5753 19.5 21.0875 19.5968 21.7512C19.6968 22.4388 19.7174 23.1361 19.7904 23.8285C19.946 25.2852 18.7555 26.2361 17.3984 25.7112C16.5698 25.3905 15.765 25.006 14.9333 24.698C14.6873 24.6071 14.3539 24.6087 14.1079 24.6964C13.3841 24.9549 12.6635 25.2421 11.9762 25.5867C10.3206 26.4164 8.9587 25.215 9.25076 23.7998ZM11.0492 23.9928C11.8508 23.6626 12.5841 23.4153 13.265 23.0675C14.1349 22.6223 14.946 22.6462 15.8095 23.077C16.4825 23.4137 17.1984 23.6594 17.973 23.9769C17.9063 23.0515 17.8984 22.233 17.7746 21.4321C17.6476 20.6104 17.873 19.9611 18.4174 19.3644C18.9857 18.7405 19.5174 18.0816 20.1206 17.3716C19.2301 17.1546 18.4333 16.9328 17.6238 16.7733C16.8349 16.6169 16.2587 16.2372 15.8698 15.5097C15.473 14.7678 15 14.069 14.5142 13.2776C14.0396 14.0562 13.5809 14.7486 13.1841 15.4762C12.7841 16.2117 12.2095 16.6281 11.3889 16.7813C10.5825 16.9312 9.79203 17.1626 8.91584 17.3764C9.55394 18.1279 10.1174 18.8155 10.7079 19.4792C11.127 19.9499 11.3381 20.4716 11.2793 21.1082C11.1968 22.0352 11.1317 22.9637 11.0492 23.9928Z" fill="#FF8440" stroke="#FF8440"/>
<path d="M15.2509 57.9971C13.408 57.9907 11.9303 56.4989 11.943 54.6577C11.9557 52.8261 13.4699 51.312 15.2779 51.3216C17.0953 51.3327 18.5922 52.8548 18.5842 54.6832C18.5763 56.534 17.0969 58.0034 15.2509 57.9971ZM13.7652 54.6386C13.7525 55.4842 14.3922 56.167 15.216 56.1926C16.0683 56.2181 16.7636 55.5384 16.7668 54.6769C16.7699 53.8217 16.1334 53.1739 15.2842 53.1659C14.4318 53.1596 13.7763 53.7946 13.7652 54.6386Z" fill="#FF8440" stroke="#FF8440"/>
</g>
<defs>
<filter id="filter0_d_73_527" x="2.50488" y="2.4165" width="61.9955" height="70.1565" filterUnits="userSpaceOnUse" color-interpolation-filters="sRGB">
<feFlood flood-opacity="0" result="BackgroundImageFix"/>
<feColorMatrix in="SourceAlpha" type="matrix" values="0 0 0 0 0 0 0 0 0 0 0 0 0 0 0 0 0 0 127 0" result="hardAlpha"/>
<feOffset dy="4"/>
<feGaussianBlur stdDeviation="2"/>
<feComposite in2="hardAlpha" operator="out"/>
<feColorMatrix type="matrix" values="0 0 0 0 0 0 0 0 0 0 0 0 0 0 0 0 0 0 0.25 0"/>
<feBlend mode="normal" in2="BackgroundImageFix" result="effect1_dropShadow_73_527"/>
<feBlend mode="normal" in="SourceGraphic" in2="effect1_dropShadow_73_527" result="shape"/>
</filter>
</defs>
</svg>
