<svg width="67" height="68" viewBox="0 0 67 68" fill="none" xmlns="http://www.w3.org/2000/svg">
<g clip-path="url(#clip0_73_515)">
<path d="M67.0003 40.3166C66.7137 41.5044 66.3779 42.6741 65.5689 43.6309C65.2053 44.0618 64.8138 44.4746 64.3995 44.8564C63.3775 45.8 62.8501 46.9501 62.9337 48.3394C63.0532 50.3545 62.6077 52.1779 61.2648 53.7392C60.3869 54.7599 59.2798 55.4185 58.0252 55.851C56.6118 56.3376 55.7045 57.296 55.1853 58.6935C53.9275 62.0847 51.5544 63.6919 47.9316 63.5772C46.3364 63.5265 45.0704 64.0655 44.0157 65.2614C41.8816 67.6812 38.7273 68.3545 35.8333 66.9603C34.2823 66.2133 32.8067 66.1543 31.2704 66.9292C28.4207 68.366 25.0289 67.6058 23.0193 65.2581C21.9662 64.0278 20.6527 63.497 19.0362 63.5789C16.1504 63.7247 13.928 62.5648 12.4523 60.0598C12.1903 59.6142 12.0036 59.1178 11.8267 58.6296C11.337 57.2747 10.4313 56.3376 9.06867 55.8723C7.19669 55.2334 5.73579 54.1177 4.82682 52.3287C4.24049 51.1737 4.01939 49.9449 4.10292 48.6621C4.17171 47.6103 4.00957 46.6093 3.39048 45.7443C3.06457 45.2889 2.65348 44.8875 2.24567 44.4992C0.670129 42.9936 -0.0963524 41.1522 0.0739768 38.988C0.13785 38.1819 0.347486 37.3398 0.699609 36.6157C1.50212 34.9594 1.50376 33.3915 0.696334 31.7368C-0.319091 29.6562 -0.202808 27.5428 0.928899 25.5424C1.34817 24.8003 1.9607 24.14 2.58142 23.5437C3.63779 22.5296 4.19463 21.3484 4.10292 19.8821C3.97845 17.885 4.46651 16.0861 5.8013 14.5576C6.60709 13.6352 7.58976 12.9668 8.75258 12.5916C10.3642 12.0707 11.3616 11.0041 11.9512 9.41825C13.1091 6.3022 15.5068 4.66226 18.8249 4.76383C20.5905 4.8179 22.0104 4.30675 23.1487 2.94696C24.246 1.63468 25.7478 1.03014 27.3709 0.67627C27.9818 0.67627 28.591 0.67627 29.2019 0.67627C30.1928 1.04325 31.1656 1.47248 32.181 1.75427C32.8116 1.92957 33.542 2.04589 34.1578 1.8968C35.4091 1.59536 36.6129 1.09404 37.8347 0.67627C38.4456 0.67627 39.0548 0.67627 39.6657 0.67627C41.4411 1.03833 42.974 1.81489 44.168 3.22055C45.0982 4.31658 46.3053 4.77858 47.7498 4.76547C48.6538 4.75728 49.5939 4.78677 50.457 5.02105C52.8662 5.67309 54.3926 7.31139 55.1951 9.64761C55.6799 11.0582 56.6217 12.0019 58.0334 12.4868C59.288 12.9177 60.3935 13.5779 61.2697 14.6002C62.593 16.1418 63.0565 17.9407 62.9353 19.9329C62.8485 21.3729 63.3841 22.5574 64.4502 23.524C64.8515 23.8877 65.22 24.2924 65.5721 24.7052C66.3845 25.6604 66.7137 26.8334 67.0035 28.0179C67.0035 28.629 67.0035 29.2384 67.0035 29.8495C66.6367 30.8407 66.2076 31.8138 65.9259 32.8279C65.7506 33.4571 65.6344 34.1894 65.7834 34.8054C66.0864 36.057 66.5859 37.2596 67.0035 38.4834C67.0003 39.0961 67.0003 39.7072 67.0003 40.3166ZM19.0772 7.39003C16.74 7.24586 15.1727 8.21737 14.3882 10.4111C13.5611 12.726 12.0183 14.2398 9.70741 15.0589C7.61105 15.8011 6.58907 17.3755 6.73156 19.5856C6.88551 21.9709 6.07153 23.9123 4.31255 25.5178C2.5241 27.1512 2.1949 28.8125 3.22015 30.9849C4.22575 33.113 4.2323 35.2035 3.23162 37.3333C2.20473 39.5188 2.51918 41.1931 4.2929 42.8068C6.07481 44.4271 6.88715 46.3865 6.73156 48.7948C6.59071 50.9623 7.6307 52.558 9.6812 53.274C12.0249 54.0931 13.5709 55.6282 14.4029 57.9661C15.1596 60.0942 16.7302 61.1001 18.9822 60.9576C21.3144 60.8101 23.2289 61.6014 24.8045 63.3217C26.511 65.1844 28.1439 65.4924 30.4352 64.4226C32.4971 63.4609 34.5411 63.4626 36.6031 64.4259C38.8976 65.4973 40.5075 65.1877 42.2321 63.3135C43.8109 61.5982 45.7255 60.8069 48.0577 60.956C50.3031 61.0985 51.8786 60.0827 52.632 57.9579C53.4525 55.6446 54.9806 54.1111 57.2948 53.2903C59.4436 52.5269 60.4426 50.9459 60.3001 48.6556C60.1576 46.3751 60.929 44.4845 62.6045 42.9395C64.5338 41.1604 64.84 39.5909 63.7427 37.2071C62.8141 35.1887 62.8043 33.1785 63.7345 31.1569C64.8482 28.7387 64.5387 27.1889 62.575 25.372C60.9192 23.8402 60.1576 21.9627 60.2985 19.7084C60.4426 17.382 59.4567 15.8191 57.2555 15.0327C54.9659 14.2136 53.4591 12.6883 52.6386 10.4029C51.8541 8.21574 50.2851 7.23931 47.9496 7.38184C45.7239 7.51782 43.8568 6.77075 42.3402 5.13409C40.4895 3.137 38.9533 2.82408 36.5048 3.95287C34.5051 4.8736 32.5152 4.87196 30.5171 3.95287C30.0847 3.753 29.6425 3.54494 29.1823 3.44009C27.3496 3.02232 25.9231 3.72515 24.7242 5.08822C23.2289 6.7855 21.316 7.50144 19.0772 7.39003Z" fill="#FF6916"/>
<path d="M46.3672 43.525C46.9683 46.0054 45.9397 47.9304 43.7222 48.4645C43.3684 48.5497 42.9885 48.5529 42.6216 48.5529C39.1348 48.5595 35.6479 48.5366 32.1611 48.566C30.5266 48.5791 28.9576 48.3072 27.441 47.7174C27.1036 47.5863 26.8989 47.6388 26.5746 47.8321C26.0161 48.163 25.3627 48.4956 24.7354 48.5234C22.8208 48.6119 20.9013 48.5726 18.9835 48.5497C17.4227 48.53 16.137 47.2751 16.1321 45.7219C16.1125 40.4695 16.1141 35.2155 16.1305 29.9631C16.1354 28.4035 17.408 27.1387 18.9639 27.1174C20.903 27.0912 22.8438 27.0748 24.7829 27.1354C25.3168 27.1518 25.8802 27.3893 26.3568 27.6547C26.6778 27.8333 26.8678 27.83 27.1659 27.6711C28.4613 26.9814 29.7519 26.2802 30.5184 24.9565C30.864 24.3585 31.1604 23.7228 31.4061 23.0757C31.9858 21.5521 32.5165 20.0104 33.0783 18.4803C33.4992 17.3318 34.1166 17.0648 35.2696 17.5071C38.5763 18.7752 40.3336 22.3303 39.346 25.756C39.2216 26.1885 39.0774 26.6177 38.9235 27.1092C40.7791 27.1092 42.5643 27.1059 44.3495 27.1108C46.5261 27.1157 47.9722 28.3953 48.2294 30.5382C48.2392 30.625 48.2801 30.7249 48.2507 30.7954C47.8494 31.7784 48.3571 32.3092 49.0646 32.9579C50.6844 34.4439 50.4387 37.0504 48.6798 38.3971C48.5258 38.5151 48.362 38.6215 48.1737 38.7542C48.8206 40.789 48.2179 42.37 46.3672 43.525ZM35.1615 20.4692C34.6833 21.7864 34.2149 23.0429 33.771 24.3093C33.1094 26.1967 31.999 27.7514 30.3366 28.872C29.5996 29.3684 28.784 29.7485 28.0273 30.2203C27.8472 30.3334 27.6523 30.5988 27.6506 30.7937C27.6294 35.3925 27.631 39.9928 27.6474 44.5915C27.6474 44.7553 27.8046 45.0175 27.9438 45.0633C28.7856 45.3435 29.6405 45.7645 30.4987 45.7875C34.6129 45.9005 38.7319 45.9087 42.8476 45.9316C43.5158 45.9349 43.9728 45.4451 43.9629 44.8815C43.9531 44.3146 43.4978 43.8821 42.8198 43.8543C42.1663 43.8264 41.5128 43.8494 40.8593 43.8461C39.8636 43.8395 39.2592 43.33 39.2773 42.5142C39.2936 41.7196 39.8783 41.2396 40.8495 41.2363C42.0926 41.2314 43.334 41.2396 44.5771 41.2314C45.0619 41.2281 45.5401 41.0839 45.6695 40.581C45.7498 40.268 45.7121 39.7929 45.5188 39.5734C45.2961 39.3211 44.849 39.1687 44.4919 39.1556C43.2734 39.1065 42.0517 39.1409 40.8315 39.136C39.8685 39.1311 39.2822 38.6379 39.2773 37.8417C39.2723 37.0422 39.8603 36.5294 40.8119 36.5262C42.5561 36.5196 44.2987 36.5294 46.0429 36.5196C46.3213 36.518 46.6735 36.5343 46.8585 36.3803C47.1337 36.1526 47.4514 35.7824 47.4514 35.4727C47.4498 35.1631 47.1304 34.7945 46.8536 34.5684C46.6669 34.416 46.3164 34.4324 46.038 34.4308C44.3593 34.4193 42.6822 34.4259 41.0035 34.4242C39.88 34.4242 39.2674 33.9524 39.2789 33.1037C39.2904 32.2567 39.8914 31.8144 41.0346 31.8128C42.1466 31.8111 43.2587 31.8275 44.3691 31.8078C45.2568 31.7915 45.7579 31.2213 45.545 30.4808C45.3616 29.8435 44.8375 29.7141 44.2545 29.7141C41.9223 29.7141 39.5901 29.7174 37.2579 29.7125C36.0803 29.7092 35.5185 28.931 35.8805 27.8038C36.1524 26.9552 36.4635 26.1197 36.7305 25.2694C37.3283 23.3558 36.7633 21.5685 35.1615 20.4692ZM25.0171 37.8483C25.0171 35.3875 25.004 32.9268 25.0269 30.4661C25.0318 29.8943 24.8402 29.6994 24.2719 29.7108C22.6833 29.7387 21.093 29.7354 19.5027 29.7125C18.9524 29.7043 18.7215 29.8796 18.7231 30.4612C18.7378 35.3826 18.7362 40.3041 18.7247 45.2272C18.7231 45.7645 18.9213 45.9611 19.4552 45.9546C21.0438 45.9333 22.6341 45.9284 24.2228 45.9562C24.814 45.9661 25.0318 45.7727 25.0253 45.1666C25.0024 42.7271 25.0171 40.2877 25.0171 37.8483Z" fill="#FF6916"/>
<path d="M7.05389 34.1552C7.32085 25.5066 10.698 18.4685 17.5013 13.1653C21.4959 10.0509 26.062 8.32576 31.1113 7.86867C36.2555 7.4034 41.1067 8.38965 45.7039 10.7144C46.2902 11.0109 46.7324 11.3959 46.7062 12.1004C46.6735 12.9638 45.8087 13.5552 44.9849 13.2407C44.1136 12.9081 43.2915 12.4461 42.4185 12.1201C34.4032 9.12361 26.7859 9.96406 19.7483 14.8102C14.6155 18.3456 11.4956 23.331 10.2328 29.4402C9.24525 34.2191 9.71529 38.8752 11.5873 43.3854C11.6954 43.6459 11.8215 43.9015 11.905 44.1702C12.1408 44.9271 11.8198 45.6594 11.1664 45.9002C10.467 46.1558 9.7546 45.8757 9.46471 45.1073C8.90295 43.6263 8.35429 42.1354 7.91045 40.6167C7.60091 39.5584 7.42076 38.4525 7.27827 37.3548C7.13906 36.2801 7.12104 35.1874 7.05389 34.1552Z" fill="#FF6916"/>
<path d="M33.6335 60.6928C29.9829 60.6272 26.4944 59.9064 23.1451 58.4909C22.5686 58.2468 22.1297 57.8978 22.1068 57.2097C22.0724 56.2055 22.9732 55.655 24.0377 56.004C25.5429 56.4987 27.0267 57.0951 28.5662 57.4309C34.1543 58.6465 39.5361 57.9453 44.5722 55.234C51.03 51.7558 55.1146 46.3871 56.7098 39.2212C57.9087 33.8377 57.2634 28.6279 54.8477 23.6524C54.7052 23.3591 54.5496 23.0708 54.4235 22.771C54.0894 21.9781 54.3236 21.2638 55.0115 20.9443C55.6731 20.6363 56.4118 20.8722 56.7639 21.6094C57.365 22.8627 57.9824 24.1177 58.4443 25.425C59.6022 28.7017 60.1115 32.1011 59.9052 35.5694C59.5465 41.5836 57.4403 46.9278 53.4687 51.4839C49.4381 56.1088 44.3823 59.0021 38.3618 60.1489C36.8075 60.4438 35.2107 60.5175 33.6335 60.6928Z" fill="#FF6916"/>
<path d="M15.7391 50.6431C16.4794 50.6366 17.1361 51.2739 17.1312 51.9947C17.1263 52.673 16.5203 53.2693 15.8292 53.2759C15.0955 53.2841 14.4322 52.6369 14.4387 51.921C14.4453 51.2329 15.0398 50.6497 15.7391 50.6431Z" fill="#FF6916"/>
<path d="M49.9867 16.3766C49.9998 15.677 50.5911 15.0905 51.2789 15.0938C51.975 15.097 52.6055 15.7393 52.6072 16.4421C52.6088 17.1613 51.9783 17.7757 51.2675 17.7511C50.5485 17.7249 49.9736 17.1089 49.9867 16.3766Z" fill="#FF6916"/>
</g>
<defs>
<clipPath id="clip0_73_515">
<rect width="67" height="67" fill="white" transform="translate(0 0.680176)"/>
</clipPath>
</defs>
</svg>
