<svg width="24" height="25" viewBox="0 0 24 25" fill="none" xmlns="http://www.w3.org/2000/svg">
<path fill-rule="evenodd" clip-rule="evenodd" d="M12 4.31818C7.48131 4.31818 3.81818 7.98131 3.81818 12.5C3.81818 17.0187 7.48131 20.6818 12 20.6818C16.5187 20.6818 20.1818 17.0187 20.1818 12.5C20.1818 7.98131 16.5187 4.31818 12 4.31818ZM2 12.5C2 6.97715 6.47715 2.5 12 2.5C17.5228 2.5 22 6.97715 22 12.5C22 18.0228 17.5228 22.5 12 22.5C6.47715 22.5 2 18.0228 2 12.5Z" fill="#FF6916"/>
<path fill-rule="evenodd" clip-rule="evenodd" d="M2 12.5C2 11.9477 2.40701 11.5 2.90909 11.5H21.0909C21.593 11.5 22 11.9477 22 12.5C22 13.0523 21.593 13.5 21.0909 13.5H2.90909C2.40701 13.5 2 13.0523 2 12.5Z" fill="#FF6916"/>
<path fill-rule="evenodd" clip-rule="evenodd" d="M9.00023 12.3498C9.06877 15.1871 10.1263 17.9187 12 20.1463C13.8737 17.9187 14.9312 15.1871 14.9998 12.3498C14.9312 9.51249 13.8737 6.78087 12 4.55331C10.1263 6.78087 9.06877 9.51249 9.00023 12.3498ZM12 3.12232L11.2617 2.5C8.59689 5.19196 7.08251 8.68543 7.00022 12.3306C6.99993 12.3434 6.99993 12.3562 7.00022 12.369C7.08251 16.0141 8.59689 19.5076 11.2617 22.1996C11.4511 22.391 11.7191 22.5 12 22.5C12.2809 22.5 12.5489 22.391 12.7383 22.1996C15.4031 19.5076 16.9175 16.0141 16.9998 12.369C17.0001 12.3562 17.0001 12.3434 16.9998 12.3306C16.9175 8.68543 15.4031 5.19196 12.7383 2.5L12 3.12232Z" fill="#FF6916"/>
</svg>
