<svg width="22" height="22" viewBox="0 0 22 22" fill="none" xmlns="http://www.w3.org/2000/svg">
<path d="M4.19676 1.8335C8.73204 1.8335 13.2678 1.8335 17.803 1.8335C17.8299 1.84471 17.856 1.86175 17.8842 1.86623C19.2108 2.08147 20.1633 3.1774 20.1642 4.51099C20.1673 8.8373 20.1678 13.1636 20.1642 17.4895C20.1628 18.9702 18.9717 20.1616 17.4909 20.1629C13.1642 20.1665 8.83742 20.1715 4.51113 20.1594C3.39626 20.1562 2.58275 19.61 2.09169 18.6128C1.96791 18.3608 1.91768 18.0729 1.83337 17.8016C1.83337 13.2668 1.83337 8.73148 1.83337 4.19665C1.84459 4.16929 1.86118 4.14329 1.86611 4.11504C2.02666 3.16305 2.54867 2.48011 3.41913 2.07519C3.66309 1.96219 3.93665 1.91242 4.19676 1.8335ZM10.8685 6.13829C8.08042 6.24053 5.93948 8.67318 6.23591 11.483C6.4996 13.9838 8.74684 16.0474 11.5511 15.7622C14.044 15.5084 16.1236 13.2627 15.8343 10.4529C15.5737 7.92702 13.3884 6.05309 10.8685 6.13829ZM18.0156 5.61813C18.0026 4.77555 17.4115 4.01952 16.4361 3.99127C15.6056 3.96751 14.836 4.57421 14.8051 5.55893C14.7782 6.40554 15.4038 7.17368 16.3859 7.19476C17.2384 7.21314 17.9613 6.58446 18.0156 5.61813Z" fill="#2C2C2C"/>
<path d="M11.0435 7.20459C13.1208 7.20773 14.8016 8.89916 14.7949 10.9798C14.7881 13.0488 13.1006 14.725 11.0282 14.7218C8.95098 14.7187 7.27015 13.0273 7.27688 10.9466C7.2836 8.87763 8.97116 7.20146 11.0435 7.20459Z" fill="#2C2C2C"/>
<path d="M16.4034 6.12881C16.1011 6.12746 15.8657 5.88487 15.8711 5.5804C15.876 5.28668 16.1141 5.0553 16.4106 5.05665C16.7128 5.05799 16.9483 5.30059 16.9429 5.60506C16.9379 5.89877 16.6994 6.13016 16.4034 6.12881Z" fill="#2C2C2C"/>
</svg>
