<svg width="134" height="105" viewBox="0 0 134 105" fill="none" xmlns="http://www.w3.org/2000/svg">
<path opacity="0.1" d="M78.4685 71.5273C78.4685 50.7574 85.3093 31.7015 98.991 14.3596C107.643 3.87385 114.584 -0.66327 119.815 0.748278C124.644 2.56313 127.059 5.2854 127.059 8.91509C127.059 12.3431 125.449 15.9728 122.23 19.8042C119.212 23.6355 116.797 26.7611 114.986 29.1809C113.176 31.6007 111.667 34.2221 110.459 37.0452C107.643 42.6914 106.234 49.5475 106.234 57.6135C111.063 56.202 115.892 56.8069 120.721 59.4284C129.574 64.4696 134 70.9224 134 78.7867C134 86.4494 131.586 92.7006 126.757 97.5402C122.129 102.178 115.691 104.497 107.441 104.497C99.1922 104.497 92.2508 101.371 86.6171 95.1204C81.1847 88.6676 78.4685 80.8032 78.4685 71.5273ZM0 71.5273C0 49.9508 6.74024 30.8949 20.2207 14.3596C30.482 2.059 39.033 -1.67152 45.8739 3.16808C47.2823 4.17632 47.9865 5.78952 47.9865 8.00767C47.9865 12.0407 46.4775 15.9728 43.4595 19.8042C40.6426 23.6355 38.3288 26.7611 36.518 29.1809C34.7072 31.6007 33.1982 34.2221 31.991 37.0452C29.1742 42.6914 27.7658 49.5475 27.7658 57.6135C32.5946 56.202 37.3228 56.8069 41.9505 59.4284C50.6021 64.4696 54.9279 70.9224 54.9279 78.7867C54.9279 86.4494 52.6141 92.7006 47.9865 97.5402C43.3589 102.178 36.9204 104.497 28.6712 104.497C20.4219 104.497 13.5811 101.371 8.14865 95.1204C2.71622 88.6676 0 80.8032 0 71.5273Z" fill="#2C2C2C"/>
</svg>
