<svg width="67" height="68" viewBox="0 0 67 68" fill="none" xmlns="http://www.w3.org/2000/svg">
<g clip-path="url(#clip0_73_475)">
<path d="M59.7824 59.4319L51.3066 44.7514C52.7124 43.5676 53.6839 41.884 53.9435 39.9762C54.1198 38.6789 54.787 37.5231 55.8222 36.7217C58.5059 34.6444 59.4825 30.9998 58.1972 27.8587C57.7013 26.647 57.7013 25.3124 58.1972 24.1009C59.4825 20.9598 58.5059 17.3153 55.8222 15.2379C54.787 14.4365 54.1196 13.2807 53.9435 11.9834C53.486 8.62061 50.8179 5.95251 47.4551 5.49534C46.158 5.31892 45.0022 4.6517 44.2009 3.61644C42.1234 0.932629 38.4792 -0.0438613 35.3378 1.2415C34.1261 1.73741 32.7915 1.73741 31.58 1.2415C28.4391 -0.0439921 24.7944 0.932629 22.717 3.61644C21.9156 4.6517 20.7598 5.31892 19.4625 5.49534C16.0996 5.95264 13.4316 8.62061 12.9745 11.9836C12.798 13.2808 12.1308 14.4366 11.0955 15.238C8.41174 17.3154 7.43525 20.96 8.72061 24.101C9.21651 25.3126 9.21651 26.6473 8.72061 27.8588C7.43512 30.9998 8.41174 34.6444 11.0955 36.7218C12.1308 37.5232 12.798 38.679 12.9745 39.9762C13.2373 41.9091 14.2314 43.6115 15.667 44.7974L7.21773 59.4319C6.95309 59.8904 6.99052 60.4631 7.31288 60.8829C7.6351 61.3028 8.17838 61.4875 8.68999 61.3504L16.0547 59.377L18.0196 66.7101C18.1566 67.2214 18.5881 67.5998 19.113 67.6689C19.1703 67.6765 19.2275 67.6802 19.2841 67.6802C19.7472 67.6802 20.1814 67.4341 20.4172 67.0258L29.5345 51.2343C30.2258 51.1598 30.9142 50.9906 31.5799 50.7181C32.7915 50.2222 34.1262 50.2222 35.3377 50.7181C36.0317 51.0022 36.7505 51.1754 37.4715 51.2445L46.5828 67.0258C46.8187 67.4342 47.2528 67.6802 47.7158 67.6802C47.7726 67.6802 47.8297 67.6765 47.8872 67.6689C48.412 67.5998 48.8435 67.2214 48.9805 66.7101L50.9455 59.377L58.3102 61.3504C58.8212 61.4875 59.365 61.3031 59.6872 60.8829C60.0095 60.4631 60.047 59.8904 59.7824 59.4319ZM19.73 62.9807L18.2442 57.4354C18.1543 57.1001 17.935 56.8143 17.6344 56.6408C17.3338 56.4672 16.9767 56.4202 16.6413 56.51L11.0644 58.0042L17.9412 46.0933C18.4274 46.2673 18.9364 46.3928 19.4624 46.4644C20.7597 46.6408 21.9155 47.308 22.7168 48.3433C23.7339 49.6572 25.1269 50.5609 26.6523 50.9912L19.73 62.9807ZM30.5883 48.2956C28.5323 49.1372 26.1467 48.4978 24.7867 46.7412C23.5625 45.1596 21.7968 44.1401 19.815 43.8707C17.6137 43.5714 15.8671 41.825 15.568 39.6236C15.2985 37.6418 14.2791 35.8762 12.6975 34.6518C10.9407 33.292 10.3015 30.9062 11.1429 28.8502C11.9006 26.9992 11.9006 24.9605 11.1429 23.1095C10.3015 21.0535 10.9407 18.6677 12.6975 17.3079C14.2791 16.0836 15.2985 14.318 15.568 12.3361C15.8673 10.1349 17.6137 8.3883 19.815 8.08898C21.7968 7.81963 23.5625 6.80021 24.7867 5.21866C25.7458 3.97963 27.2146 3.29657 28.7187 3.29657C29.3473 3.29657 29.9822 3.41606 30.5882 3.66408C32.4393 4.42161 34.4782 4.42161 36.3291 3.66408C38.3849 2.82253 40.7709 3.46187 42.1307 5.21866C43.3549 6.80021 45.1205 7.81963 47.1021 8.08898C49.3034 8.3883 51.05 10.1348 51.3493 12.3361C51.6188 14.318 52.6382 16.0836 54.2197 17.3079C55.9765 18.6677 56.6158 21.0534 55.7743 23.1095C55.0168 24.9605 55.0168 26.9992 55.7743 28.8502C56.6158 30.9062 55.9764 33.292 54.2197 34.6518C52.6382 35.8761 51.6188 37.6417 51.3493 39.6234C51.05 41.8248 49.3034 43.5714 47.1023 43.8706C45.1204 44.1399 43.3548 45.1594 42.1306 46.741C40.7706 48.498 38.3849 49.137 36.3291 48.2955C34.478 47.5381 32.4395 47.5381 30.5883 48.2956ZM50.3587 56.51C49.6602 56.3227 48.943 56.7373 48.7558 57.4354L47.2698 62.9807L40.3358 50.9705C41.8335 50.5323 43.1993 49.6369 44.2008 48.3433C45.002 47.3079 46.1578 46.6407 47.455 46.4644C48.0056 46.3895 48.5372 46.2543 49.0439 46.0675L55.9354 58.0042L50.3587 56.51Z" fill="#FF6916"/>
<path d="M27.5111 21.1386L23.4391 25.2105C23.1937 25.4559 23.0557 25.7889 23.0557 26.136C23.0557 26.4831 23.1937 26.816 23.4391 27.0614L31.0763 34.6988C31.3217 34.9442 31.6546 35.0821 32.0017 35.0821C32.3488 35.0821 32.6818 34.9442 32.9272 34.6988L43.5611 24.0648C44.0722 23.5537 44.0722 22.725 43.5611 22.2139L39.4892 18.1419C39.2437 17.8965 38.9108 17.7585 38.5637 17.7585C38.2167 17.7585 37.8837 17.8965 37.6383 18.1419L32.0018 23.7785L29.3623 21.1388C29.1169 20.8934 28.7839 20.7554 28.4368 20.7554C28.0895 20.7553 27.7565 20.8932 27.5111 21.1386ZM31.0761 26.5548C31.3215 26.8002 31.6545 26.9382 32.0016 26.9382C32.3487 26.9382 32.6816 26.8002 32.927 26.5548L38.5635 20.9182L40.7846 23.1394L32.0016 31.9224L26.2154 26.1361L28.4366 23.9151L31.0761 26.5548Z" fill="#FF6916"/>
<path d="M50.5143 26.4202C50.5143 22.9436 49.4724 19.5999 47.5013 16.7506C45.5765 13.9685 42.9028 11.8411 39.7693 10.5985C39.0971 10.3322 38.3367 10.6608 38.0702 11.3327C37.8037 12.0047 38.1325 12.7653 38.8043 13.0318C44.3278 15.2221 47.8969 20.4774 47.8969 26.4202C47.8969 34.3586 41.4385 40.817 33.5001 40.817C25.5618 40.817 19.1034 34.3586 19.1034 26.4202C19.1034 20.4773 22.6725 15.2219 28.196 13.0317C28.8679 12.7652 29.1967 12.0045 28.9302 11.3326C28.6638 10.6607 27.903 10.3319 27.2312 10.5984C24.0975 11.8411 21.4238 13.9684 19.4989 16.7505C17.5278 19.5997 16.4858 22.9434 16.4858 26.4201C16.4858 35.8018 24.1184 43.4344 33.5001 43.4344C42.8818 43.4346 50.5143 35.8019 50.5143 26.4202Z" fill="#FF6916"/>
<path d="M33.5 12.0231C33.8442 12.0231 34.1819 11.8844 34.4252 11.6396C34.6686 11.3962 34.8088 11.0598 34.8088 10.7143C34.8088 10.3701 34.6687 10.0324 34.4252 9.78899C34.1819 9.54556 33.8442 9.40552 33.5 9.40552C33.1558 9.40552 32.8181 9.54556 32.5747 9.78899C32.3312 10.0324 32.1912 10.3701 32.1912 10.7143C32.1912 11.0598 32.3312 11.3962 32.5747 11.6396C32.8181 11.8844 33.1558 12.0231 33.5 12.0231Z" fill="#FF6916"/>
</g>
<defs>
<clipPath id="clip0_73_475">
<rect width="67" height="67" fill="white" transform="translate(0 0.680176)"/>
</clipPath>
</defs>
</svg>
