<svg width="54" height="68" viewBox="0 0 54 68" fill="none" xmlns="http://www.w3.org/2000/svg">
<g clip-path="url(#clip0_73_486)">
<path d="M0.564597 67.6804C0.396791 67.4619 0.166057 67.2679 0.0716667 67.0215C-0.19927 66.3083 0.325124 65.721 1.2061 65.721C6.07073 65.7175 10.9354 65.7192 15.8 65.7192C16.0587 65.7192 16.3191 65.7192 16.667 65.7192C16.667 64.777 16.681 63.8716 16.6512 62.9661C16.646 62.835 16.4432 62.6585 16.2929 62.5938C12.6414 61.0556 9.79043 58.591 7.68236 55.2401C7.55826 55.0426 7.20517 54.8887 6.9552 54.8852C5.29812 54.8538 3.63929 54.8765 1.98221 54.866C0.657239 54.859 0.0139834 54.228 0.00873945 52.9013C-0.00174841 49.7602 -0.00174841 46.6208 0.00873945 43.4797C0.0139834 42.1232 0.660735 41.5115 2.03639 41.5097C2.95233 41.508 3.86828 41.501 4.78422 41.5132C5.0971 41.5184 5.2317 41.4328 5.29113 41.0902C6.32069 35.175 9.47404 30.7649 14.7372 27.8737C15.0973 27.6762 15.1987 27.4402 15.1952 27.0469C15.1759 24.9529 15.2564 22.857 15.1655 20.7665C15.092 19.0779 16.424 18.2231 17.9308 18.8349C19.857 19.6145 21.591 20.6511 23.0051 22.0285C23.741 21.0689 24.4769 20.1249 25.1884 19.1636C25.2897 19.0255 25.302 18.8017 25.3072 18.6147C25.3212 18.0046 25.2985 17.3929 25.3177 16.7828C25.3387 16.1186 25.7232 15.7218 26.3088 15.7183C26.9049 15.7148 27.2615 16.0906 27.2964 16.7741C27.3104 17.0555 27.2982 17.3387 27.2982 17.6725C28.1757 17.4296 28.999 17.2023 29.8677 16.9629C29.8677 15.9945 29.8625 15.0139 29.8695 14.035C29.8747 13.3166 30.2365 12.8778 30.8134 12.8586C31.4199 12.8376 31.8254 13.2973 31.8324 14.0332C31.8394 14.8618 31.8552 15.6921 31.8254 16.5189C31.8115 16.9209 31.9356 17.0905 32.3393 17.1709C32.9494 17.2915 33.5454 17.4907 34.1607 17.6585C34.2009 17.447 34.2114 17.225 34.2866 17.0275C34.4579 16.5661 34.8057 16.3353 35.3039 16.3843C35.7986 16.435 36.0905 16.7216 36.1692 17.2128C36.4209 18.772 36.6114 19.2387 37.4976 20.5322C38.515 22.018 39.0149 23.6594 38.903 25.4615C38.8733 25.944 39.0114 26.1205 39.5043 26.2341C41.6246 26.7201 43.5911 27.5836 45.395 28.8054C46.0085 29.2214 46.1833 29.7965 45.8512 30.2947C45.5069 30.8103 44.9493 30.8855 44.3078 30.459C42.5266 29.2774 40.5933 28.468 38.5097 28.0398C37.9608 28.9225 37.4155 29.8018 36.8142 30.7684C37.0886 30.7684 37.3718 30.7614 37.6549 30.7701C38.3087 30.7894 38.7439 31.1739 38.7544 31.7315C38.7632 32.2891 38.3227 32.7261 37.6864 32.7279C33.2151 32.7349 28.7438 32.7349 24.2707 32.7279C23.6344 32.7261 23.2044 32.2891 23.2184 31.7245C23.2306 31.1861 23.6397 30.8086 24.2532 30.7719C24.4018 30.7631 24.5504 30.7701 24.7863 30.7701C24.6605 30.5831 24.5906 30.4555 24.4997 30.3471C23.2149 28.8159 22.6258 27.0347 22.5716 25.0525C22.5647 24.8095 22.5122 24.5176 22.3689 24.3341C21.0352 22.6211 19.2977 21.4744 17.1739 20.6965C17.1739 21.2821 17.1739 21.7943 17.1739 22.3064C17.1739 24.1383 17.1477 25.9702 17.1861 27.8021C17.2019 28.5572 16.9239 28.9959 16.244 29.3333C11.6153 31.6319 8.67347 35.2991 7.45862 40.3281C7.29082 41.0238 7.21041 41.7404 7.10728 42.4519C7.0059 43.1511 6.69301 43.4587 5.99207 43.4639C4.68633 43.4744 3.38234 43.4674 2.03465 43.4674C2.03465 46.6173 2.03465 49.7217 2.03465 52.8995C3.5047 52.8995 4.9695 53.0079 6.41158 52.8698C7.98826 52.7212 8.91119 53.2369 9.74673 54.6458C11.5489 57.6838 14.2967 59.7027 17.5899 60.9682C18.5618 61.3423 18.6387 61.4471 18.6404 62.4994C18.6422 63.543 18.6404 64.5848 18.6404 65.7175C19.0075 65.7175 19.3256 65.7175 19.6438 65.7175C21.2152 65.7175 22.7849 65.707 24.3546 65.7244C24.7391 65.7297 24.886 65.6108 24.9262 65.2193C25.0083 64.4414 25.1464 63.6688 25.2688 62.8945C25.3614 62.3089 25.7215 62.0222 26.3053 62.017C26.828 62.0117 27.3524 61.9995 27.875 62.0205C28.4955 62.045 28.8993 62.433 28.9116 62.9749C28.9238 63.5255 28.4851 63.9537 27.8523 63.9957C27.6373 64.0097 27.4205 63.9974 27.1234 63.9974C27.0325 64.562 26.9451 65.1057 26.8507 65.6877C29.6719 65.6877 32.4355 65.6877 35.262 65.6877C35.1763 65.1284 35.0959 64.6022 35.0033 63.9974C34.1765 63.9974 33.3759 64.0202 32.5771 63.9905C31.7712 63.9625 31.2608 63.2528 31.6209 62.6165C31.7747 62.3456 32.168 62.0677 32.4704 62.0467C33.5787 61.9698 34.6939 61.9838 35.8056 61.9925C36.3719 61.9978 36.7547 62.2827 36.8456 62.8752C36.968 63.6706 37.1026 64.4659 37.2005 65.2647C37.2389 65.5794 37.3333 65.7244 37.6794 65.721C39.576 65.707 41.4725 65.714 43.4775 65.714C43.4775 65.3259 43.4775 64.9658 43.4775 64.6057C43.4775 63.2755 43.4949 61.9453 43.4687 60.6151C43.4565 60.0278 43.682 59.6467 44.1697 59.3234C47.8771 56.8517 50.3523 53.4589 51.1354 49.0697C52.1247 43.5181 51.5689 38.2043 47.8177 33.6228C47.3143 33.0075 47.3353 32.4727 47.8194 32.0741C48.3194 31.6633 48.856 31.7665 49.3839 32.4202C52.0618 35.7431 53.413 39.538 53.4864 43.81C53.5406 46.9302 53.3168 49.9839 52.0495 52.896C50.7141 55.969 48.7144 58.5018 46.0033 60.4613C45.5785 60.7672 45.43 61.0818 45.4404 61.587C45.4719 62.9347 45.4509 64.2841 45.4509 65.7157C46.0103 65.7157 46.5259 65.7157 47.0416 65.7157C48.7214 65.7157 50.4012 65.7244 52.081 65.7105C52.6299 65.7052 53.1543 65.7244 53.4007 66.3153C53.6437 66.8956 53.2994 67.2994 52.92 67.6769C35.4682 67.6804 18.0164 67.6804 0.564597 67.6804ZM30.7417 30.7719C31.2643 30.7719 31.794 30.7247 32.3096 30.7824C33.1329 30.8768 33.8059 30.5691 34.4194 30.0902C36.3667 28.5712 37.2424 26.5977 36.8474 24.1313C36.4418 21.6055 34.4981 19.5936 32.0579 19.1216C29.4552 18.6164 26.9171 19.6775 25.5467 21.8415C24.178 24.002 24.2672 26.8005 25.8281 28.8229C26.793 30.0727 27.9519 31.0148 29.6964 30.7771C30.039 30.7317 30.3921 30.7719 30.7417 30.7719Z" fill="#FF6916"/>
<path d="M18.6754 0.680176C22.2815 0.680176 25.4628 3.01023 26.4958 6.40655C26.7091 7.10924 26.4766 7.6651 25.8945 7.83815C25.3404 8.00246 24.8685 7.70355 24.6238 7.02184C23.7463 4.56768 22.042 3.11686 19.4515 2.70783C16.2876 2.20791 12.956 4.72849 12.5959 7.91331C12.2288 11.1506 14.0502 13.9788 17.0305 14.7986C20.0388 15.6271 23.0244 14.2043 24.3825 11.2991C24.7304 10.5528 25.2338 10.2976 25.8124 10.5702C26.3612 10.8307 26.5098 11.383 26.2004 12.0892C24.6045 15.739 21.0474 17.3297 17.95 16.9696C14.0415 16.5151 11.1591 13.7288 10.6347 10.0703C9.91975 5.08683 13.6936 0.680176 18.6754 0.680176Z" fill="#FF6916"/>
<path d="M1.77072 21.1087C1.75499 18.7157 3.77216 16.681 6.17213 16.6671C8.57036 16.6531 10.598 18.6615 10.6155 21.0667C10.6312 23.4597 8.62105 25.4909 6.21408 25.5083C3.8246 25.5276 1.78645 23.5104 1.77072 21.1087ZM8.59833 21.1139C8.61056 19.7627 7.58275 18.7017 6.23681 18.6772C4.86464 18.6528 3.78439 19.7155 3.78614 21.0894C3.78789 22.4389 4.82968 23.4824 6.18087 23.4877C7.53381 23.4947 8.58609 22.4616 8.59833 21.1139Z" fill="#FF6916"/>
<path d="M49.2947 16.6498C49.2912 19.0847 47.309 21.0704 44.8916 21.0652C42.4829 21.06 40.4919 19.055 40.4937 16.6376C40.4954 14.2236 42.4986 12.2169 44.9055 12.2222C47.3213 12.2274 49.2982 14.2201 49.2947 16.6498ZM47.3055 16.6568C47.309 15.3056 46.2707 14.2516 44.923 14.2393C43.5579 14.2271 42.4461 15.3213 42.4619 16.6638C42.4776 17.9888 43.5596 19.0498 44.8986 19.0515C46.2428 19.0515 47.3003 17.9992 47.3055 16.6568Z" fill="#FF6916"/>
<path d="M23.0943 8.83798C23.0943 11.2869 21.147 13.2341 18.7016 13.2359C16.2597 13.2359 14.309 11.2834 14.309 8.83798C14.309 6.38906 16.2562 4.44357 18.7034 4.44531C21.1575 4.44706 23.096 6.38732 23.0943 8.83798ZM18.7313 6.42577C17.3959 6.41528 16.2999 7.46932 16.2702 8.79428C16.2405 10.1158 17.3819 11.2764 18.7069 11.2729C20.0196 11.2694 21.1156 10.1699 21.1208 8.85022C21.1278 7.51302 20.065 6.43626 18.7313 6.42577Z" fill="#FF6916"/>
<path d="M12.8616 43.4095C12.8616 44.2153 12.8686 45.0229 12.8599 45.8287C12.8511 46.5174 12.4438 46.9736 11.8653 46.9684C11.2884 46.9631 10.9021 46.5157 10.8986 45.8095C10.8916 44.2188 10.8916 42.6264 10.8986 41.0358C10.9021 40.3104 11.2605 39.8873 11.8513 39.8734C12.4596 39.8594 12.8546 40.3138 12.8616 41.055C12.8669 41.8398 12.8616 42.6247 12.8616 43.4095Z" fill="#FF6916"/>
<path d="M36.1814 13.5032C36.1971 14.0573 35.7654 14.5205 35.227 14.5293C34.6974 14.538 34.2219 14.0713 34.2184 13.5382C34.2149 13.026 34.6397 12.5873 35.1588 12.5646C35.7357 12.5401 36.1657 12.9351 36.1814 13.5032Z" fill="#FF6916"/>
<path d="M31.8359 9.85373C31.8499 10.3956 31.4024 10.8623 30.8641 10.8711C30.3257 10.8798 29.8799 10.4288 29.8799 9.87645C29.8799 9.33283 30.2662 8.92905 30.8081 8.90982C31.371 8.89059 31.8237 9.30487 31.8359 9.85373Z" fill="#FF6916"/>
<path d="M30.677 29.5095C28.1931 29.4448 26.2931 27.4434 26.3578 24.9595C26.4189 22.6365 28.4746 20.6875 30.8203 20.7277C33.2518 20.7696 35.22 22.7938 35.1658 25.2007C35.1134 27.6479 33.1084 29.5724 30.677 29.5095ZM33.1731 25.1343C33.1749 23.7849 32.1261 22.7413 30.7697 22.7396C29.4255 22.7378 28.3382 23.8041 28.3347 25.1256C28.3312 26.4401 29.4237 27.5186 30.7627 27.5203C32.1156 27.5221 33.1714 26.4785 33.1731 25.1343Z" fill="#FF6916"/>
</g>
<defs>
<clipPath id="clip0_73_486">
<rect width="53.4916" height="67" fill="white" transform="translate(0 0.680176)"/>
</clipPath>
</defs>
</svg>
