<svg width="73" height="68" viewBox="0 0 73 68" fill="none" xmlns="http://www.w3.org/2000/svg">
<g clip-path="url(#clip0_73_539)">
<path d="M0.000366211 43.7387C0.390822 43.2301 0.901272 43.0548 1.54124 43.0644C3.34686 43.091 5.15248 43.0739 6.9581 43.0739C7.21523 43.0739 7.47236 43.0739 7.77711 43.0739C7.77711 39.622 7.77711 36.2386 7.77711 32.7638C6.50479 32.7638 5.25343 32.7638 4.00206 32.7638C3.36591 32.7638 2.95831 32.459 2.86498 31.8228C2.76594 31.1408 3.26115 30.6378 4.03254 30.6302C5.26676 30.6188 6.50098 30.6264 7.53712 30.6264C8.04947 29.9139 8.40565 29.2472 8.9199 28.7423C9.53511 28.1384 10.3998 28.2089 11.215 28.2089C19.7212 28.2146 28.2275 28.2127 36.7337 28.2127C37.0156 28.2127 37.2994 28.2127 37.5108 28.2127C37.3089 26.6754 36.9718 25.1837 36.9375 23.6845C36.768 16.2663 40.0135 10.7398 46.3922 7.02684C46.7998 6.78871 46.9617 6.5582 46.9446 6.09147C46.9084 5.14276 46.9217 4.19025 46.937 3.23964C46.9636 1.70418 47.9674 0.694512 49.4988 0.690702C53.1348 0.679271 56.7689 0.679271 60.4049 0.690702C61.8848 0.694512 62.8619 1.63179 62.9247 3.11771C62.9666 4.11405 62.9571 5.11419 62.9304 6.11243C62.919 6.54677 63.06 6.7849 63.4561 6.99255C65.2389 7.92411 66.8083 9.14524 68.1778 10.6216C68.8082 11.3017 68.8958 11.9514 68.4063 12.4257C67.8902 12.9267 67.2864 12.8143 66.6217 12.1323C62.2638 7.65741 56.9917 6.00765 50.9634 7.55835C45.0476 9.08047 41.2516 13.0048 39.5755 18.8876C38.7431 21.8118 38.8745 24.7551 39.7697 27.6622C39.825 27.8393 39.9012 28.0089 39.9792 28.2146C40.8249 28.2146 41.6553 28.2146 42.4858 28.2146C46.3827 28.2146 50.2797 28.2261 54.1766 28.2089C55.548 28.2032 56.6527 28.6947 57.5688 29.7139C59.3459 31.6932 61.1515 33.6497 62.9476 35.6138C63.138 35.8214 63.3323 36.0234 63.5571 36.2634C65.357 35.1147 66.8502 33.6992 67.9968 31.958C71.3052 26.9306 71.7643 21.6442 69.3225 16.1234C69.1987 15.8452 69.0482 15.5462 69.0425 15.2547C69.033 14.7308 69.3225 14.3479 69.8539 14.2279C70.4424 14.0964 70.8672 14.3403 71.1319 14.8794C71.9966 16.6377 72.6252 18.4799 72.8347 20.4288C73.6004 27.5631 71.1205 33.3144 65.3856 37.6445C65.3113 37.7017 65.2427 37.7684 65.1741 37.8331C65.1589 37.8465 65.1589 37.875 65.1227 37.9779C65.8217 38.7495 66.5493 39.5553 67.2788 40.3573C68.8158 42.0433 70.3529 43.7292 71.8957 45.4076C72.6366 46.2134 73.0099 47.1411 73.0023 48.248C72.9832 51.1703 73.0004 54.0945 72.9947 57.0168C72.9909 58.838 71.7338 60.1068 69.9167 60.1277C69.2539 60.1354 68.5911 60.1297 67.8616 60.1297C67.5073 62.8138 66.2826 64.9513 64.0009 66.4086C62.4943 67.3707 60.8296 67.7955 59.0506 67.6602C55.866 67.4164 52.1519 65.2428 51.3958 60.1658C45.0399 60.1658 38.6803 60.1658 32.3339 60.1658C32.0977 60.985 31.9054 61.8099 31.6216 62.6024C31.3073 63.4806 30.7131 63.7854 30.056 63.5035C29.4484 63.2444 29.2941 62.6443 29.6217 61.8061C31.0407 58.1675 29.0636 54.3841 25.2924 53.5268C21.8754 52.7495 18.628 55.0623 18.0223 58.7047C17.4928 61.8785 20.0241 65.0885 23.3134 65.4542C24.5572 65.5933 25.719 65.3761 26.8333 64.8313C27.6466 64.4331 28.2122 64.5627 28.5265 65.2028C28.8313 65.82 28.5703 66.361 27.7646 66.7801C22.9592 69.2814 16.9347 66.3248 15.971 60.9926C15.9253 60.7355 15.8719 60.4802 15.8148 60.1773C15.5462 60.1773 15.2739 60.1773 14.8834 60.1773C14.8834 60.7088 14.9005 61.246 14.8796 61.7794C14.8472 62.6214 14.4758 62.9834 13.6397 62.9872C12.2854 62.9948 10.9312 62.9929 9.57701 62.9872C8.81134 62.9834 8.32184 62.5662 8.31422 61.9337C8.3066 61.2993 8.79991 60.8631 9.55606 60.8574C10.5751 60.8478 11.5941 60.8555 12.6645 60.8555C12.6816 60.6173 12.6968 60.4192 12.7178 60.1297C11.8226 60.1297 10.9731 60.1354 10.1256 60.1277C8.6323 60.1163 7.84186 59.3353 7.83425 57.8379C7.82282 55.6281 7.82853 53.4182 7.83425 51.2065C7.83425 50.8407 7.83234 50.5721 7.38855 50.3702C7.09524 50.2368 6.7943 49.7567 6.7962 49.4329C6.79811 49.109 7.10285 48.6575 7.39998 48.4994C7.77901 48.2994 7.84186 48.086 7.83425 47.7279C7.81901 46.9468 7.83044 46.1677 7.83044 45.3123C7.5295 45.2971 7.27999 45.2723 7.02857 45.2723C5.19819 45.2685 3.36972 45.2532 1.53933 45.2799C0.895558 45.2894 0.388917 45.1085 0.00417554 44.5922C0.000366211 44.3103 0.000366211 44.0245 0.000366211 43.7387ZM10.0018 52.9915C12.9502 52.9915 15.8205 52.9991 18.6927 52.9782C18.9251 52.9762 19.1746 52.8067 19.3841 52.6657C22.2373 50.7321 25.8124 50.7378 28.6884 52.6562C28.9798 52.8505 29.3798 52.9762 29.7283 52.9801C33.1739 53.0029 36.6175 52.9953 40.063 52.9934C40.2897 52.9934 40.5145 52.9724 40.724 52.9629C40.724 45.398 40.724 37.9227 40.724 30.4149C40.4935 30.4016 40.3068 30.3787 40.1221 30.3787C30.3816 30.3768 20.6412 30.3768 10.9008 30.3787C10.0456 30.3787 9.97699 30.4568 9.97509 31.3255C9.97318 35.008 9.97318 38.6923 9.97509 42.3747C9.97509 42.5824 9.99604 42.79 10.0113 43.0739C10.8722 43.0739 11.6969 43.0739 12.5216 43.0739C13.1863 43.0739 13.853 43.051 14.5177 43.0853C15.232 43.1215 15.6834 43.5787 15.6719 44.1883C15.6624 44.7979 15.2034 45.2209 14.4872 45.2685C14.2034 45.2875 13.9177 45.2742 13.632 45.2742C12.4302 45.2742 11.2284 45.2742 10.0113 45.2742C10.0113 46.3372 10.0113 47.2992 10.0113 48.3394C10.657 48.3394 11.2684 48.3394 11.8798 48.3394C12.6873 48.3394 13.4949 48.3318 14.3025 48.3413C15.1767 48.3527 15.6815 48.7699 15.6719 49.4519C15.6624 50.1263 15.1596 50.5207 14.2739 50.5359C13.7997 50.5435 13.3235 50.5378 12.8492 50.5378C11.9083 50.5378 10.9693 50.5378 10.0018 50.5378C10.0018 51.3894 10.0018 52.1418 10.0018 52.9915ZM66.736 43.0739C66.6331 42.8967 66.6083 42.8319 66.5664 42.7843C62.9952 38.8733 59.4182 34.9661 55.8527 31.0512C55.3975 30.5521 54.8432 30.3768 54.1995 30.3768C52.9652 30.3787 51.7272 30.4092 50.4949 30.3635C49.8644 30.3406 49.6397 30.4949 49.6473 31.1789C49.6816 34.8841 49.6645 38.5913 49.6645 42.2966C49.6645 42.5271 49.6645 42.7596 49.6645 43.0739C49.9806 43.0739 50.213 43.0739 50.4435 43.0739C51.632 43.0739 52.8186 43.0739 54.0071 43.0739C54.1728 43.0739 54.3404 43.0663 54.5061 43.0777C55.2166 43.1272 55.6965 43.5501 55.7175 44.1407C55.7384 44.756 55.2394 45.2513 54.4985 45.2647C53.0262 45.2875 51.5539 45.2761 50.0816 45.2723C48.354 45.2685 47.4989 44.4131 47.4989 42.6891C47.497 38.8638 47.4989 35.0404 47.4989 31.2151C47.4989 30.9617 47.4989 30.7083 47.4989 30.4264C45.9332 30.4264 44.4514 30.4264 42.9715 30.4264C42.9715 37.9665 42.9715 45.459 42.9715 52.9934C43.2857 52.9934 43.5448 52.9934 43.8019 52.9934C47.1274 52.9934 50.453 53.0086 53.7785 52.9762C54.2166 52.9724 54.7061 52.8181 55.0813 52.5876C57.6831 50.9836 60.4449 50.6292 63.1266 52.0733C64.5818 52.8562 65.976 53.0525 67.5188 52.9991C68.4444 52.9667 69.372 52.9953 70.2977 52.9915C70.4786 52.9896 70.6577 52.9572 70.8253 52.9381C70.8253 52.4124 70.8253 51.9456 70.8253 51.4846C69.3949 51.3303 69.0139 51.1207 68.9968 50.4349C68.9911 50.1911 69.0425 49.8063 69.1968 49.7225C69.6863 49.4519 70.2367 49.2938 70.8272 49.0671C71.0214 48.1241 70.7872 47.2154 69.9625 46.4782C69.6977 46.242 69.5053 45.9143 69.2215 45.7124C68.9377 45.5104 68.5816 45.2952 68.2559 45.2913C65.3341 45.259 62.4124 45.2723 59.4906 45.2723C58.3592 45.2723 57.8355 44.918 57.8412 44.1617C57.8469 43.413 58.365 43.0739 59.5116 43.0739C61.8791 43.072 64.2523 43.0739 66.736 43.0739ZM59.6639 53.403C56.3155 53.3877 53.609 56.0414 53.5881 59.3619C53.5671 62.7681 56.2736 65.519 59.6411 65.5133C62.9438 65.5076 65.6674 62.8043 65.7093 59.4934C65.7512 56.1634 63.0257 53.4182 59.6639 53.403ZM60.7572 5.79429C60.7572 4.9275 60.7363 4.19215 60.7648 3.46062C60.7839 2.9977 60.6144 2.82624 60.1515 2.83386C58.9649 2.85291 57.7802 2.83958 56.5936 2.83958C54.3404 2.83958 52.0872 2.82815 49.834 2.85672C49.5997 2.86053 49.1788 3.08342 49.1654 3.23011C49.1007 4.04928 49.1331 4.87606 49.1331 5.78667C53.0376 4.53125 56.8603 4.52172 60.7572 5.79429ZM32.2025 57.9122C35.0233 57.9122 37.8784 57.9122 40.7183 57.9122C40.7183 56.9616 40.7183 56.0719 40.7183 55.1747C37.4994 55.1747 34.3319 55.1747 31.1626 55.1747C31.5149 56.1024 31.8559 56.9997 32.2025 57.9122ZM42.9467 57.9712C45.7466 57.9712 48.4683 57.9751 51.1901 57.9617C51.3253 57.9617 51.5406 57.8588 51.5805 57.7522C51.8967 56.8987 52.1805 56.0338 52.4719 55.1766C49.3159 55.1766 46.1484 55.1766 42.9448 55.1766C42.9467 56.0986 42.9467 56.9883 42.9467 57.9712ZM9.99604 57.9255C12.0188 57.9255 13.973 57.9255 15.8624 57.9255C16.2262 56.9673 16.5652 56.07 16.9176 55.1404C15.7519 55.1404 14.6129 55.1404 13.474 55.1404C12.3216 55.1404 11.1674 55.1404 9.99413 55.1404C9.99604 56.11 9.99604 56.9844 9.99604 57.9255ZM70.8596 55.1861C69.4349 55.1861 68.1016 55.1861 66.7702 55.1861C67.1264 56.1253 67.4654 57.0244 67.8235 57.9674C68.5073 57.9674 69.2177 57.9865 69.9263 57.9617C70.5129 57.9408 70.8443 57.6131 70.8557 57.013C70.8691 56.4225 70.8596 55.8319 70.8596 55.1861Z" fill="#FF6916"/>
<path d="M-4.84627e-05 37.465C0.37517 36.9373 0.879906 36.7487 1.52559 36.7696C2.5922 36.8039 3.66262 36.7696 4.73113 36.783C5.54252 36.7925 6.04535 37.2173 6.05297 37.8669C6.06059 38.526 5.5768 38.9547 4.75208 38.9661C3.6131 38.9833 2.46839 39.0309 1.33512 38.9413C0.876096 38.9051 0.443738 38.5375 -0.00195312 38.3222C-4.84627e-05 38.0346 -4.84627e-05 37.7507 -4.84627e-05 37.465Z" fill="#FF6916"/>
<path d="M0 49.0153C0.380932 48.5028 0.883763 48.2971 1.52563 48.3295C2.25702 48.3656 2.99222 48.3237 3.72361 48.3428C4.54262 48.3637 5.00164 48.7886 4.9845 49.4686C4.96736 50.1125 4.52167 50.5088 3.73123 50.5297C2.99794 50.5507 2.26464 50.5088 1.53325 50.5431C0.895191 50.5716 0.388551 50.3716 0 49.8687C0 49.5849 0 49.301 0 49.0153Z" fill="#FF6916"/>
<path d="M23.3644 19.3192C20.3227 19.3192 17.2829 19.3211 14.2411 19.3154C13.9611 19.3154 13.5992 19.344 13.4202 19.1916C13.1231 18.9382 12.746 18.5343 12.7688 18.22C12.7955 17.8676 13.1821 17.4885 13.5021 17.2313C13.6869 17.0827 14.0487 17.1246 14.3306 17.1246C20.3418 17.1189 26.351 17.1208 32.3621 17.1227C32.6211 17.1227 32.8859 17.136 33.1392 17.1875C33.6744 17.2999 33.9601 17.658 33.9715 18.1952C33.9848 18.7705 33.6744 19.1363 33.122 19.2697C32.8954 19.3249 32.6516 19.3154 32.4154 19.3173C29.4003 19.3192 26.3814 19.3192 23.3644 19.3192Z" fill="#FF6916"/>
<path d="M27.4442 11.6267C30.3164 11.6267 33.1868 11.6267 36.059 11.6267C36.2971 11.6267 36.5352 11.6229 36.7694 11.6438C37.3865 11.701 37.7256 12.0839 37.7484 12.6668C37.7713 13.2631 37.4132 13.6346 36.8323 13.7603C36.6494 13.8003 36.4532 13.7794 36.2647 13.7794C30.404 13.7794 24.5415 13.7794 18.6809 13.7794C18.5151 13.7794 18.3475 13.7908 18.1837 13.7699C17.5914 13.6956 17.1686 13.225 17.2085 12.6573C17.2505 12.0572 17.5742 11.6838 18.1914 11.6438C18.6885 11.6115 19.1875 11.6248 19.6846 11.6248C22.2711 11.6267 24.8577 11.6267 27.4442 11.6267Z" fill="#FF6916"/>
<path d="M24.0158 56.0044C25.9186 56.0006 27.4766 57.5227 27.4975 59.4068C27.5185 61.3214 25.9433 62.8949 24.0158 62.8854C22.1226 62.874 20.5627 61.3195 20.5646 59.443C20.5665 57.5608 22.1226 56.0101 24.0158 56.0044ZM24.0139 60.7213C24.7491 60.7327 25.3243 60.1631 25.3167 59.4316C25.3091 58.7477 24.7339 58.1609 24.0577 58.1457C23.3797 58.1304 22.7949 58.6943 22.7721 59.3878C22.7435 60.1441 23.2711 60.7098 24.0139 60.7213Z" fill="#FF6916"/>
<path d="M56.0237 21.8053C56.8655 21.8053 57.5988 21.7958 58.3321 21.8072C59.1511 21.8206 59.6387 22.234 59.6464 22.8912C59.654 23.5637 59.1892 23.9771 58.3569 23.9904C57.2903 24.0075 56.2237 24.0094 55.1571 23.9904C54.2333 23.9733 53.8847 23.6056 53.8828 22.6683C53.8752 20.2508 53.8771 17.8314 53.8828 15.4139C53.8847 14.591 54.2942 14.0957 54.9418 14.0938C55.597 14.0919 56.0199 14.591 56.0237 15.4006C56.0294 17.2504 56.0256 19.1002 56.0256 20.9481C56.0237 21.2052 56.0237 21.4605 56.0237 21.8053Z" fill="#FF6916"/>
<path d="M29.5128 24.2173C27.9947 24.2173 26.4748 24.223 24.9568 24.2154C24.1226 24.2096 23.6616 23.8077 23.6731 23.1295C23.6845 22.457 24.1511 22.0741 24.993 22.0722C28.0062 22.0684 31.0212 22.0684 34.0344 22.0722C34.8363 22.0741 35.3467 22.5142 35.3353 23.1638C35.3239 23.7924 34.8401 24.2077 34.0706 24.2135C32.5488 24.2249 31.0308 24.2173 29.5128 24.2173Z" fill="#FF6916"/>
<path d="M18.1019 24.2134C17.3191 24.2134 16.5362 24.2305 15.7534 24.2095C15.0716 24.1905 14.6678 23.7771 14.664 23.1561C14.6602 22.5445 15.083 22.0892 15.7401 22.0797C17.3057 22.0607 18.8714 22.0607 20.437 22.0797C21.0998 22.0873 21.5246 22.535 21.5265 23.1427C21.5303 23.7561 21.117 24.1886 20.4484 24.2076C19.6675 24.2305 18.8847 24.2134 18.1019 24.2134Z" fill="#FF6916"/>
<path d="M67.2765 24.0096C66.9946 23.9944 66.7089 24.0001 66.4308 23.9582C65.8594 23.8744 65.5375 23.501 65.5089 22.9543C65.4804 22.4018 65.7813 21.9541 66.3356 21.8798C66.9584 21.796 67.6079 21.7922 68.2326 21.8684C68.7811 21.937 69.1068 22.3713 69.0897 22.9238C69.0707 23.5048 68.7278 23.8896 68.1259 23.9639C67.8479 23.9982 67.5622 23.9696 67.2784 23.9696C67.2765 23.9849 67.2765 23.9982 67.2765 24.0096Z" fill="#FF6916"/>
<path d="M42.6035 21.7861C42.9101 21.8071 43.2263 21.7899 43.5234 21.8604C44.0701 21.99 44.3843 22.3519 44.3653 22.9368C44.3481 23.5178 44.032 23.8893 43.4644 23.9522C42.9254 24.0112 42.3711 24.015 41.8302 23.9769C41.2131 23.9331 40.7769 23.4645 40.7978 22.912C40.8226 22.2681 41.2112 21.9233 41.8207 21.8261C42.0759 21.7861 42.3425 21.8185 42.6035 21.8185C42.6016 21.8071 42.6016 21.7957 42.6035 21.7861Z" fill="#FF6916"/>
<path d="M53.8886 10.5506C53.8886 10.2896 53.8714 10.0267 53.8924 9.76762C53.9419 9.15611 54.2904 8.81892 54.898 8.78081C55.4828 8.74271 55.9646 9.14468 56.0104 9.74286C56.0504 10.2629 56.0446 10.7887 56.0161 11.3088C55.9818 11.9165 55.5247 12.3432 54.9628 12.3528C54.3762 12.3623 53.9286 11.9127 53.8886 11.2631C53.8752 11.0268 53.8867 10.7887 53.8867 10.5506C53.8848 10.5506 53.8867 10.5506 53.8886 10.5506Z" fill="#FF6916"/>
<path d="M24.1949 40.7111C23.2026 39.6557 22.0883 38.4232 20.9208 37.244C19.5894 35.8971 19.5799 35.7733 20.9151 34.3845C22.136 33.1157 23.5911 32.6871 25.2539 33.2167C25.8405 33.4034 26.4119 33.7825 26.869 34.2054C28.3337 35.558 29.7527 36.962 31.1698 38.3641C32.6383 39.8196 32.6402 41.7074 31.1812 43.1495C29.7965 44.5174 28.389 45.8642 27.0005 47.2282C24.9225 49.2685 22.0807 48.9713 20.1265 46.2662C19.7532 45.7499 19.9646 45.2527 20.3913 44.8031C21.696 43.4239 22.9797 42.0218 24.1949 40.7111ZM22.7664 45.868C23.4502 46.5234 24.473 46.611 25.2653 45.8718C26.7929 44.4469 28.2766 42.9743 29.7622 41.5055C30.1908 41.0826 30.2651 40.5511 29.8213 40.1091C28.2728 38.5699 26.7091 37.0439 25.1225 35.5447C24.4654 34.9236 23.014 35.0474 22.7683 35.5809C24.0749 37.0039 25.2958 38.3641 26.5529 39.6919C27.3662 40.5511 27.3662 40.9873 26.5453 41.8427C25.2786 43.1591 24.0425 44.504 22.7664 45.868Z" fill="#FF6916"/>
<path d="M14.6183 39.3162C15.2354 39.3162 15.8525 39.3009 16.4677 39.32C17.1401 39.3409 17.5553 39.76 17.5572 40.3735C17.5591 40.985 17.1362 41.4346 16.481 41.4441C15.224 41.4631 13.9669 41.4631 12.7117 41.4441C12.066 41.4346 11.6032 40.9697 11.5994 40.3868C11.5956 39.802 12.047 39.3428 12.6984 39.32C13.3383 39.299 13.9783 39.3181 14.6183 39.3162Z" fill="#FF6916"/>
<path d="M59.6464 56.0044C61.5511 56.0082 63.0919 57.5437 63.0938 59.4373C63.0957 61.329 61.5549 62.872 59.6559 62.8835C57.7208 62.8949 56.1704 61.3442 56.1818 59.4106C56.1933 57.5189 57.7379 56.0006 59.6464 56.0044ZM60.8997 59.4392C60.8978 58.7438 60.3416 58.1628 59.6616 58.1438C58.976 58.1247 58.3341 58.7553 58.336 59.4468C58.3379 60.1574 58.9455 60.7384 59.6712 60.7194C60.3778 60.7022 60.9035 60.1555 60.8997 59.4392Z" fill="#FF6916"/>
</g>
<defs>
<clipPath id="clip0_73_539">
<rect width="73" height="67" fill="white" transform="translate(0 0.680176)"/>
</clipPath>
</defs>
</svg>
