<svg width="24" height="24" viewBox="0 0 24 24" fill="none" xmlns="http://www.w3.org/2000/svg">
<path d="M19.6752 6.90065C20.5358 6.38617 21.1797 5.57607 21.4867 4.6216C20.6781 5.10142 19.7933 5.43941 18.8707 5.62097C17.5916 4.26787 15.565 3.93859 13.9233 4.81711C12.2815 5.69564 11.4312 7.56448 11.8474 9.37936C8.53498 9.21307 5.44892 7.6484 3.35711 5.07473C2.26544 6.95769 2.82331 9.36476 4.63199 10.5755C3.97795 10.5545 3.33842 10.3774 2.76671 10.059C2.76671 10.0763 2.76671 10.0936 2.76671 10.1109C2.76709 12.0723 4.14947 13.7618 6.07199 14.1506C5.46533 14.3156 4.82899 14.3399 4.21151 14.2216C4.75218 15.899 6.29812 17.0481 8.06015 17.0824C6.60079 18.2278 4.79853 18.849 2.94335 18.8459C2.61452 18.8464 2.28595 18.8275 1.95935 18.7893C3.84324 19.9999 6.03587 20.6424 8.27519 20.6402C11.3906 20.6616 14.3847 19.4334 16.5876 17.2303C18.7905 15.0272 20.0184 12.033 19.9968 8.9176C19.9968 8.73905 19.9926 8.56145 19.9843 8.38481C20.7911 7.8017 21.4875 7.07935 22.0406 6.25169C21.289 6.58487 20.4916 6.80361 19.6752 6.90065Z" fill="#2C2C2C"/>
</svg>
