<svg width="28" height="28" viewBox="0 0 28 28" fill="none" xmlns="http://www.w3.org/2000/svg">
<path d="M14.0068 21.8536H13.9844C13.915 21.8536 6.96762 21.8402 5.21482 21.3642C4.25098 21.1045 3.49825 20.3514 3.23914 19.3874C2.92395 17.6092 2.77175 15.806 2.78442 14.0002C2.77628 12.1914 2.9326 10.3856 3.25146 8.60512C3.51769 7.64025 4.26711 6.88362 5.22938 6.60816C6.93402 6.16016 13.6899 6.16016 13.9766 6.16016H14.0001C14.0707 6.16016 21.0359 6.1736 22.7708 6.6496C23.7326 6.91057 24.4838 7.66218 24.7443 8.62416C25.0695 10.4089 25.2221 12.2209 25.2001 14.0349C25.2079 15.8415 25.0512 17.645 24.7319 19.4232C24.4695 20.386 23.7163 21.1375 22.7529 21.3978C21.0505 21.8491 14.2935 21.8536 14.0068 21.8536ZM11.7668 10.6458L11.7612 17.3658L17.5987 14.0058L11.7668 10.6458Z" fill="#2C2C2C"/>
</svg>
