<svg width="136" height="107" viewBox="0 0 136 107" fill="none" xmlns="http://www.w3.org/2000/svg">
<path opacity="0.1" d="M56.3604 34.1008C56.3604 55.2702 49.4174 74.6925 35.5315 92.3679C26.7507 103.055 19.7057 107.68 14.3964 106.241C9.49548 104.391 7.04503 101.617 7.04503 97.9171C7.04503 94.4232 8.67867 90.7237 11.9459 86.8187C15.009 82.9136 17.4595 79.728 19.2973 77.2616C21.1351 74.7953 22.6667 72.1234 23.8919 69.2461C26.7507 63.4913 28.1802 56.5033 28.1802 48.2822C23.2793 49.7209 18.3784 49.1043 13.4775 46.4325C4.49249 41.2943 -2.70844e-06 34.7174 -1.30695e-06 26.7018C5.86002e-08 18.8918 2.45046 12.5204 7.35135 7.58778C12.0481 2.86064 18.5826 0.497073 26.955 0.497074C35.3273 0.497076 42.3724 3.68275 48.0901 10.0541C53.6036 16.631 56.3604 24.6466 56.3604 34.1008ZM136 34.1009C136 56.0923 129.159 75.5147 115.477 92.3679C105.063 104.905 96.3844 108.707 89.4414 103.775C88.012 102.747 87.2973 101.103 87.2973 98.842C87.2973 94.7315 88.8288 90.7237 91.8919 86.8187C94.7508 82.9136 97.0991 79.728 98.9369 77.2616C100.775 74.7953 102.306 72.1234 103.532 69.2461C106.39 63.4913 107.82 56.5034 107.82 48.2823C102.919 49.7209 98.1201 49.1044 93.4234 46.4325C84.6426 41.2943 80.2523 34.7174 80.2523 26.7018C80.2523 18.8918 82.6006 12.5205 87.2973 7.58779C91.994 2.86066 98.5285 0.497087 106.901 0.497088C115.273 0.49709 122.216 3.68277 127.73 10.0541C133.243 16.631 136 24.6466 136 34.1009Z" fill="#2C2C2C"/>
</svg>
