<svg width="98" height="47" viewBox="0 0 98 47" fill="none" xmlns="http://www.w3.org/2000/svg">
<circle cx="23.3394" cy="23.4656" r="23.0444" fill="#F4DE4D"/>
<path d="M35.9293 30.116C39.7303 30.116 41.9983 27.701 42.6703 25.181L40.3603 24.425C39.8563 26.105 38.4283 27.701 35.9293 27.701C33.3883 27.701 30.9943 25.853 30.9943 22.367C30.9943 18.755 33.4513 16.97 35.9083 16.97C38.4073 16.97 39.7933 18.419 40.2343 20.225L42.6073 19.427C41.9353 16.823 39.6883 14.597 35.9083 14.597C32.0443 14.597 28.4113 17.516 28.4113 22.367C28.4113 27.218 31.9183 30.116 35.9293 30.116Z" fill="black"/>
<path d="M48.3763 27.029C48.3763 28.646 49.6993 30.116 51.8413 30.116C53.5003 30.116 54.5083 29.276 54.9913 28.499C54.9913 29.318 55.0753 29.738 55.0963 29.801H57.3643C57.3433 29.696 57.2383 29.087 57.2383 28.163V23.081C57.2383 21.044 56.0413 19.259 52.8913 19.259C50.3713 19.259 48.7753 20.834 48.5863 22.598L50.8123 23.102C50.9173 22.073 51.6313 21.254 52.9123 21.254C54.2563 21.254 54.8443 21.947 54.8443 22.808C54.8443 23.165 54.6763 23.459 54.0883 23.543L51.4633 23.942C49.7203 24.194 48.3763 25.202 48.3763 27.029ZM52.3033 28.205C51.3373 28.205 50.8123 27.575 50.8123 26.882C50.8123 26.042 51.4213 25.622 52.1773 25.496L54.8443 25.097V25.559C54.8443 27.554 53.6683 28.205 52.3033 28.205ZM62.5981 33.791V28.646C63.1231 29.423 64.2361 30.053 65.7061 30.053C68.6461 30.053 70.5151 27.743 70.5151 24.677C70.5151 21.653 68.8141 19.343 65.7901 19.343C64.2151 19.343 63.0391 20.078 62.5351 20.96V19.574H60.1831V33.791H62.5981ZM68.0791 24.677C68.0791 26.63 66.9451 27.89 65.3281 27.89C63.7321 27.89 62.5771 26.63 62.5771 24.677C62.5771 22.766 63.7321 21.506 65.3281 21.506C66.9661 21.506 68.0791 22.766 68.0791 24.677ZM74.5579 23.564C74.6419 22.472 75.5239 21.296 77.0569 21.296C78.7369 21.296 79.5349 22.367 79.5769 23.564H74.5579ZM79.8499 26.231C79.5139 27.239 78.7579 28.016 77.2879 28.016C75.7759 28.016 74.5579 26.903 74.4949 25.349H81.9709C81.9919 25.307 82.0339 24.971 82.0339 24.572C82.0339 21.338 80.1859 19.259 77.0359 19.259C74.4529 19.259 72.0589 21.401 72.0589 24.635C72.0589 28.1 74.5159 30.116 77.2879 30.116C79.7449 30.116 81.3619 28.667 81.9079 26.882L79.8499 26.231ZM85.9998 24.656C85.9998 22.703 87.1758 21.464 88.7718 21.464C90.3678 21.464 91.4598 22.682 91.4598 24.635C91.4598 26.588 90.3468 27.911 88.7508 27.911C87.0918 27.911 85.9998 26.609 85.9998 24.656ZM93.8118 14.597H91.4388V20.771C91.1238 20.12 90.2208 19.301 88.4358 19.301C85.5588 19.301 83.5638 21.716 83.5638 24.656C83.5638 27.743 85.5378 30.053 88.4778 30.053C89.9268 30.053 90.9978 29.339 91.4808 28.478C91.4808 28.898 91.5438 29.57 91.5858 29.801H93.9168C93.8958 29.633 93.8118 28.856 93.8118 27.932V14.597Z" fill="black"/>
<rect x="72.5707" y="14.0384" width="12.5697" height="3.14242" fill="black"/>
</svg>
