<svg width="30" height="27" viewBox="0 0 30 27" fill="none" xmlns="http://www.w3.org/2000/svg">
<g id="Frame" clip-path="url(#clip0_809_53)">
<g id="Group">
<path id="Vector" d="M0 0.660291C0.218498 0.169817 0.588534 -0.00815772 1.12009 -0.0010149C2.74121 0.0221992 4.36291 0.00672315 5.98461 0.00791362C6.62248 0.00791362 6.905 0.229936 7.05184 0.869813C7.25389 1.75433 7.44478 2.64183 7.64977 3.57218C7.76607 3.57218 7.88883 3.57218 8.01217 3.57218C14.9871 3.57218 21.962 3.58051 28.9363 3.55908C29.6505 3.5567 30.1815 4.06206 29.9418 4.89896C28.7935 8.90786 27.6717 12.9251 26.5398 16.9388C26.3419 17.6411 26.094 17.8275 25.3634 17.8275C20.1958 17.8275 15.0282 17.8275 9.86059 17.8275C9.32727 17.8275 8.98837 18.0292 8.8521 18.4233C8.66121 18.9763 9.01949 19.534 9.61508 19.6036C9.73079 19.6173 9.84943 19.6114 9.96632 19.6114C15.1533 19.612 20.3409 19.6114 25.5278 19.612C26.0929 19.612 26.4776 19.9536 26.4946 20.4626C26.5117 20.9733 26.141 21.3786 25.6341 21.3893C25.2048 21.3983 24.7754 21.3911 24.3372 21.4114C25.0509 21.5875 25.6359 21.9584 26.0435 22.5739C26.4594 23.2018 26.5904 23.9 26.4329 24.6429C26.1645 25.9101 24.9916 26.8066 23.7088 26.7334C22.4348 26.6607 21.401 25.6768 21.2407 24.3738C21.1085 23.3018 21.6489 21.8637 23.4351 21.4054C19.5585 21.4054 15.7348 21.4054 11.9105 21.4054C12.6106 21.5852 13.195 21.9477 13.6032 22.5572C14.0162 23.1733 14.1524 23.856 14.015 24.5935C13.7842 25.831 12.6529 26.7578 11.3907 26.7381C10.1014 26.7185 9.02419 25.7596 8.82508 24.4542C8.61304 23.0637 9.4001 21.9417 11.0153 21.3923C10.5783 21.3923 10.1983 21.3929 9.81772 21.3923C8.46033 21.3905 7.4348 20.6185 7.10705 19.3518C6.80104 18.1697 7.35492 16.9757 8.51143 16.3209C8.54432 16.3025 8.57428 16.2787 8.61422 16.2513C7.55697 11.4311 6.50148 6.61621 5.44247 1.78767C4.51562 1.78767 3.60815 1.78767 2.70068 1.78767C2.18322 1.78767 1.66399 1.76267 1.1477 1.79481C0.609092 1.82755 0.222609 1.64362 0 1.13529C0 0.976956 0 0.818623 0 0.660291ZM27.9613 5.36264C21.3088 5.36264 14.6881 5.36264 8.04037 5.36264C8.82273 8.92989 9.60098 12.4811 10.3792 16.0292C15.2514 16.0292 20.1018 16.0292 24.9534 16.0292C25.956 12.4745 26.9539 8.93643 27.9613 5.36264ZM12.3081 24.0905C12.3252 23.6233 11.9252 23.1953 11.4553 23.178C10.9942 23.1608 10.5719 23.5661 10.5549 24.0423C10.5378 24.5096 10.9378 24.9375 11.4077 24.9548C11.8688 24.9721 12.2905 24.5673 12.3081 24.0905ZM23.9026 23.1798C23.4445 23.1488 23.0157 23.5423 22.984 24.0227C22.9534 24.4869 23.3417 24.9215 23.8157 24.9536C24.2738 24.9846 24.7026 24.5911 24.7343 24.1107C24.7648 23.6459 24.3766 23.2119 23.9026 23.1798Z" fill="#2C2C2C"/>
</g>
</g>
<defs>
<clipPath id="clip0_809_53">
<rect width="30" height="26.7391" fill="white"/>
</clipPath>
</defs>
</svg>
