<svg width="21" height="21" viewBox="0 0 21 21" fill="none" xmlns="http://www.w3.org/2000/svg">
<path d="M16.896 6.33379C17.6132 5.90506 18.1498 5.22998 18.4056 4.43459C17.7317 4.83443 16.9944 5.11609 16.2256 5.26739C15.1597 4.13981 13.4708 3.86541 12.1027 4.59751C10.7346 5.32962 10.026 6.88698 10.3728 8.39939C7.6125 8.26081 5.04079 6.95692 3.29761 4.81219C2.38788 6.38133 2.85277 8.38722 4.36001 9.39619C3.81498 9.37867 3.28203 9.2311 2.80561 8.96579C2.80561 8.98019 2.80561 8.99459 2.80561 9.00899C2.80593 10.6435 3.95791 12.0515 5.56001 12.3754C5.05446 12.5129 4.52418 12.5332 4.00961 12.4346C4.46017 13.8324 5.74845 14.79 7.21681 14.8186C6.00068 15.7731 4.49879 16.2907 2.95281 16.2882C2.67879 16.2886 2.40498 16.2728 2.13281 16.241C3.70272 17.2498 5.52991 17.7853 7.39601 17.7834C9.99221 17.8012 12.4872 16.7777 14.323 14.9418C16.1588 13.1059 17.1821 10.6108 17.164 8.01459C17.164 7.86579 17.1605 7.71779 17.1536 7.57059C17.826 7.08467 18.4063 6.48271 18.8672 5.79299C18.2408 6.07064 17.5764 6.25293 16.896 6.33379Z" fill="#2C2C2C"/>
</svg>
