<svg width="21" height="21" viewBox="0 0 21 21" fill="none" xmlns="http://www.w3.org/2000/svg">
<path d="M10.8325 18.7498C6.71306 18.6956 3.38679 15.3693 3.33249 11.2498C3.38679 7.13041 6.71306 3.80415 10.8325 3.74985C14.9519 3.80415 18.2782 7.13041 18.3325 11.2498C18.2782 15.3693 14.9519 18.6956 10.8325 18.7498ZM10.8325 5.41652C7.62847 5.4587 5.04134 8.04582 4.99916 11.2498C5.04134 14.4539 7.62847 17.041 10.8325 17.0832C14.0365 17.041 16.6236 14.4539 16.6658 11.2498C16.6236 8.04582 14.0365 5.4587 10.8325 5.41652ZM14.9992 12.0832H9.99916V7.08318H11.6658V10.4165H14.9992V12.0832ZM17.7425 6.00652L15.235 3.50652L16.4092 2.32568L18.9175 4.82568L17.7425 6.00568V6.00652ZM3.92166 6.00652L2.74249 4.82568L5.23499 2.32568L6.41416 3.50652L3.92333 6.00652H3.92166Z" fill="#FF6916"/>
</svg>
