<svg width="20" height="21" viewBox="0 0 20 21" fill="none" xmlns="http://www.w3.org/2000/svg">
<path d="M15.8333 18.9836H4.16667C3.24619 18.9836 2.5 18.2374 2.5 17.3169V5.65023C2.5 4.72975 3.24619 3.98356 4.16667 3.98356H5.83333V2.31689H7.5V3.98356H12.5V2.31689H14.1667V3.98356H15.8333C16.7538 3.98356 17.5 4.72975 17.5 5.65023V17.3169C17.5 18.2374 16.7538 18.9836 15.8333 18.9836ZM4.16667 8.98356V17.3169H15.8333V8.98356H4.16667ZM4.16667 5.65023V7.31689H15.8333V5.65023H4.16667ZM14.1667 15.6502H12.5V13.9836H14.1667V15.6502ZM10.8333 15.6502H9.16667V13.9836H10.8333V15.6502ZM7.5 15.6502H5.83333V13.9836H7.5V15.6502ZM14.1667 12.3169H12.5V10.6502H14.1667V12.3169ZM10.8333 12.3169H9.16667V10.6502H10.8333V12.3169ZM7.5 12.3169H5.83333V10.6502H7.5V12.3169Z" fill="#B7B7B7"/>
</svg>
