<svg width="26" height="23" viewBox="0 0 26 23" fill="none" xmlns="http://www.w3.org/2000/svg">
<g id="Frame" clip-path="url(#clip0_1702_378)">
<g id="Group">
<path id="Vector" d="M0.5 0.633779C0.682081 0.225051 0.990445 0.0767387 1.43341 0.082691C2.78434 0.102036 4.13576 0.0891394 5.48717 0.0901315C6.01873 0.0901315 6.25417 0.27515 6.37653 0.808381C6.54491 1.54548 6.70399 2.28506 6.87481 3.06035C6.97172 3.06035 7.07402 3.06035 7.17681 3.06035C12.9892 3.06035 18.8016 3.0673 24.6136 3.04944C25.2087 3.04746 25.6512 3.46858 25.4515 4.166C24.4946 7.50675 23.5597 10.8545 22.6165 14.1992C22.4516 14.7845 22.245 14.9397 21.6361 14.9397C17.3298 14.9397 13.0235 14.9397 8.71716 14.9397C8.27273 14.9397 7.9903 15.1079 7.87675 15.4363C7.71767 15.8971 8.01624 16.3619 8.51256 16.4199C8.60899 16.4313 8.70786 16.4263 8.80526 16.4263C13.1277 16.4268 17.4507 16.4263 21.7732 16.4268C22.2441 16.4268 22.5647 16.7116 22.5788 17.1357C22.593 17.5613 22.2842 17.8991 21.8618 17.908C21.504 17.9154 21.1462 17.9095 20.781 17.9263C21.3757 18.0732 21.8632 18.3822 22.2029 18.8951C22.5495 19.4184 22.6586 20.0002 22.5275 20.6193C22.3038 21.6753 21.3263 22.4223 20.2573 22.3613C19.1957 22.3008 18.3342 21.4809 18.2006 20.3951C18.0904 19.5017 18.5407 18.3033 20.0292 17.9214C16.7987 17.9214 13.6123 17.9214 10.4254 17.9214C11.0088 18.0712 11.4959 18.3733 11.836 18.8812C12.1801 19.3946 12.2937 19.9635 12.1792 20.5781C11.9868 21.6094 11.0441 22.3817 9.99222 22.3653C8.91784 22.3489 8.02016 21.5498 7.85423 20.462C7.67753 19.3033 8.33342 18.3683 9.67945 17.9105C9.31529 17.9105 8.9986 17.911 8.68143 17.9105C7.55027 17.909 6.69566 17.2656 6.42254 16.2101C6.16753 15.225 6.6291 14.2299 7.59286 13.6843C7.62027 13.6689 7.64523 13.6491 7.67851 13.6263C6.79747 9.60942 5.9179 5.59704 5.0354 1.57326C4.26302 1.57326 3.50679 1.57326 2.75057 1.57326C2.31935 1.57326 1.88666 1.55242 1.45642 1.57921C1.00758 1.60649 0.685508 1.45322 0.5 1.02961C0.5 0.897666 0.5 0.765723 0.5 0.633779ZM23.801 4.55241C18.2573 4.55241 12.7401 4.55241 7.2003 4.55241C7.85227 7.52511 8.50082 10.4844 9.14936 13.4412C13.2095 13.4412 17.2515 13.4412 21.2945 13.4412C22.13 10.479 22.9616 7.53056 23.801 4.55241ZM10.7568 20.159C10.771 19.7696 10.4376 19.4129 10.0461 19.3986C9.66183 19.3842 9.3099 19.722 9.29571 20.1188C9.28152 20.5082 9.61484 20.8648 10.0064 20.8792C10.3906 20.8936 10.7421 20.5563 10.7568 20.159ZM20.4188 19.4C20.037 19.3742 19.6797 19.7021 19.6533 20.1024C19.6279 20.4893 19.9514 20.8514 20.3464 20.8782C20.7282 20.904 21.0855 20.5761 21.1119 20.1758C21.1374 19.7884 20.8138 19.4268 20.4188 19.4Z" fill="#2C2C2C"/>
</g>
</g>
<defs>
<clipPath id="clip0_1702_378">
<rect width="25" height="22.2826" fill="white" transform="translate(0.5 0.0834961)"/>
</clipPath>
</defs>
</svg>
