<svg width="21" height="21" viewBox="0 0 21 21" fill="none" xmlns="http://www.w3.org/2000/svg">
<path fill-rule="evenodd" clip-rule="evenodd" d="M10.5 4.09816C6.73438 4.09816 3.68178 7.15076 3.68178 10.9163C3.68178 14.6819 6.73438 17.7345 10.5 17.7345C14.2655 17.7345 17.3181 14.6819 17.3181 10.9163C17.3181 7.15076 14.2655 4.09816 10.5 4.09816ZM2.16663 10.9163C2.16663 6.31397 5.89759 2.58301 10.5 2.58301C15.1023 2.58301 18.8333 6.31397 18.8333 10.9163C18.8333 15.5187 15.1023 19.2497 10.5 19.2497C5.89759 19.2497 2.16663 15.5187 2.16663 10.9163Z" fill="#FF6916"/>
<path fill-rule="evenodd" clip-rule="evenodd" d="M2.16663 10.9163C2.16663 10.4561 2.5058 10.083 2.9242 10.083H18.0757C18.4941 10.083 18.8333 10.4561 18.8333 10.9163C18.8333 11.3766 18.4941 11.7497 18.0757 11.7497H2.9242C2.5058 11.7497 2.16663 11.3766 2.16663 10.9163Z" fill="#FF6916"/>
<path fill-rule="evenodd" clip-rule="evenodd" d="M8.00023 10.7912C8.05735 13.1556 8.93859 15.4319 10.5 17.2882C12.0615 15.4319 12.9427 13.1556 12.9998 10.7912C12.9427 8.42675 12.0615 6.1504 10.5 4.2941C8.93859 6.1504 8.05735 8.42675 8.00023 10.7912ZM10.5 3.10161L9.88475 2.58301C7.66412 4.8263 6.40213 7.73753 6.33355 10.7751C6.33331 10.7858 6.33331 10.7965 6.33355 10.8072C6.40213 13.8448 7.66412 16.756 9.88475 18.9993C10.0426 19.1588 10.2659 19.2497 10.5 19.2497C10.7341 19.2497 10.9574 19.1588 11.1153 18.9993C13.336 16.756 14.5979 13.8448 14.6665 10.8072C14.6668 10.7965 14.6668 10.7858 14.6665 10.7751C14.5979 7.73753 13.336 4.8263 11.1153 2.58301L10.5 3.10161Z" fill="#FF6916"/>
</svg>
