<svg width="21" height="21" viewBox="0 0 21 21" fill="none" xmlns="http://www.w3.org/2000/svg">
<g clip-path="url(#clip0_90_1965)">
<path fill-rule="evenodd" clip-rule="evenodd" d="M10.5 2.44478C8.9087 2.44478 7.38258 3.08863 6.25736 4.2347C5.13214 5.38076 4.5 6.93516 4.5 8.55594C4.5 10.9225 6.0118 13.2189 7.66946 15.0011C8.48296 15.8757 9.299 16.5917 9.91251 17.0893C10.1408 17.2745 10.3403 17.4287 10.5 17.549C10.6597 17.4287 10.8592 17.2745 11.0875 17.0893C11.701 16.5917 12.517 15.8757 13.3305 15.0011C14.9882 13.2189 16.5 10.9225 16.5 8.55594C16.5 6.93516 15.8679 5.38076 14.7426 4.2347C13.6174 3.08863 12.0913 2.44478 10.5 2.44478ZM10.5 18.4866C10.084 19.1222 10.0838 19.122 10.0836 19.1219L10.0814 19.1204L10.0764 19.117L10.0592 19.1052C10.0446 19.0951 10.0238 19.0806 9.99717 19.0618C9.9439 19.0242 9.86735 18.9694 9.77084 18.8985C9.57791 18.7565 9.30477 18.5494 8.97812 18.2844C8.326 17.7555 7.45454 16.9915 6.58054 16.0518C4.8632 14.2055 3 11.5366 3 8.55594C3 6.52996 3.79018 4.58697 5.1967 3.15439C6.60322 1.72181 8.51088 0.916992 10.5 0.916992C12.4891 0.916992 14.3968 1.72181 15.8033 3.15439C17.2098 4.58697 18 6.52996 18 8.55594C18 11.5366 16.1368 14.2055 14.4195 16.0518C13.5455 16.9915 12.674 17.7555 12.0219 18.2844C11.6952 18.5494 11.4221 18.7565 11.2292 18.8985C11.1327 18.9694 11.0561 19.0242 11.0028 19.0618C10.9762 19.0806 10.9554 19.0951 10.9408 19.1052L10.9236 19.117L10.9186 19.1204L10.917 19.1215C10.9168 19.1217 10.916 19.1222 10.5 18.4866ZM10.5 18.4866L10.916 19.1222C10.6641 19.2932 10.3355 19.293 10.0836 19.1219L10.5 18.4866Z" fill="#FF6916"/>
<path fill-rule="evenodd" clip-rule="evenodd" d="M10.5 6.75065C9.57948 6.75065 8.83329 7.49684 8.83329 8.41732C8.83329 9.33779 9.57948 10.084 10.5 10.084C11.4204 10.084 12.1666 9.33779 12.1666 8.41732C12.1666 7.49684 11.4204 6.75065 10.5 6.75065ZM7.16663 8.41732C7.16663 6.57637 8.65901 5.08398 10.5 5.08398C12.3409 5.08398 13.8333 6.57637 13.8333 8.41732C13.8333 10.2583 12.3409 11.7507 10.5 11.7507C8.65901 11.7507 7.16663 10.2583 7.16663 8.41732Z" fill="#FF6916"/>
</g>
<defs>
<clipPath id="clip0_90_1965">
<rect width="20" height="20" fill="white" transform="translate(0.5 0.0834961)"/>
</clipPath>
</defs>
</svg>
