<svg width="21" height="21" viewBox="0 0 21 21" fill="none" xmlns="http://www.w3.org/2000/svg">
<path d="M8.11843 7.3184C7.22416 8.07827 6.89644 9.46409 7.66862 10.5758C8.39122 11.6162 9.30144 12.5262 10.3416 13.2485C11.4534 14.0205 12.8391 13.6927 13.5989 12.7984L13.6074 12.8023C14.5778 13.2519 15.6086 13.56 16.6666 13.717V15.9168L16.6657 15.9168L16.6634 15.9168C10.0179 15.9262 4.99288 10.8428 4.99999 4.25315V4.25016H7.19945L7.1996 4.25114C7.35664 5.30904 7.66465 6.33894 8.11426 7.30939L8.11843 7.3184ZM16.6657 17.5835H17.5C17.9602 17.5835 18.3333 17.2104 18.3333 16.7501V12.9983C18.3333 12.5853 18.0308 12.2346 17.6223 12.174L16.9105 12.0683C16.0102 11.9347 15.1338 11.6726 14.3079 11.29L13.6805 10.9994C13.317 10.831 12.885 10.9452 12.6521 11.2712L12.3681 11.6689C12.1192 12.0174 11.644 12.1238 11.2922 11.8795C10.4153 11.2706 9.64671 10.5022 9.0375 9.62507C8.79316 9.27328 8.89961 8.79797 9.24817 8.54905L9.64562 8.26522C9.97172 8.03234 10.0859 7.60034 9.91745 7.23675L9.62651 6.60877C9.24393 5.78299 8.98183 4.90662 8.8482 4.0064L8.74251 3.29446C8.68187 2.88596 8.33119 2.5835 7.91821 2.5835H4.16665C3.70642 2.5835 3.33332 2.95659 3.33332 3.41683V4.25136C3.32522 11.7567 9.09184 17.5942 16.6657 17.5835Z" fill="#FF6916"/>
</svg>
