<svg width="46" height="46" viewBox="0 0 46 46" fill="none" xmlns="http://www.w3.org/2000/svg">
<g clip-path="url(#clip0_90_347)">
<path d="M40.9857 40.0436L35.293 30.1836C36.2372 29.3885 36.8897 28.2577 37.064 26.9763C37.1824 26.105 37.6306 25.3287 38.3259 24.7905C40.1284 23.3953 40.7843 20.9474 39.921 18.8377C39.5879 18.0239 39.5879 17.1275 39.921 16.3138C40.7843 14.2041 40.1284 11.7563 38.3259 10.361C37.6306 9.8228 37.1823 9.04652 37.064 8.17521C36.7568 5.91661 34.9648 4.1246 32.7062 3.81755C31.835 3.69905 31.0587 3.25092 30.5205 2.5556C29.1252 0.753039 26.6776 0.0971872 24.5677 0.960493C23.7539 1.29356 22.8575 1.29356 22.0438 0.960493C19.9343 0.0970994 17.4863 0.753039 16.091 2.5556C15.5528 3.25092 14.7765 3.69905 13.9052 3.81755C11.6465 4.12469 9.85457 5.91661 9.54753 8.1753C9.42903 9.04661 8.9809 9.82289 8.28558 10.3611C6.48302 11.7564 5.82716 14.2043 6.69047 16.3139C7.02354 17.1276 7.02354 18.0241 6.69047 18.8378C5.82708 20.9474 6.48302 23.3953 8.28558 24.7906C8.9809 25.3288 9.42903 26.1051 9.54753 26.9763C9.72404 28.2746 10.3918 29.4179 11.356 30.2144L5.68107 40.0436C5.50333 40.3515 5.52847 40.7362 5.74497 41.0182C5.96139 41.3002 6.32628 41.4242 6.6699 41.3322L11.6163 40.0068L12.936 44.9319C13.0281 45.2754 13.3179 45.5295 13.6704 45.5759C13.7089 45.581 13.7473 45.5835 13.7854 45.5835C14.0964 45.5835 14.388 45.4182 14.5464 45.144L20.6699 34.5377C21.1342 34.4877 21.5966 34.374 22.0437 34.191C22.8575 33.858 23.754 33.858 24.5676 34.191C25.0337 34.3819 25.5165 34.4982 26.0008 34.5446L32.1203 45.144C32.2787 45.4183 32.5703 45.5835 32.8813 45.5835C32.9194 45.5835 32.9578 45.581 32.9964 45.5759C33.3489 45.5295 33.6387 45.2754 33.7307 44.9319L35.0505 40.0068L39.9969 41.3322C40.3401 41.4242 40.7054 41.3003 40.9218 41.0182C41.1382 40.7362 41.1634 40.3515 40.9857 40.0436ZM14.0849 42.4271L13.0869 38.7027C13.0265 38.4775 12.8793 38.2855 12.6773 38.1689C12.4754 38.0524 12.2356 38.0208 12.0103 38.0811L8.26465 39.0847L12.8834 31.0848C13.21 31.2017 13.5518 31.286 13.9051 31.3341C14.7764 31.4526 15.5527 31.9007 16.0909 32.596C16.774 33.4785 17.7096 34.0855 18.7341 34.3745L14.0849 42.4271ZM21.3777 32.564C19.9968 33.1292 18.3945 32.6998 17.4811 31.52C16.6589 30.4577 15.473 29.773 14.1419 29.5921C12.6635 29.391 11.4904 28.218 11.2894 26.7395C11.1084 25.4084 10.4238 24.2226 9.36152 23.4003C8.18158 22.487 7.75226 20.8846 8.3174 19.5037C8.82627 18.2604 8.82627 16.8912 8.3174 15.6479C7.75226 14.2671 8.18158 12.6646 9.36152 11.7513C10.4238 10.9291 11.1084 9.74325 11.2894 8.41212C11.4905 6.93366 12.6635 5.76058 14.1419 5.55954C15.473 5.37864 16.6589 4.69395 17.4811 3.63172C18.1253 2.79953 19.1118 2.34076 20.122 2.34076C20.5442 2.34076 20.9706 2.42102 21.3776 2.5876C22.621 3.09638 23.9903 3.09638 25.2335 2.5876C26.6143 2.02237 28.2168 2.45178 29.1301 3.63172C29.9523 4.69395 31.1382 5.37864 32.4691 5.55954C33.9476 5.76058 35.1206 6.93357 35.3217 8.41212C35.5027 9.74325 36.1874 10.9291 37.2496 11.7513C38.4295 12.6646 38.8588 14.267 38.2937 15.6479C37.7849 16.8912 37.7849 18.2604 38.2937 19.5037C38.8588 20.8846 38.4294 22.487 37.2496 23.4003C36.1874 24.2225 35.5027 25.4084 35.3217 26.7394C35.1206 28.2179 33.9476 29.391 32.4692 29.592C31.1381 29.7729 29.9522 30.4576 29.13 31.5199C28.2166 32.6999 26.6143 33.1291 25.2335 32.5639C23.9902 32.0552 22.621 32.0552 21.3777 32.564ZM34.6563 38.0811C34.1872 37.9553 33.7055 38.2338 33.5798 38.7027L32.5817 42.4271L27.9246 34.3606C28.9304 34.0663 29.8478 33.4648 30.5205 32.596C31.0586 31.9006 31.8349 31.4525 32.7061 31.3341C33.0759 31.2838 33.433 31.193 33.7733 31.0675L38.4019 39.0847L34.6563 38.0811Z" fill="#2C2C2C"/>
<path d="M19.311 14.3242L16.576 17.0591C16.4112 17.2239 16.3185 17.4475 16.3185 17.6806C16.3185 17.9137 16.4112 18.1374 16.576 18.3022L21.7055 23.4317C21.8703 23.5966 22.0939 23.6892 22.327 23.6892C22.5602 23.6892 22.7838 23.5966 22.9486 23.4317L30.0908 16.2895C30.4341 15.9463 30.4341 15.3897 30.0908 15.0464L27.3559 12.3115C27.191 12.1466 26.9675 12.054 26.7344 12.054C26.5013 12.054 26.2776 12.1466 26.1128 12.3115L22.3271 16.0972L20.5543 14.3243C20.3895 14.1595 20.1658 14.0668 19.9327 14.0668C19.6994 14.0667 19.4758 14.1594 19.311 14.3242ZM21.7054 17.9619C21.8702 18.1267 22.0938 18.2194 22.327 18.2194C22.5601 18.2194 22.7837 18.1267 22.9485 17.9619L26.7342 14.1762L28.226 15.668L22.327 21.567L18.4407 17.6807L19.9325 16.189L21.7054 17.9619Z" fill="#2C2C2C"/>
<path d="M34.7609 17.8715C34.7609 15.5364 34.0611 13.2907 32.7372 11.377C31.4444 9.50843 29.6486 8.07955 27.544 7.24499C27.0926 7.06611 26.5818 7.28683 26.4029 7.73813C26.2239 8.18943 26.4447 8.70033 26.8959 8.8793C30.6057 10.3504 33.0029 13.8801 33.0029 17.8715C33.0029 23.2033 28.6652 27.541 23.3334 27.541C18.0017 27.541 13.664 23.2033 13.664 17.8715C13.664 13.88 16.0611 10.3503 19.771 8.87922C20.2223 8.70024 20.4431 8.18934 20.2641 7.73805C20.0851 7.28675 19.5741 7.06593 19.1229 7.2449C17.0182 8.07955 15.2224 9.50834 13.9296 11.3769C12.6057 13.2906 11.9059 15.5364 11.9059 17.8714C11.9059 24.1726 17.0323 29.299 23.3334 29.299C29.6346 29.299 34.7609 24.1727 34.7609 17.8715Z" fill="#2C2C2C"/>
<path d="M23.3333 8.20191C23.5645 8.20191 23.7913 8.10874 23.9547 7.94435C24.1182 7.78085 24.2124 7.55494 24.2124 7.32287C24.2124 7.09169 24.1183 6.86489 23.9547 6.70139C23.7913 6.53789 23.5645 6.44383 23.3333 6.44383C23.1021 6.44383 22.8753 6.53789 22.7118 6.70139C22.5483 6.86489 22.4543 7.09169 22.4543 7.32287C22.4543 7.55494 22.5483 7.78085 22.7118 7.94435C22.8753 8.10874 23.1021 8.20191 23.3333 8.20191Z" fill="#2C2C2C"/>
</g>
<defs>
<clipPath id="clip0_90_347">
<rect width="45" height="45" fill="white" transform="translate(0.833344 0.583519)"/>
</clipPath>
</defs>
</svg>
