<svg width="24" height="24" viewBox="0 0 24 24" fill="none" xmlns="http://www.w3.org/2000/svg">
<g id="map-pin">
<path id="Vector (Stroke)" fill-rule="evenodd" clip-rule="evenodd" d="M12 2.83335C10.0904 2.83335 8.25909 3.60597 6.90883 4.98125C5.55857 6.35652 4.8 8.2218 4.8 10.1667C4.8 13.0066 6.61416 15.7623 8.60336 17.9009C9.57955 18.9505 10.5588 19.8097 11.295 20.4068C11.569 20.629 11.8083 20.8141 12 20.9584C12.1917 20.8141 12.431 20.629 12.705 20.4068C13.4412 19.8097 14.4204 18.9505 15.3966 17.9009C17.3858 15.7623 19.2 13.0066 19.2 10.1667C19.2 8.2218 18.4414 6.35652 17.0912 4.98125C15.7409 3.60597 13.9096 2.83335 12 2.83335ZM12 22.0835C11.5008 22.8462 11.5005 22.8461 11.5003 22.8459L11.4977 22.8441L11.4917 22.84L11.4711 22.8258C11.4536 22.8137 11.4286 22.7963 11.3966 22.7737C11.3327 22.7286 11.2408 22.6629 11.125 22.5778C10.8935 22.4075 10.5657 22.1589 10.1737 21.8409C9.3912 21.2063 8.34545 20.2894 7.29664 19.1618C5.23584 16.9462 3 13.7435 3 10.1667C3 7.73557 3.94821 5.40397 5.63604 3.68487C7.32387 1.96578 9.61305 1 12 1C14.3869 1 16.6761 1.96578 18.364 3.68487C20.0518 5.40397 21 7.73557 21 10.1667C21 13.7435 18.7642 16.9462 16.7034 19.1618C15.6546 20.2894 14.6088 21.2063 13.8263 21.8409C13.4343 22.1589 13.1065 22.4075 12.875 22.5778C12.7592 22.6629 12.6673 22.7286 12.6034 22.7737C12.5714 22.7963 12.5464 22.8137 12.5289 22.8258L12.5083 22.84L12.5023 22.8441L12.5004 22.8454C12.5001 22.8456 12.4992 22.8462 12 22.0835ZM12 22.0835L12.4992 22.8462C12.1969 23.0515 11.8026 23.0512 11.5003 22.8459L12 22.0835Z" fill="#FF6916"/>
<path id="Vector (Stroke)_2" fill-rule="evenodd" clip-rule="evenodd" d="M12 8C10.8954 8 10 8.89543 10 10C10 11.1046 10.8954 12 12 12C13.1046 12 14 11.1046 14 10C14 8.89543 13.1046 8 12 8ZM8 10C8 7.79086 9.79086 6 12 6C14.2091 6 16 7.79086 16 10C16 12.2091 14.2091 14 12 14C9.79086 14 8 12.2091 8 10Z" fill="#FF6916"/>
</g>
</svg>
